<?xml version="1.0" encoding="utf-8"?>
<!-- Generator: Adobe Illustrator 21.1.0, SVG Export Plug-In . SVG Version: 6.00 Build 0)  -->
<svg version="1.1" id="Calque_1" xmlns="http://www.w3.org/2000/svg" xmlns:xlink="http://www.w3.org/1999/xlink" x="0px" y="0px"
	 viewBox="0 0 45 32" style="enable-background:new 0 0 45 32;" xml:space="preserve">
<style type="text/css">
	.st0{fill:none;enable-background:new    ;}
	.st1{fill:url(#SVGID_1_);}
	.st2{fill:#FFFFFF;}
</style>
<path class="st0" d="M0,0"/>
<linearGradient id="SVGID_1_" gradientUnits="userSpaceOnUse" x1="-165.6283" y1="-153.7556" x2="-164.4003" y2="-153.7556" gradientTransform="matrix(0 26.9963 -0.8337 0 -105.686 4470.7749)">
	<stop  offset="0" style="stop-color:#2A1F48"/>
	<stop  offset="0.3515" style="stop-color:#2A1F48"/>
	<stop  offset="0.4737" style="stop-color:#384581"/>
	<stop  offset="0.5515" style="stop-color:#3D64AD"/>
	<stop  offset="0.5925" style="stop-color:#3D64AB"/>
	<stop  offset="0.6315" style="stop-color:#3B64A6"/>
	<stop  offset="0.6697" style="stop-color:#39659D"/>
	<stop  offset="0.7074" style="stop-color:#376690"/>
	<stop  offset="0.7448" style="stop-color:#34677E"/>
	<stop  offset="0.7819" style="stop-color:#316768"/>
	<stop  offset="0.8181" style="stop-color:#2F664D"/>
	<stop  offset="0.8485" style="stop-color:#2B6434"/>
	<stop  offset="1" style="stop-color:#2B6434"/>
</linearGradient>
<rect x="0" y="-0.6" class="st1" width="45" height="33.2"/>
<path class="st2" d="M13.8,15.3h9.6c-0.1-1.9-0.6-3.9-2-5.1c-1.8-1.5-4.8-2.1-7.6-2.1c-2.9,0-6,0.6-7.8,2.2
	c-1.5,1.4-1.9,3.6-1.9,5.6c0,2.1,0.6,4.6,2.3,6c1.8,1.5,4.6,1.9,7.3,1.9c2.7,0,5.6-0.4,7.3-1.9c1.7-1.4,2.3-3.8,2.3-6c0,0,0,0,0,0
	h-9.7V15.3z"/>
<path class="st2" d="M24.1,15.9v7.5h13.4v0c2-0.1,3.5-1.7,3.5-3.7c0-2-1.6-3.7-3.5-3.8v0H24.1z"/>
<path class="st2" d="M40.8,11.8c0-1.9-1.5-3.4-3.4-3.4c-0.1,0-0.3,0-0.4,0H24.1v6.9h13.5C39.4,15.1,40.8,13.6,40.8,11.8z"/>
</svg>
