<?xml version="1.0" encoding="utf-8"?>
<!-- Generator: Adobe Illustrator 21.1.0, SVG Export Plug-In . SVG Version: 6.00 Build 0)  -->
<svg version="1.1" id="Calque_1" xmlns="http://www.w3.org/2000/svg" xmlns:xlink="http://www.w3.org/1999/xlink" x="0px" y="0px"
	 viewBox="0 0 52 32" style="enable-background:new 0 0 52 32;" xml:space="preserve">
<style type="text/css">
	.st0{fill:none;enable-background:new    ;}
	.st1{clip-path:url(#SVGID_2_);}
	.st2{fill:url(#path10283_1_);}
</style>
<path class="st0" d="M0,0"/>
<g id="layer1" transform="translate(-333.70157,-536.42431)">
	<g id="g10267" transform="matrix(4.9846856,0,0,-4.9846856,-1470.1185,1039.6264)">
		<g>
			<defs>
				<path id="SVGID_1_" d="M367.3,98.3c0-0.4,0.4-0.7,0.7-0.8c0.3-0.1,0.4-0.2,0.4-0.4c0-0.2-0.2-0.3-0.5-0.3
					c-0.4,0-0.6,0.1-0.8,0.2l-0.1-0.7c0.2-0.1,0.5-0.2,0.9-0.2c0.8,0,1.3,0.4,1.3,1c0,0.8-1.1,0.8-1.1,1.2c0,0.1,0.1,0.2,0.3,0.2
					c0.1,0,0.4,0,0.8-0.1l0.1,0.6c-0.2,0.1-0.4,0.1-0.7,0.1C367.8,99.3,367.3,98.9,367.3,98.3 M370.6,99.2c-0.1,0-0.3-0.1-0.3-0.2
					l-1.2-2.8h0.8l0.2,0.4h1l0.1-0.4h0.7l-0.6,3H370.6 M370.7,98.4l0.2-1.1h-0.6L370.7,98.4 M366.3,99.2l-0.6-3h0.8l0.6,3H366.3
					 M365.1,99.2l-0.8-2l-0.3,1.7c0,0.2-0.2,0.3-0.4,0.3h-1.3l0-0.1c0.3-0.1,0.6-0.2,0.8-0.3c0.1-0.1,0.1-0.1,0.2-0.3l0.6-2.4h0.8
					l1.2,3H365.1"/>
			</defs>
			<clipPath id="SVGID_2_">
				<use xlink:href="#SVGID_1_"  style="overflow:visible;"/>
			</clipPath>
			<g id="g10269" class="st1">
				<g id="g10275" transform="translate(351.611,96.896)">
					
						<linearGradient id="path10283_1_" gradientUnits="userSpaceOnUse" x1="5.656" y1="-9.4325" x2="5.7512" y2="-9.4325" gradientTransform="matrix(419.708 154.5691 154.5691 -419.708 -904.2965 -4833.7329)">
						<stop  offset="0" style="stop-color:#222357"/>
						<stop  offset="1" style="stop-color:#254AA5"/>
					</linearGradient>
					<path id="path10283" class="st2" d="M9.7,2l9.4,3.5l2.1-5.8l-9.4-3.5"/>
				</g>
			</g>
		</g>
	</g>
</g>
</svg>
