<?xml version="1.0" encoding="utf-8"?>
<!-- Generator: Adobe Illustrator 21.1.0, SVG Export Plug-In . SVG Version: 6.00 Build 0)  -->
<svg version="1.1" id="Calque_1" xmlns="http://www.w3.org/2000/svg" xmlns:xlink="http://www.w3.org/1999/xlink" x="0px" y="0px"
	 viewBox="0 0 52 32" style="enable-background:new 0 0 52 32;" xml:space="preserve">
<style type="text/css">
	.st0{fill:none;enable-background:new    ;}
	.st1{fill:#F49419;}
	.st2{fill:#EB621D;}
	.st3{fill:#E41522;}
	.st4{fill:#F59E1F;}
</style>
<path class="st0" d="M0,0"/>
<g>
	<path d="M12.8,27.3c-0.4,0-0.8,0.1-1.1,0.6c-0.2-0.3-0.5-0.6-1-0.6c-0.3,0-0.7,0.1-0.9,0.5v-0.4H9.1v3.1h0.7v-1.7
		c0-0.5,0.3-0.8,0.8-0.8c0.4,0,0.7,0.3,0.7,0.8v1.7h0.7v-1.7c0-0.5,0.3-0.8,0.8-0.8c0.5,0,0.7,0.3,0.7,0.8v1.7H14v-1.9
		C14,27.8,13.5,27.3,12.8,27.3z"/>
	<path d="M26.1,27.3c-0.9,0-1.5,0.7-1.5,1.6c0,1,0.7,1.6,1.6,1.6c0.5,0,0.9-0.1,1.3-0.4l-0.3-0.5c-0.3,0.2-0.6,0.3-0.9,0.3
		c-0.4,0-0.8-0.2-0.9-0.8h2.3c0-0.1,0-0.2,0-0.3C27.6,28,27,27.3,26.1,27.3z M25.3,28.7c0.1-0.4,0.3-0.8,0.8-0.8
		c0.4,0,0.7,0.3,0.8,0.8H25.3z"/>
	<path d="M23.4,29.9c-0.3,0-0.4-0.2-0.4-0.5V28H24v-0.6h-1.1v-0.9h-0.7v0.9h-0.6V28h0.6v1.4c0,0.7,0.3,1.1,1.1,1.1
		c0.3,0,0.6-0.1,0.8-0.2L24,29.8C23.8,29.9,23.6,29.9,23.4,29.9z"/>
	<path d="M20.1,28.6l-0.3,0c-0.3,0-0.5-0.1-0.5-0.3c0-0.2,0.2-0.4,0.6-0.4c0.4,0,0.8,0.1,1,0.3l0.3-0.5c-0.3-0.2-0.8-0.3-1.3-0.3
		c-0.8,0-1.3,0.4-1.3,1c0,0.5,0.4,0.8,1.1,0.9l0.3,0c0.4,0.1,0.5,0.1,0.5,0.3c0,0.2-0.2,0.4-0.7,0.4c-0.5,0-0.8-0.1-1-0.3l-0.3,0.5
		c0.4,0.3,0.8,0.4,1.3,0.4c0.9,0,1.4-0.4,1.4-1C21.2,29,20.8,28.7,20.1,28.6z"/>
	<path d="M17.1,27.8c-0.2-0.3-0.5-0.5-1-0.5c-0.9,0-1.5,0.7-1.5,1.6c0,0.9,0.7,1.6,1.5,1.6c0.4,0,0.8-0.2,1-0.5v0.4h0.7V29v-1.5
		h-0.7V27.8z M16.2,29.9c-0.6,0-0.9-0.4-0.9-1c0-0.5,0.4-1,0.9-1c0.6,0,0.9,0.4,0.9,1C17.1,29.5,16.8,29.9,16.2,29.9z"/>
	<path d="M44.2,30.4C44.3,30.3,44.3,30.3,44.2,30.4c0-0.1,0-0.1,0-0.1c0,0,0,0-0.1,0H44v0.3h0.1v-0.1h0l0.1,0.1h0.1L44.2,30.4
		C44.2,30.4,44.2,30.4,44.2,30.4z M44.1,30.3L44.1,30.3L44.1,30.3c0.1-0.1,0.1-0.1,0.1-0.1c0,0,0,0,0,0s0,0,0,0
		C44.2,30.3,44.2,30.3,44.1,30.3L44.1,30.3z"/>
	<path d="M42.3,27.8c-0.2-0.3-0.5-0.5-1-0.5c-0.9,0-1.5,0.7-1.5,1.6c0,0.9,0.7,1.6,1.5,1.6c0.4,0,0.8-0.2,1-0.5v0.4H43V29v-2.8h-0.7
		V27.8z M41.4,29.9c-0.6,0-0.9-0.4-0.9-1c0-0.5,0.4-1,0.9-1c0.6,0,0.9,0.4,0.9,1C42.4,29.5,42,29.9,41.4,29.9z"/>
	<path d="M44.4,30.2C44.4,30.2,44.4,30.2,44.4,30.2c-0.1-0.1-0.1-0.1-0.2-0.2c0,0-0.1,0-0.1,0c0,0-0.1,0-0.1,0c0,0-0.1,0-0.1,0.1
		c0,0-0.1,0.1-0.1,0.1c0,0,0,0.1,0,0.1s0,0.1,0,0.1c0,0,0,0.1,0.1,0.1c0,0,0.1,0,0.1,0.1c0,0,0.1,0,0.1,0c0,0,0.1,0,0.1,0
		c0,0,0.1,0,0.1-0.1c0,0,0.1-0.1,0.1-0.1c0,0,0-0.1,0-0.1S44.4,30.3,44.4,30.2z M44.4,30.5C44.3,30.5,44.3,30.5,44.4,30.5
		c-0.1,0.1-0.1,0.1-0.1,0.1c0,0-0.1,0-0.1,0c0,0-0.1,0-0.1,0c0,0-0.1,0-0.1-0.1c0,0,0,0-0.1-0.1c0,0,0-0.1,0-0.1c0,0,0-0.1,0-0.1
		c0,0,0-0.1,0.1-0.1c0,0,0,0,0.1-0.1c0,0,0.1,0,0.1,0c0,0,0.1,0,0.1,0c0,0,0.1,0,0.1,0.1c0,0,0,0,0.1,0.1
		C44.4,30.3,44.4,30.3,44.4,30.5C44.4,30.4,44.4,30.4,44.4,30.5z"/>
	<path d="M32.1,28c0.3,0,0.6,0.1,0.8,0.3l0.3-0.5c-0.3-0.3-0.6-0.4-1.1-0.4c-1,0-1.7,0.7-1.7,1.6c0,0.9,0.7,1.6,1.7,1.6
		c0.5,0,0.8-0.1,1.1-0.4l-0.3-0.5c-0.3,0.2-0.5,0.3-0.8,0.3c-0.5,0-0.9-0.4-0.9-1C31.2,28.4,31.6,28,32.1,28z"/>
	<path d="M38.3,27.8v-0.4h-0.7v3.1h0.7v-1.7c0-0.5,0.2-0.8,0.7-0.8c0.1,0,0.3,0,0.4,0.1l0.2-0.6c-0.1-0.1-0.3-0.1-0.5-0.1
		C38.7,27.3,38.5,27.5,38.3,27.8z"/>
	<path d="M29,27.8v-0.4h-0.7v3.1H29v-1.7c0-0.5,0.2-0.8,0.7-0.8c0.1,0,0.3,0,0.4,0.1l0.2-0.6c-0.1-0.1-0.3-0.1-0.5-0.1
		C29.4,27.3,29.1,27.5,29,27.8z"/>
	<path d="M36.1,27.8c-0.2-0.3-0.5-0.5-1-0.5c-0.9,0-1.5,0.7-1.5,1.6c0,0.9,0.7,1.6,1.5,1.6c0.4,0,0.8-0.2,1-0.5v0.4h0.7V29v-1.5
		h-0.7V27.8z M35.2,29.9c-0.6,0-0.9-0.4-0.9-1c0-0.5,0.4-1,0.9-1c0.6,0,0.9,0.4,0.9,1C36.1,29.5,35.8,29.9,35.2,29.9z"/>
</g>
<g transform="matrix(1.25 0 0 -1.25 1103.2 710.77)">
	<path class="st1" d="M-847,552.4v0.4h-0.1l-0.1-0.2l-0.1,0.2h-0.1v-0.4h0.1v0.3l0.1-0.2h0.1l0.1,0.2L-847,552.4L-847,552.4z
		 M-847.6,552.4v0.3h0.1v0.1h-0.3v-0.1h0.1L-847.6,552.4L-847.6,552.4z"/>
</g>
<path class="st2" d="M31.1,22.2H20.9V3.8h10.2V22.2z"/>
<g transform="matrix(1.25 0 0 -1.25 1064.5 698.59)">
	<path class="st3" d="M-834.4,548.5c0,3,1.4,5.6,3.6,7.3c-1.6,1.2-3.6,2-5.8,2c-5.1,0-9.3-4.2-9.3-9.3c0-5.1,4.2-9.3,9.3-9.3
		c2.2,0,4.2,0.7,5.8,2C-833,542.9-834.4,545.5-834.4,548.5"/>
</g>
<g transform="matrix(1.25 0 0 -1.25 1103.8 698.59)">
	<path class="st4" d="M-847.2,548.5c0-5.1-4.2-9.3-9.3-9.3c-2.2,0-4.2,0.7-5.8,2c2.2,1.7,3.6,4.4,3.6,7.3c0,3-1.4,5.6-3.6,7.3
		c1.6,1.2,3.6,2,5.8,2C-851.3,557.8-847.2,553.6-847.2,548.5"/>
</g>
</svg>
