<?xml version="1.0" encoding="UTF-8"?>
<svg width="15px" height="20px" viewBox="0 0 15 20" version="1.1" xmlns="http://www.w3.org/2000/svg" xmlns:xlink="http://www.w3.org/1999/xlink">
    <!-- Generator: Sketch 48.2 (47327) - http://www.bohemiancoding.com/sketch -->
    <title>pin</title>
    <desc>Created with Sketch.</desc>
    <defs></defs>
    <g id="HEADER" stroke="none" stroke-width="1" fill="none" fill-rule="evenodd" transform="translate(-860.000000, -21.000000)" stroke-linecap="round" stroke-linejoin="round">
        <g id="entrées-droites" stroke="#AA192D">
            <g transform="translate(860.000000, 17.000000)">
                <g id="pin" transform="translate(0.000000, 4.000000)">
                    <g id="Page-1">
                        <path d="M13.7941176,7.22826087 C13.7941176,10.877087 7.20588235,18.7934783 7.20588235,18.7934783 C7.20588235,18.7934783 0.617647059,10.877087 0.617647059,7.22826087 C0.617647059,3.5786087 3.56670588,0.619565217 7.20588235,0.619565217 C10.8450588,0.619565217 13.7941176,3.5786087 13.7941176,7.22826087 Z" id="Stroke-1" stroke-width="1.5"></path>
                        <path d="M9.67729412,7.22826087 C9.67729412,8.59708696 8.56882353,9.70569565 7.20588235,9.70569565 C5.84129412,9.70569565 4.73611765,8.59708696 4.73611765,7.22826087 C4.73611765,5.85943478 5.84129412,4.75 7.20588235,4.75 C8.56882353,4.75 9.67729412,5.85943478 9.67729412,7.22826087 Z" id="Stroke-3" stroke-width="1.5"></path>
                    </g>
                </g>
            </g>
        </g>
    </g>
</svg>