<?xml version="1.0" encoding="UTF-8"?>
<svg width="77px" height="103px" viewBox="0 0 77 103" version="1.1" xmlns="http://www.w3.org/2000/svg" xmlns:xlink="http://www.w3.org/1999/xlink">
    <!-- Generator: Sketch 48.2 (47327) - http://www.bohemiancoding.com/sketch -->
    <title>elegant</title>
    <desc>Created with Sketch.</desc>
    <defs></defs>
    <g id="CAD" stroke="none" stroke-width="1" fill="none" fill-rule="evenodd" transform="translate(-204.000000, -1688.000000)">
        <g id="DOUBLE-ENTRE" transform="translate(0.000000, 1528.000000)" fill="#ffffff" stroke="#ffffff">
            <g id="QUI-VIENT" transform="translate(152.000000, 80.000000)">
                <g id="promotion-mensuelles" transform="translate(53.000000, 73.000000)">
                    <g id="elegant" transform="translate(0.000000, 8.000000)">
                        <path d="M8.83274103,23 L7,23 L7,0.902157333 C7,0.403966006 7.41033035,0 7.91637052,0 L68.0836295,0 C68.5898733,0 69,0.403966006 69,0.902157333 L69,21.5232687 C69,22.0216605 68.5898733,22.425426 68.0836295,22.425426 L67.475974,22.425426 L67.475974,21.5232687 L67.167259,21.5232687 L67.167259,1.80431467 L8.83274103,1.80431467 L8.83274103,23 Z" id="Fill-1"></path>
                        <path d="M13.8537443,17.0879854 L62.1462557,17.0879854 L62.1462557,7.9118022 L13.8537443,7.9118022 L13.8537443,17.0879854 Z M63.0731278,19 L12.9268722,19 C12.4150328,19 12,18.5721336 12,18.0439927 L12,6.95600732 C12,6.42786639 12.4150328,6 12.9268722,6 L63.0731278,6 C63.5851732,6 64,6.42786639 64,6.95600732 L64,18.0439927 C64,18.5721336 63.5851732,19 63.0731278,19 Z" id="Fill-3"></path>
                        <path d="M69,94 L67.1704918,94 L67.1704918,22.8440087 L8.8295082,22.8440087 L8.8295082,94 L7,94 L7,22.4948764 C7,21.6706045 7.66533115,21 8.48312131,21 L67.5166754,21 C68.3346689,21 69,21.6706045 69,22.4948764 L69,94 Z" id="Fill-5"></path>
                        <path d="M1.83423913,99.1052632 L73.1657609,99.1052632 L73.1657609,94.8947368 L1.83423913,94.8947368 L1.83423913,99.1052632 Z M73.5050951,101 L1.49470109,101 C0.670516304,101 0,100.307368 0,99.4557895 L0,94.5442105 C0,93.6926316 0.670516304,93 1.49470109,93 L73.5050951,93 C74.3294837,93 75,93.6926316 75,94.5442105 L75,99.4557895 C75,100.307368 74.3294837,101 73.5050951,101 Z" id="Fill-6"></path>
                        <path d="M12.1148824,93 C12.0386385,92.819081 12,92.6276622 12,92.4309936 L12,27.4810724 C12,26.6645139 12.6727647,26 13.4998768,26 L62.5003298,26 C63.3272353,26 64,26.6645139 64,27.4810724 L64,92.4309936 C64,92.5753653 63.9789244,92.7183237 63.9371866,92.8556283 L62.1546494,92.338313 C62.1451448,92.3690046 62.1403924,92.4001001 62.1403924,92.4309936 L62.1403924,27.8172667 L13.8596076,27.8172667 L13.8596076,92.4309936 C13.8596076,92.3896003 13.8507228,92.3469955 13.8341929,92.3074195 L12.1148824,93 Z" id="Fill-7"></path>
                        <polygon id="Fill-8" points="14 51 63 51 63 49 14 49"></polygon>
                        <polygon id="Fill-9" points="13 73 63 73 63 71 13 71"></polygon>
                        <polygon id="Fill-10" points="37 93 39 93 39 28 37 28"></polygon>
                    </g>
                </g>
            </g>
        </g>
    </g>
</svg>