<?xml version="1.0" encoding="UTF-8"?>
<svg width="25px" height="21px" viewBox="0 0 25 21" version="1.1" xmlns="http://www.w3.org/2000/svg" xmlns:xlink="http://www.w3.org/1999/xlink">
    <!-- Generator: Sketch 48.2 (47327) - http://www.bohemiancoding.com/sketch -->
    <title>stock</title>
    <desc>Created with Sketch.</desc>
    <defs></defs>
    <g id="HEADER" stroke="none" stroke-width="1" fill="none" fill-rule="evenodd" transform="translate(-1197.000000, -21.000000)">
        <g id="entrées-droites">
            <g transform="translate(860.000000, 17.000000)">
                <g id="stock" transform="translate(338.000000, 4.000000)">
                    <g id="Page-1" transform="translate(0.000000, 0.869565)">
                        <path d="M16.8740091,0.869565217 L8.57142857,3.7511034 L11.4113256,12.173913 L19.7142857,9.29275994 L16.8740091,0.869565217 Z M10.0308991,4.47696929 L16.1581465,2.35024912 L18.2540561,8.56650897 L12.1271661,10.6932291 L10.0308991,4.47696929 Z" id="Fill-1" fill="#AA192D"></path>
                        <path d="M8.02591112,13.5723808 L4.21600239,2.2734207 C4.21600239,2.2734207 2.62733505,0.344282231 0.2142,0.26504277" id="Stroke-2" stroke="#AA192D" stroke-width="1.5" stroke-linecap="round"></path>
                        <path d="M22.9665198,11.5986335 L11.4524183,15.5943566" id="Stroke-4" stroke="#AA192D" stroke-width="1.5" stroke-linecap="round" stroke-linejoin="round"></path>
                        <path d="M11.3270124,16.1565655 C11.3270124,17.5589083 10.2065077,18.6956522 8.82419838,18.6956522 C7.4414069,18.6956522 6.32090223,17.5589083 6.32090223,16.1565655 C6.32090223,14.7542227 7.4414069,13.6174788 8.82419838,13.6174788 C10.2065077,13.6174788 11.3270124,14.7542227 11.3270124,16.1565655 Z" id="Stroke-6" stroke="#AA192D" stroke-width="1.5"></path>
                        <path d="M13.7142857,5.2173913 L12.8571429,2.60869565" id="Stroke-8" stroke="#AA192D" stroke-width="2"></path>
                        <g id="Group-10" transform="translate(21.428571, 2.826087)"></g>
                    </g>
                </g>
            </g>
        </g>
    </g>
</svg>