<?xml version="1.0" encoding="utf-8"?>
<!-- Generator: Adobe Illustrator 21.1.0, SVG Export Plug-In . SVG Version: 6.00 Build 0)  -->
<svg version="1.1" id="Outline_Icons" xmlns="http://www.w3.org/2000/svg" xmlns:xlink="http://www.w3.org/1999/xlink" x="0px"
	 y="0px" viewBox="0 0 43.4 30" style="enable-background:new 0 0 43.4 30;" xml:space="preserve" fill="#868e96">
<g>
	<g>
		<path d="M34,28.3c-2,0-3.6-1.6-3.6-3.6s1.6-3.6,3.6-3.6s3.6,1.6,3.6,3.6S36,28.3,34,28.3z M34,22.9c-1,0-1.8,0.8-1.8,1.8
			s0.8,1.8,1.8,1.8s1.8-0.8,1.8-1.8S35,22.9,34,22.9z"/>
		<path d="M9.5,28.3c-2,0-3.6-1.6-3.6-3.6s1.6-3.6,3.6-3.6s3.6,1.6,3.6,3.6S11.5,28.3,9.5,28.3z M9.5,22.9c-1,0-1.8,0.8-1.8,1.8
			s0.8,1.8,1.8,1.8s1.8-0.8,1.8-1.8S10.5,22.9,9.5,22.9z"/>
		<path d="M40.1,24.2h-3.4c-0.5,0-0.9-0.4-0.9-0.9s0.4-0.9,0.9-0.9h2.5v-6.2l-2.5-2.5l-0.1-0.1l-3.1-4.4h-4.3
			c-0.5,0-1.3-0.3-1.3-0.8v-5H4.3L4.2,22.5h2.5c0.5,0,0.9,0.4,0.9,0.9s-0.4,0.9-0.9,0.9H3.3c-0.5,0-1.1-0.3-1.1-1.4V2.3
			c0-0.5,0.5-1,1-1h25.6c0.5,0,1.2,0.8,1.2,1.3v4.9h4c0.3,0,0.6,0.1,0.7,0.4l3.4,4.7l2.7,2.7c0.2,0.2,0.3,0.4,0.3,0.6v7.5
			C41,23.8,40.6,24.2,40.1,24.2z"/>
		<path d="M31.1,24.9H12c-0.5,0-0.9-0.4-0.9-0.9s-0.1-1.2,0.4-1.2H31c0.5,0,1,0.7,1,1.2S31.6,24.9,31.1,24.9z"/>
		<path d="M34.7,14.7c-0.3,0-0.5-0.1-0.7-0.4L32.2,12H32c-0.5,0-0.9-0.4-0.9-0.9s0.4-0.9,0.9-0.9h0.7c0.3,0,0.5,0.1,0.7,0.4l2,2.7
			c0.3,0.4,0.2,0.9-0.2,1.2C35,14.6,34.8,14.7,34.7,14.7z"/>
		<path d="M29,20.1c-1,0-1.2-0.9-1.2-1.4V8.5c0-0.5,0.4-1,1-1c0.5,0,1,0.4,1,0.9v10.9C29.9,19.7,29.5,20.1,29,20.1z"/>
		<path d="M40.1,20.7H3.3c-0.5,0-0.9-0.4-0.9-0.9s0.4-0.9,0.9-0.9h36.8c0.5,0,0.9,0.4,0.9,0.9C41,20.3,40.6,20.7,40.1,20.7z"/>
	</g>
</g>
</svg>
