<svg width="0" height="0" style="position:absolute"><symbol viewBox="0 0 26.5 26.5" id="arrow-left" xmlns="http://www.w3.org/2000/svg"><defs><style>.aacls-1{filter:url(#aafilter)}.aacls-2,.aacls-3{fill:none;stroke:#cd0018;stroke-width:1.5px}.aacls-3{fill-rule:evenodd}</style><filter id="aafilter" filterUnits="userSpaceOnUse"><feFlood result="flood" flood-color="#666"/><feComposite result="composite" operator="in" in2="SourceGraphic"/><feBlend result="blend" in2="SourceGraphic"/></filter></defs><g id="aaNAV" class="aacls-1"><circle class="aacls-2" cx="13.25" cy="13.25" r="12.5"/><path class="aacls-3" d="M91.864 1162L87 1157l4.859-5" transform="translate(-77.25 -1143.25)"/></g></symbol><symbol viewBox="0 0 26.5 26.5" id="arrow-right" xmlns="http://www.w3.org/2000/svg"><defs><style>.abcls-1{filter:url(#abfilter)}.abcls-2,.abcls-3{fill:none;stroke:#cd0018;stroke-width:1.5px}.abcls-3{fill-rule:evenodd}</style><filter id="abfilter" filterUnits="userSpaceOnUse"><feFlood result="flood" flood-color="#666"/><feComposite result="composite" operator="in" in2="SourceGraphic"/><feBlend result="blend" in2="SourceGraphic"/></filter></defs><g id="abNAV_copie" data-name="NAV copie" class="abcls-1"><circle class="abcls-2" cx="13.25" cy="13.25" r="12.5"/><path class="abcls-3" d="M786.136 1151l4.859 5-4.859 5" transform="translate(-774.25 -1143.25)"/></g></symbol><symbol id="cadeau" viewBox="0 0 24 23.5" xmlns="http://www.w3.org/2000/svg"><style>.acst0,.acst1{fill:none;stroke:#212121;stroke-linejoin:round;stroke-miterlimit:10}.acst1{stroke-linecap:round}</style><path class="acst0" d="M1.2 6.8h19.1V21H1.2z"/><path class="acst1" d="M16.1 4.4c-.9.9-5.2 1.9-5.2 1.9s1-4.3 1.9-5.2c.9-.9 2.3-.9 3.2 0 1 1 1 2.4.1 3.3z"/><path class="acst1" d="M5.8 4.4c.9.9 5.2 1.9 5.2 1.9S9.9 2.1 9 1.2c-.9-.9-2.3-.9-3.2 0-.9.9-.9 2.3 0 3.2z"/><path class="acst0" d="M21 13.7H2M10.8 5.9v14.6"/></symbol><symbol id="card-a" viewBox="0 0 52 32" xmlns="http://www.w3.org/2000/svg"><style>.adst0{fill:url(#adSVGID_1_)}.st1{fill:none;enable-background:new}.adst2{fill:#fff}</style><radialGradient id="adSVGID_1_" cx="8.676" cy="26.411" r="49.105" gradientUnits="userSpaceOnUse"><stop offset="0" stop-color="#9ed4f5"/><stop offset=".071" stop-color="#99d3f4"/><stop offset=".158" stop-color="#8bcff3"/><stop offset=".252" stop-color="#71c6ef"/><stop offset=".351" stop-color="#50bceb"/><stop offset=".455" stop-color="#2aade3"/><stop offset=".5" stop-color="#18a6e0"/><stop offset="1" stop-color="#2f77bc"/></radialGradient><path class="adst0" d="M52.4 32v-6.9c.2-.3.3-.7.3-1.2s-.1-.9-.3-1.2V0H-.7v32h53.1z"/><path class="adst2" d="M4.7 12.5l-1-2.4-1 2.4m23.9-.9c-.2.1-.4.1-.7.1h-1.8v-1.3h1.8c.3 0 .5 0 .7.1.2.1.3.3.3.5 0 .3-.1.5-.3.6zm12.5.9l-1-2.4-1 2.4h2zm-23.4 2.6h-1.5v-4.7l-2.1 4.7h-1.3l-2.1-4.7v4.7H5.8l-.6-1.4h-3l-.6 1.4H.1L2.7 9h2.2l2.5 5.7V9.1h2.4l1.9 4.1 1.7-4.1h2.4l-.1 6zm5.9 0h-4.8v-6h4.8v1.3h-3.4v1.1h3.3v1.2h-3.3v1.2h3.4v1.2zm6.9-4.4c0 1-.6 1.5-1 1.6.3.1.6.3.7.5.2.3.2.6.2 1.1v1.2h-1.5v-.8c0-.4 0-.9-.2-1.2-.2-.2-.5-.3-1.1-.3H24V15h-1.4V9.1H26c.7 0 1.3 0 1.8.3.4.2.7.6.7 1.3zm2.3 4.4h-1.5v-6h1.5v6zm17.1 0h-2.1l-2.7-4.5v4.5h-2.9l-.6-1.4h-3l-.6 1.4h-1.7c-.7 0-1.6-.2-2.1-.7-.5-.5-.8-1.2-.8-2.3 0-.9.2-1.7.8-2.4.5-.5 1.2-.7 2.2-.7h1.4v1.3h-1.4c-.5 0-.8.1-1.1.4-.2.3-.3.8-.3 1.4 0 .6.1 1.1.4 1.4.2.2.6.3 1 .3h.6L37 9h2.2l2.5 5.7V9.1h2.2l2.5 4.2V9.1h1.5v6zM.1 16.3h2.5l.5-1.3h1.2l.6 1.3h4.9v-1l.4 1h2.5l.4-1v1h12.1v-2.2h.2c.2 0 .2 0 .2.3v1.9H32v-.5c.5.3 1.3.5 2.3.5h2.6l.6-1.3h1.2l.6 1.3h5.1V15l.8 1.3h4.1V7.9h-4v1l-.6-1h-4.1v1l-.5-1h-5.6c-.9 0-1.8.1-2.4.5v-.5h-3.8v.5c-.4-.4-1-.5-1.6-.5H12.5l-.9 2.2-1-2.2H6.1v1l-.5-1H1.9l-1.8 4v4.4zM51.6 20.8H49c-.3 0-.4 0-.6.1-.2.1-.2.2-.2.4s.1.4.3.5c.2.1.3.1.6.1h.8c.8 0 1.3.2 1.6.5.1 0 .1.1.1.1m0 2.3c-.4.5-1 .8-2 .8h-2.8v-1.3h2.8c.3 0 .5 0 .6-.1.1-.1.2-.2.2-.4s-.1-.3-.2-.4c-.1-.1-.3-.1-.5-.1-1.4 0-3.1 0-3.1-1.9 0-.9.6-1.8 2.1-1.8h2.9v-1.2h-2.7c-.8 0-1.4.2-1.8.5v-.5h-4c-.6 0-1.4.2-1.7.5v-.5h-7.1v.5c-.6-.4-1.5-.5-2-.5h-4.7v.5c-.4-.4-1.4-.5-2-.5h-5.2l-1.2 1.3-1.1-1.3h-7.8v8.5H18l1.2-1.3 1.2 1.3h4.7v-2h.5c.6 0 1.4 0 2-.3v2.3h3.9v-2.2h.2c.2 0 .3 0 .3.2v2h11.8c.8 0 1.5-.2 2-.5v.5h3.8c.8 0 1.5-.1 2.1-.4l-.1-1.7zm-5.8-2.4c.3.3.4.7.4 1.3 0 1.3-.8 1.9-2.3 1.9h-2.8v-1.3H44c.3 0 .5 0 .6-.1.1-.1.2-.2.2-.4s-.1-.3-.2-.4c-.1-.1-.3-.1-.5-.1-1.4 0-3 0-3-1.9 0-.9.6-1.8 2.1-1.8H46v1.3h-2.7c-.3 0-.4 0-.6.1-.2.1-.2.2-.2.4s.1.4.3.5c.2.1.3.1.6.1h.8c.8-.1 1.3 0 1.6.4zm-13-.4c-.2.1-.4.1-.7.1h-1.8v-1.4h1.8c.3 0 .5 0 .7.1.2.1.3.3.3.5s-.2.6-.3.7zm.8.7c.3.1.6.3.7.5.2.3.2.6.2 1.1v1.2H33v-.8c0-.4 0-.9-.2-1.2-.2-.2-.5-.3-1.1-.3h-1.5v2.2h-1.5v-6.1H32c.7 0 1.3 0 1.7.3.5.3.7.7.7 1.3.3 1.2-.4 1.7-.8 1.8zm1.9-3.2h4.8v1.3h-3.4v1.1h3.3v1.2h-3.3v1.2h3.4v1.3h-4.8v-6.1zm-9.8 2.8h-1.9v-1.5h1.9c.5 0 .9.2.9.7 0 .5-.3.8-.9.8zM22.4 25l-2.2-2.5 2.2-2.4V25zm-5.8-.7H13v-1.2h3.2v-1.2H13v-1.1h3.6l1.6 1.8-1.6 1.7zm11.6-2.8c0 1.7-1.3 2-2.5 2h-1.8v2H21l-1.8-2-1.9 2h-5.7v-6.1h5.8l1.8 2 1.8-2h4.6c1.3.1 2.6.4 2.6 2.1z"/></symbol><symbol id="card-c" viewBox="0 0 45 32" xmlns="http://www.w3.org/2000/svg"><style>.st0{fill:none;enable-background:new}.aest1{fill:url(#aeSVGID_1_)}.aest2{fill:#fff}</style><linearGradient id="aeSVGID_1_" gradientUnits="userSpaceOnUse" x1="-165.628" y1="-153.756" x2="-164.4" y2="-153.756" gradientTransform="matrix(0 26.9963 -.8337 0 -105.686 4470.775)"><stop offset="0" stop-color="#2a1f48"/><stop offset=".351" stop-color="#2a1f48"/><stop offset=".474" stop-color="#384581"/><stop offset=".551" stop-color="#3d64ad"/><stop offset=".593" stop-color="#3d64ab"/><stop offset=".631" stop-color="#3b64a6"/><stop offset=".67" stop-color="#39659d"/><stop offset=".707" stop-color="#376690"/><stop offset=".745" stop-color="#34677e"/><stop offset=".782" stop-color="#316768"/><stop offset=".818" stop-color="#2f664d"/><stop offset=".849" stop-color="#2b6434"/><stop offset="1" stop-color="#2b6434"/></linearGradient><path class="aest1" d="M0-.6h45v33.2H0z"/><path class="aest2" d="M13.8 15.3h9.6c-.1-1.9-.6-3.9-2-5.1-1.8-1.5-4.8-2.1-7.6-2.1-2.9 0-6 .6-7.8 2.2-1.5 1.4-1.9 3.6-1.9 5.6 0 2.1.6 4.6 2.3 6 1.8 1.5 4.6 1.9 7.3 1.9s5.6-.4 7.3-1.9c1.7-1.4 2.3-3.8 2.3-6h-9.7v-.6zM24.1 15.9v7.5h13.4c2-.1 3.5-1.7 3.5-3.7s-1.6-3.7-3.5-3.8H24.1zM40.8 11.8c0-1.9-1.5-3.4-3.4-3.4H24.1v6.9h13.5c1.8-.2 3.2-1.7 3.2-3.5z"/></symbol><symbol id="card-m" viewBox="0 0 52 32" xmlns="http://www.w3.org/2000/svg"><style>.st0{fill:none;enable-background:new}.afst1{fill:#231f20}.afst2{fill:#f49419}.afst3{fill:#eb621d}.afst4{fill:#e41522}.afst5{fill:#f59e1f}</style><g transform="translate(-3270 -2134.4) scale(3.1437)"><path class="afst1" d="M-39.2 31.8zm0 0zm0-.1c0 .1 0 .1 0 0 0 .1 0 .1 0 0 0 .1 0 .1 0 0v0c-.1.1-.1.1 0 0-.1.1-.1.1 0 0-.1.1-.1.1 0 0-.1 0-.1 0 0 0m0 .1s.1 0 0 0c.1 0 .1 0 0 0 .1 0 .1 0 0 0 .1-.1.1-.1 0-.1s-.1 0 0 .1c-.1 0-.1 0 0 0-.1 0-.1 0 0 0-.1 0-.1 0 0 0-.1 0 0 0 0 0m-6.4.3c0 .1.1.2.2.2s.2-.1.2-.2-.1-.2-.2-.2c-.2 0-.2.1-.2.2m.5 0v.3h-.1v-.1c0 .1-.1.1-.2.1-.2 0-.3-.2-.3-.4s.2-.4.3-.4c.1 0 .2 0 .2.1v-.1h.1v.5zm5.1 0c0 .1.1.2.2.2s.2-.1.2-.2-.1-.2-.2-.2-.2.1-.2.2m.5 0v.6h-.1v-.4c0 .1-.1.1-.2.1-.2 0-.3-.2-.3-.4s.2-.4.3-.4c.1 0 .2 0 .2.1v-.1h.1v.5zm-3.7.2c.1 0 .2-.1.2-.2h-.4c0 .1.1.2.2.2m0 .1c-.2 0-.3-.1-.3-.4 0-.2.1-.4.4-.4.1 0 .2 0 .3.1l-.1.1c-.1 0-.1-.1-.2-.1s-.2 0-.2.2h.5v.1c-.1.3-.2.4-.4.4m1.8-.3c0 .1.1.2.2.2s.2-.1.2-.2-.1-.2-.2-.2-.2.1-.2.2m.6 0v.3h-.2v-.1c0 .1-.1.1-.2.1-.2 0-.3-.2-.3-.4s.2-.4.3-.4c.1 0 .2 0 .2.1v-.1h.1v.5zm-1.5 0c0-.2.1-.4.4-.4.1 0 .2 0 .2.1l-.1.1c-.1 0-.1-.1-.2-.1s-.2.1-.2.2.1.2.2.2.1 0 .2-.1l.1.1c-.1.1-.1.1-.2.1-.2.1-.4 0-.4-.2m2 .3c-.1 0-.1 0-.2-.1v.1h-.1v-.7h.1v.4c0 .1 0 .2.1.2h.1v.1c.1 0 0 0 0 0m-4 0c-.1 0-.2.1-.3.1-.2 0-.3-.1-.3-.2s.1-.2.2-.2h.1c.1 0 .1 0 .1-.1s-.1-.1-.2-.1-.2 0-.2.1l-.1-.1c.1-.1.2-.1.3-.1.2 0 .3.1.3.2s-.1.2-.2.2h-.1c-.1 0-.1 0-.1.1s0 .1.1.1.2 0 .2-.1l.2.1zm1.9 0c-.1 0-.1 0-.2-.1v.1h-.1v-.7h.1v.4c0 .1 0 .2.1.2h.1v.1c.1 0 0 0 0 0m-1.3 0h-.2v.2h-.2v-.2h-.1v-.1h.1V32c0-.2.1-.3.2-.3s.1 0 .2.1v.1h-.1c-.1 0-.1 0-.1.1v.3h.2v.1zm-2.2-.7v.4c0 .2-.1.3-.3.3-.1 0-.2 0-.2-.1 0 .1-.1.1-.2.1s-.1 0-.2-.1v.1h-.2v-.7h.2v.4c0 .1.1.2.2.2s.1-.1.1-.2v-.4h.2v.4c0 .1.1.2.2.2s.2-.1.2-.2v-.4z" transform="matrix(1.25 0 0 -1.25 1102.5 727.74)"/><path class="afst2" d="M-39.7 20.5v.1-.1l-.1.1v-.1h.1zm-.2 0v.1h-.1l.1-.1z" transform="matrix(1.25 0 0 -1.25 1103.2 710.77)"/><path class="afst3" d="M1049.9 685.7h-2.8v-5.1h2.8v5.1z"/><path class="afst4" d="M-13.8 12.3c0 .8.4 1.6 1 2-.4.3-1 .6-1.6.6-1.4 0-2.6-1.2-2.6-2.6s1.2-2.6 2.6-2.6c.6 0 1.2.2 1.6.6-.6.5-1 1.2-1 2" transform="matrix(1.25 0 0 -1.25 1064.5 698.59)"/><path class="afst5" d="M-40.1 12.3c0-1.4-1.2-2.6-2.6-2.6-.6 0-1.2.2-1.6.6.6.5 1 1.2 1 2s-.4 1.6-1 2c.4.3 1 .6 1.6.6 1.5 0 2.6-1.2 2.6-2.6" transform="matrix(1.25 0 0 -1.25 1103.8 698.59)"/></g></symbol><symbol id="card-v" viewBox="0 0 52 32" xmlns="http://www.w3.org/2000/svg"><style>.st0{fill:none;enable-background:new}.agst1{clip-path:url(#agSVGID_2_)}.agst2{fill:url(#agpath10283_1_)}</style><g id="aglayer1" transform="translate(-333.702 -536.424)"><g id="agg10267" transform="matrix(4.98469 0 0 -4.98469 -1470.119 1039.626)"><defs><path id="agSVGID_1_" d="M367.3 98.3c0-.4.4-.7.7-.8.3-.1.4-.2.4-.4s-.2-.3-.5-.3c-.4 0-.6.1-.8.2l-.1-.7c.2-.1.5-.2.9-.2.8 0 1.3.4 1.3 1 0 .8-1.1.8-1.1 1.2 0 .1.1.2.3.2.1 0 .4 0 .8-.1l.1.6c-.2.1-.4.1-.7.1-.8.2-1.3-.2-1.3-.8m3.3.9c-.1 0-.3-.1-.3-.2l-1.2-2.8h.8l.2.4h1l.1-.4h.7l-.6 3h-.7m.1-.8l.2-1.1h-.6l.4 1.1m-4.4.8l-.6-3h.8l.6 3h-.8m-1.2 0l-.8-2-.3 1.7c0 .2-.2.3-.4.3h-1.3v-.1c.3-.1.6-.2.8-.3.1-.1.1-.1.2-.3l.6-2.4h.8l1.2 3h-.8"/></defs><clipPath id="agSVGID_2_"><use xlink:href="#agSVGID_1_" overflow="visible"/></clipPath><g id="agg10269" class="agst1"><g id="agg10275" transform="translate(351.611 96.896)"><linearGradient id="agpath10283_1_" gradientUnits="userSpaceOnUse" x1="5.656" y1="-9.432" x2="5.751" y2="-9.432" gradientTransform="scale(447.2655 -447.2655) rotate(-20.218 29.298 11.074)"><stop offset="0" stop-color="#222357"/><stop offset="1" stop-color="#254aa5"/></linearGradient><path id="agpath10283" class="agst2" d="M9.7 2l9.4 3.5 2.1-5.8-9.4-3.5"/></g></g></g></g></symbol><symbol viewBox="0 -256 1792 1792" id="check" xmlns="http://www.w3.org/2000/svg"><path d="M1397.898 468.237q0-28-18-46l-91-90q-19-19-45-19t-45 19l-408 407-226-226q-19-19-45-19t-45 19l-91 90q-18 18-18 46 0 27 18 45l362 362q19 19 45 19 27 0 46-19l543-543q18-18 18-45zm252 162q0 209-103 385.5t-279.5 279.5q-176.5 103-385.5 103t-385.5-103q-176.5-103-279.5-279.5t-103-385.5q0-209 103-385.5t279.5-279.5q176.5-103 385.5-103t385.5 103q176.5 103 279.5 279.5t103 385.5z" fill="currentColor"/></symbol><symbol viewBox="0 0 1792 1792" id="circle" xmlns="http://www.w3.org/2000/svg"><path d="M1664 896q0 209-103 385.5T1281.5 1561 896 1664t-385.5-103T231 1281.5 128 896t103-385.5T510.5 231 896 128t385.5 103T1561 510.5 1664 896z"/></symbol><symbol viewBox="0 0 24 24" id="circled-1" xmlns="http://www.w3.org/2000/svg"><path d="M12 2C6.5 2 2 6.5 2 12s4.5 10 10 10 10-4.5 10-10S17.5 2 12 2zm1.3 14.6h-1.8V9.5l-2.2.7V8.7l3.8-1.4h.2v9.3z"/><path d="M2 2v20h20V2H2zm10.5 16.7c-3.9 0-7-3.1-7-7s3.1-7 7-7 7 3.1 7 7-3.2 7-7 7z"/></symbol><symbol viewBox="0 0 24 24" id="circled-2" xmlns="http://www.w3.org/2000/svg"><path d="M12 2C6.5 2 2 6.5 2 12s4.5 10 10 10 10-4.5 10-10S17.5 2 12 2zm3.3 14.6H8.9v-1.3c2.7-3 4.2-4.1 4.2-5.3 0-.4-.2-1.3-1.2-1.3-1.3 0-1.3 1.3-1.3 1.6H8.7c0-.9.7-3 3.2-3s3 1.5 3 2.6c0 1.5-1.1 2.7-3.7 5.3h4v1.4h.1z"/><path d="M2 2v20h20V2H2zm10.5 16.7c-3.9 0-7-3.1-7-7s3.1-7 7-7 7 3.1 7 7-3.2 7-7 7z"/></symbol><symbol viewBox="0 0 24 24" id="circled-3" xmlns="http://www.w3.org/2000/svg"><path d="M12 2C6.5 2 2 6.5 2 12s4.5 10 10 10 10-4.5 10-10S17.5 2 12 2zm-.1 14.7c-2.4 0-3.2-1.7-3.1-2.7h1.8c-.1.3.2 1.2 1.4 1.2 1.3 0 1.4-1.1 1.4-1.3 0-1.4-1.3-1.4-1.5-1.4h-1v-1.4h1c.5 0 1.4-.1 1.4-1.3 0-1.1-1-1.2-1.3-1.2-1 0-1.2.8-1.2 1H8.9c0-1.8 1.8-2.5 3-2.5C14.7 7.1 15 9 15 9.7c0 1.3-1.2 1.9-1.4 2 .5.2 1.5.7 1.5 2.2.1 2.2-1.8 2.8-3.2 2.8z"/><path d="M2 2v20h20V2H2zm10.5 16.7c-3.9 0-7-3.1-7-7s3.1-7 7-7 7 3.1 7 7-3.2 7-7 7z"/></symbol><symbol viewBox="0 0 24 24" id="circled-4" xmlns="http://www.w3.org/2000/svg"><path d="M12 2C6.5 2 2 6.5 2 12s4.5 10 10 10 10-4.5 10-10S17.5 2 12 2zm.2 5.3H14v5.8h1v1.5h-1v2h-1.8v-2H8.4l-.1-1.2 3.9-6.1zm-.1 2.6l-2 3.2h2V9.9z"/><path d="M2 2v20h20V2H2zm10.5 16.7c-3.9 0-7-3.1-7-7s3.1-7 7-7 7 3.1 7 7-3.2 7-7 7z"/></symbol><symbol viewBox="0 0 1792 1792" id="facebook" xmlns="http://www.w3.org/2000/svg"><path d="M1343 63v264h-157c-57.3 0-96 12-116 36s-30 60-30 108v189h293l-39 296h-254v759H734V956H479V660h255V442c0-124 34.7-220.2 104-288.5S999.7 51 1115 51c98 0 174 4 228 12z"/></symbol><symbol viewBox="0 0 2304 1792" id="google-plus" xmlns="http://www.w3.org/2000/svg"><path d="M1437 913q0 208-87 370.5t-248 254-369 91.5q-149 0-285-58t-234-156-156-234T0 896t58-285 156-234 234-156 285-58q286 0 491 192l-199 191Q908 433 733 433q-123 0-227.5 62T340 663.5 279 896t61 232.5T505.5 1297t227.5 62q83 0 152.5-23t114.5-57.5 78.5-78.5 49-83 21.5-74H733V791h692q12 63 12 122zm867-122v210h-209v209h-210v-209h-209V791h209V582h210v209h209z"/></symbol><symbol id="home" viewBox="0 0 34.2 31.1" xmlns="http://www.w3.org/2000/svg"><style>.apst1{display:none}.apst2{font-family:'Arial-BoldMT'}.apst3{font-size:6.1561px}</style><path class="apst0" d="M27.5 29.6H7.1V16.2h20.4v13.4zM8.3 28.2h18V17.5h-18v10.7z"/><path class="apst0" d="M27.5 25.6H7.1v-5.4h20.4v5.4zM8.3 24.2h18v-2.7h-18v2.7z"/><path class="apst0" d="M17.3 2.8l13.9 7.4v18.3H3.4l.1-18.3 13.8-7.4m0-1.8L1.9 9.2 1.8 30h30.9V9.7l-.1-.5L17.3 1z"/><text transform="translate(7.75 15.362)" class="apst1 apst2 apst3">DRIVE</text><path class="apst0" d="M21.7 12H13v-1.3h8.7V12z"/></symbol><symbol viewBox="0 0 1792 1792" id="info-circle" xmlns="http://www.w3.org/2000/svg"><path d="M1152 1376v-160q0-14-9-23t-23-9h-96V672q0-14-9-23t-23-9H672q-14 0-23 9t-9 23v160q0 14 9 23t23 9h96v320h-96q-14 0-23 9t-9 23v160q0 14 9 23t23 9h448q14 0 23-9t9-23zm-128-896V320q0-14-9-23t-23-9H800q-14 0-23 9t-9 23v160q0 14 9 23t23 9h192q14 0 23-9t9-23zm640 416q0 209-103 385.5T1281.5 1561 896 1664t-385.5-103T231 1281.5 128 896t103-385.5T510.5 231 896 128t385.5 103T1561 510.5 1664 896z"/></symbol><symbol viewBox="0 0 1792 1792" id="instagram" xmlns="http://www.w3.org/2000/svg"><path d="M1152 896q0-106-75-181t-181-75-181 75-75 181 75 181 181 75 181-75 75-181zm138 0q0 164-115 279t-279 115-279-115-115-279 115-279 279-115 279 115 115 279zm108-410q0 38-27 65t-65 27-65-27-27-65 27-65 65-27 65 27 27 65zM896 266q-7 0-76.5-.5t-105.5 0-96.5 3-103 10T443 297q-50 20-88 58t-58 88q-11 29-18.5 71.5t-10 103-3 96.5 0 105.5.5 76.5-.5 76.5 0 105.5 3 96.5 10 103T297 1349q20 50 58 88t88 58q29 11 71.5 18.5t103 10 96.5 3 105.5 0 76.5-.5 76.5.5 105.5 0 96.5-3 103-10 71.5-18.5q50-20 88-58t58-88q11-29 18.5-71.5t10-103 3-96.5 0-105.5-.5-76.5.5-76.5 0-105.5-3-96.5-10-103T1495 443q-20-50-58-88t-88-58q-29-11-71.5-18.5t-103-10-96.5-3-105.5 0-76.5.5zm768 630q0 229-5 317-10 208-124 322t-322 124q-88 5-317 5t-317-5q-208-10-322-124t-124-322q-5-88-5-317t5-317q10-208 124-322t322-124q88-5 317-5t317 5q208 10 322 124t124 322q5 88 5 317z"/></symbol><symbol viewBox="0 0 43 46" id="lock" xmlns="http://www.w3.org/2000/svg"><path d="M30.8 18.4v-6.5l-.1-.1c0-4.3-2.5-9-7.7-9-6.4 0-9 4.7-9.1 9v6.6H7.4v24.8h30V18.4h-6.6zM16.5 12v-.1c0-3.7 2.5-6.5 6.1-6.5s5.6 3 5.6 6.5v6.5H16.5V12zm18.2 9v19.6H9.9V21h24.8z"/><path d="M25.6 36.7h-6.1l1.2-5.6c-.7-.5-1-1.3-1-2.2 0-1.6 1.3-2.9 2.9-2.9 1.6 0 2.9 1.3 2.9 2.9 0 .8-.4 1.7-1 2.2l1.1 5.6zM21 35.5h3.1l-1-5 .4-.3c.5-.3.8-.9.8-1.4 0-.9-.8-1.7-1.7-1.7-.9 0-1.7.8-1.7 1.7 0 .5.3 1.2.8 1.4l.4.3-1.1 5z"/></symbol><symbol id="phone" viewBox="0 0 61.8 55.5" xmlns="http://www.w3.org/2000/svg"><style>.atst0{fill:none;stroke:#000;stroke-width:2;stroke-linecap:round;stroke-linejoin:round;stroke-miterlimit:10}</style><path class="atst0" d="M24.4 17.4c2-2 2-5.3 0-7.4l-5.6-5.6c-2-2-5.3-2-7.4 0L8.6 7.6c-2.7 2.7-2.9 6.7-.9 9.8C16.4 30.6 28 42.2 41.2 50.8c3.1 2 7.1 1.6 9.8-.9l2.9-2.9c2-2 2-5.3 0-7.4L48.3 34c-2-2-5.3-2-7.4 0l-1.8 1.8c-6-4.9-11.8-10.7-16.7-16.7l2-1.7z"/></symbol><symbol viewBox="0 0 1792 1792" id="pinterest" xmlns="http://www.w3.org/2000/svg"><path d="M1664 896q0 209-103 385.5T1281.5 1561 896 1664q-111 0-218-32 59-93 78-164 9-34 54-211 20 39 73 67.5t114 28.5q121 0 216-68.5t147-188.5 52-270q0-114-59.5-214T1180 449t-255-63q-105 0-196 29t-154.5 77-109 110.5-67 129.5T377 866q0 104 40 183t117 111q30 12 38-20 2-7 8-31t8-30q6-23-11-43-51-61-51-151 0-151 104.5-259.5T904 517q151 0 235.5 82t84.5 213q0 170-68.5 289T980 1220q-61 0-98-43.5T859 1072q8-35 26.5-93.5t30-103T927 800q0-50-27-83t-77-33q-62 0-105 57t-43 142q0 73 25 122l-99 418q-17 70-13 177-206-91-333-281T128 896q0-209 103-385.5T510.5 231 896 128t385.5 103T1561 510.5 1664 896z"/></symbol><symbol viewBox="0 0 1792 1792" id="plus-circle" xmlns="http://www.w3.org/2000/svg"><path d="M1344 960V832q0-26-19-45t-45-19h-256V512q0-26-19-45t-45-19H832q-26 0-45 19t-19 45v256H512q-26 0-45 19t-19 45v128q0 26 19 45t45 19h256v256q0 26 19 45t45 19h128q26 0 45-19t19-45v-256h256q26 0 45-19t19-45zm320-64q0 209-103 385.5T1281.5 1561 896 1664t-385.5-103T231 1281.5 128 896t103-385.5T510.5 231 896 128t385.5 103T1561 510.5 1664 896z"/></symbol><symbol viewBox="0 0 1792 1792" id="question" xmlns="http://www.w3.org/2000/svg"><path d="M1088 1256v240q0 16-12 28t-28 12H808q-16 0-28-12t-12-28v-240q0-16 12-28t28-12h240q16 0 28 12t12 28zm316-600q0 54-15.5 101t-35 76.5-55 59.5-57.5 43.5-61 35.5q-41 23-68.5 65t-27.5 67q0 17-12 32.5t-28 15.5H804q-15 0-25.5-18.5T768 1096v-45q0-83 65-156.5T976 786q59-27 84-56t25-76q0-42-46.5-74T931 548q-65 0-108 29-35 25-107 115-13 16-31 16-12 0-25-8L496 575q-13-10-15.5-25t5.5-28q160-266 464-266 80 0 161 31t146 83 106 127.5 41 158.5z"/></symbol><symbol viewBox="0 0 1792 1792" id="question-circle" xmlns="http://www.w3.org/2000/svg"><path d="M1024 1376v-192q0-14-9-23t-23-9H800q-14 0-23 9t-9 23v192q0 14 9 23t23 9h192q14 0 23-9t9-23zm256-672q0-88-55.5-163T1086 425t-170-41q-243 0-371 213-15 24 8 42l132 100q7 6 19 6 16 0 25-12 53-68 86-92 34-24 86-24 48 0 85.5 26t37.5 59q0 38-20 61t-68 45q-63 28-115.5 86.5T768 1020v36q0 14 9 23t23 9h192q14 0 23-9t9-23q0-19 21.5-49.5T1100 957q32-18 49-28.5t46-35 44.5-48 28-60.5 12.5-81zm384 192q0 209-103 385.5T1281.5 1561 896 1664t-385.5-103T231 1281.5 128 896t103-385.5T510.5 231 896 128t385.5 103T1561 510.5 1664 896z"/></symbol><symbol viewBox="0 0 43.4 30" id="truck" xmlns="http://www.w3.org/2000/svg"><path d="M34 28.3c-2 0-3.6-1.6-3.6-3.6s1.6-3.6 3.6-3.6 3.6 1.6 3.6 3.6-1.6 3.6-3.6 3.6zm0-5.4c-1 0-1.8.8-1.8 1.8s.8 1.8 1.8 1.8 1.8-.8 1.8-1.8-.8-1.8-1.8-1.8zM9.5 28.3c-2 0-3.6-1.6-3.6-3.6s1.6-3.6 3.6-3.6 3.6 1.6 3.6 3.6-1.6 3.6-3.6 3.6zm0-5.4c-1 0-1.8.8-1.8 1.8s.8 1.8 1.8 1.8 1.8-.8 1.8-1.8-.8-1.8-1.8-1.8z"/><path d="M40.1 24.2h-3.4c-.5 0-.9-.4-.9-.9s.4-.9.9-.9h2.5v-6.2l-2.5-2.5-.1-.1-3.1-4.4h-4.3c-.5 0-1.3-.3-1.3-.8v-5H4.3l-.1 19.1h2.5c.5 0 .9.4.9.9s-.4.9-.9.9H3.3c-.5 0-1.1-.3-1.1-1.4V2.3c0-.5.5-1 1-1h25.6c.5 0 1.2.8 1.2 1.3v4.9h4c.3 0 .6.1.7.4l3.4 4.7 2.7 2.7c.2.2.3.4.3.6v7.5c-.1.4-.5.8-1 .8z"/><path d="M31.1 24.9H12c-.5 0-.9-.4-.9-.9s-.1-1.2.4-1.2H31c.5 0 1 .7 1 1.2s-.4.9-.9.9zM34.7 14.7c-.3 0-.5-.1-.7-.4L32.2 12H32c-.5 0-.9-.4-.9-.9s.4-.9.9-.9h.7c.3 0 .5.1.7.4l2 2.7c.3.4.2.9-.2 1.2-.2.1-.4.2-.5.2zM29 20.1c-1 0-1.2-.9-1.2-1.4V8.5c0-.5.4-1 1-1 .5 0 1 .4 1 .9v10.9c.1.4-.3.8-.8.8z"/><path d="M40.1 20.7H3.3c-.5 0-.9-.4-.9-.9s.4-.9.9-.9h36.8c.5 0 .9.4.9.9s-.4.9-.9.9z"/></symbol><symbol viewBox="0 0 1792 1792" id="twitter" xmlns="http://www.w3.org/2000/svg"><path d="M1684 408q-67 98-162 167 1 14 1 42 0 130-38 259.5T1369.5 1125 1185 1335.5t-258 146-323 54.5q-271 0-496-145 35 4 78 4 225 0 401-138-105-2-188-64.5T285 1033q33 5 61 5 43 0 85-11-112-23-185.5-111.5T172 710v-4q68 38 146 41-66-44-105-115t-39-154q0-88 44-163 121 149 294.5 238.5T884 653q-8-38-8-74 0-134 94.5-228.5T1199 256q140 0 236 102 109-21 205-78-37 115-142 178 93-10 186-50z"/></symbol><symbol viewBox="0 0 1792 1792" id="youtube" xmlns="http://www.w3.org/2000/svg"><path d="M1099 1244v211q0 67-39 67-23 0-45-22v-301q22-22 45-22 39 0 39 67zm338 1v46h-90v-46q0-68 45-68t45 68zm-966-218h107v-94H266v94h105v569h100v-569zm288 569h89v-494h-89v378q-30 42-57 42-18 0-21-21-1-3-1-35v-364h-89v391q0 49 8 73 12 37 58 37 48 0 102-61v54zm429-148v-197q0-73-9-99-17-56-71-56-50 0-93 54V933h-89v663h89v-48q45 55 93 55 54 0 71-55 9-27 9-100zm338-10v-13h-91q0 51-2 61-7 36-40 36-46 0-46-69v-87h179v-103q0-79-27-116-39-51-106-51-68 0-107 51-28 37-28 116v173q0 79 29 116 39 51 108 51 72 0 108-53 18-27 21-54 2-9 2-58zM918 525V315q0-69-43-69t-43 69v210q0 70 43 70t43-70zm719 751q0 234-26 350-14 59-58 99t-102 46q-184 21-555 21t-555-21q-58-6-102.5-46t-57.5-99q-26-112-26-350 0-234 26-350 14-59 58-99t103-47q183-20 554-20t555 20q58 7 102.5 47t57.5 99q26 112 26 350zM639 0h102L620 399v271H520V399q-14-74-61-212Q422 84 394 0h106l71 263zm370 333v175q0 81-28 118-38 51-106 51-67 0-105-51-28-38-28-118V333q0-80 28-117 38-51 105-51 68 0 106 51 28 37 28 117zm335-162v499h-91v-55q-53 62-103 62-46 0-59-37-8-24-8-75V171h91v367q0 33 1 35 3 22 21 22 27 0 57-43V171h91z"/></symbol></svg>