<svg width="0" height="0" style="position:absolute"><symbol id="LogoLapeyre" viewBox="0 0 1282.4 411.8" xmlns="http://www.w3.org/2000/svg"><defs><style>.aacls-1{fill:none}.aacls-2{fill:#ae182d}.aacls-3{clip-path:url(#aaclip-path)}.aacls-4{fill:#ea0029}.aacls-5{fill:#fff}</style><clipPath id="aaclip-path"><path class="aacls-1" d="M0 0h1282.4v350.67H0z"/></clipPath></defs><title>LogoLapeyre</title><path class="aacls-2" d="M0 0h1282.4v411.77H0z"/><g class="aacls-3"><path class="aacls-4" d="M206.5 133.3h20.4a2.5 2.5 0 0 1 2.4 2.6v20.4a2.4 2.4 0 0 1-2.2 2.6h-20.6a2.6 2.6 0 0 1-2.6-2.6v-20.4a2.6 2.6 0 0 1 2.6-2.6M172.7 167.5h20.4a2.6 2.6 0 0 1 2.6 2.6v20.4a2.4 2.4 0 0 1-2.4 2.4h-20.6a2.4 2.4 0 0 1-2.6-2.2v-20.6a2.6 2.6 0 0 1 2.6-2.6"/><path class="aacls-4" d="M252.1 90.3c-20.5-16.5-29.3-23.4-44.3-35.7a13.2 13.2 0 0 0-8-3h-.2a13.5 13.5 0 0 0-8.2 3c-22.6 18.5-47.5 38.3-75.1 60.5a14.4 14.4 0 0 0-5.8 11.8c.1 23.4.1 117.9.1 117.9s.8 4.5 4.3 4.7h12c2.6-.2 4.5-.9 4.5-4.5s.2-90.2 0-112.9a4.6 4.6 0 0 1 2.1-4.1l64.6-51.7 1.5-1.2 1.5 1.2 50.7 40.1c2.8 2.5 3-.3 3-.3V94.9a5.2 5.2 0 0 0-2.7-4.6"/><path class="aacls-5" d="M267.8 104.7v136.8a6.4 6.4 0 0 0 6.4 6.3h84.5a6.3 6.3 0 0 0 6.3-6.3v-8.8a6.4 6.4 0 0 0-6.3-6.4h-68.6V123.9c0-2.8 0-4.7-4.5-8.2l-15.3-12.5a2.1 2.1 0 0 0-1.9-.4c-.4.4-.6.7-.6 1.9M464.5 107.8a4.4 4.4 0 0 0-3.8-2.4h-15.5a4.2 4.2 0 0 0-3.9 2.4L383 242.2a4.1 4.1 0 0 0 .2 4 4.7 4.7 0 0 0 3.5 1.8h15.9a3.8 3.8 0 0 0 3.7-2.4l13.5-31.6h65.6l13.4 31.6a4.5 4.5 0 0 0 4 2.4h16a4.2 4.2 0 0 0 4.3-4.1 4.7 4.7 0 0 0-.3-1.7zm11 83.2h-45.8l22.8-53.4zM596.8 105.4h-49a4.1 4.1 0 0 0-4.1 4.1v134.4a4.1 4.1 0 0 0 4.1 4.1h15a4.1 4.1 0 0 0 4.1-4.1v-38.3h29.9c34.4 0 54.9-19.1 54.9-50.8s-20.5-49.4-54.9-49.4m-29.9 23.2h29.3c21.9 0 32.9 8.8 32.9 26.5s-11 27.5-32.9 27.5h-29.3zM769.3 225h-71.8v-37.5h61.7a4.1 4.1 0 0 0 4.1-4.1v-15a4.1 4.1 0 0 0-4.1-4.1h-61.7v-35.7h69.6a4.1 4.1 0 0 0 4.1-4.1v-15a4.3 4.3 0 0 0-4.1-4.1h-88.6a4.1 4.1 0 0 0-4.1 4.1v134.4a4.1 4.1 0 0 0 4.1 4.1h90.8a4.1 4.1 0 0 0 4.3-3.9v-14.8a4.3 4.3 0 0 0-4.3-4.3M906.3 105.4H891a4.1 4.1 0 0 0-3.6 2.1l-38.1 63.9-38.7-63.9a3.9 3.9 0 0 0-3.5-2.1h-15.6a3.9 3.9 0 0 0-3.5 2.1 4.3 4.3 0 0 0 0 4.1l49.9 87.8v44.5a4.1 4.1 0 0 0 4.1 4.1h14.8a4.1 4.1 0 0 0 4.1-4.1v-45l49-87.3a4.3 4.3 0 0 0 0-4.1 4.1 4.1 0 0 0-3.6-2.1M1013.4 200.2c17.6-7.9 27.1-23.8 27.1-45.4 0-31.1-20.7-49.4-55.5-49.4h-49.5a4.1 4.1 0 0 0-4.3 3.9v134.6a4.1 4.1 0 0 0 4.1 4.1h14.9a4.1 4.1 0 0 0 4.3-3.9v-38.5h37l25.6 40.6a4.5 4.5 0 0 0 3.6 1.8h16.8a3.9 3.9 0 0 0 3.7-2.2 3.9 3.9 0 0 0-.1-4.3zm-58.9-71.6H985c21.7 0 32.7 8.8 32.7 26.5s-11 27.5-32.7 27.5h-30.5zM1164.6 225h-71.8v-37.5h61.5a4.3 4.3 0 0 0 4.3-4.3v-14.8a4.1 4.1 0 0 0-4.1-4.1h-61.7v-35.7h69.4a4.3 4.3 0 0 0 4.3-4.3v-14.8a4.3 4.3 0 0 0-4.1-4.1h-88.6a4.1 4.1 0 0 0-4.1 4.1v134.4a4.1 4.1 0 0 0 4.1 4.1h90.8a4.1 4.1 0 0 0 4.3-3.9v-14.8a4.3 4.3 0 0 0-4.3-4.3"/></g><path class="aacls-5" d="M111 302.2h5.3v42.1h26.5v5H111zM167.8 302.2h34.1v4.9h-28.8v16.1h25.8v4.8h-25.8v16.5h29.1v4.8h-34.4zM260.2 342.4l3.3-3.9a22.1 22.1 0 0 0 16.1 6.7c6.4 0 10.5-3.4 10.5-8 0-4.3-2.3-6.8-12.2-9s-15.9-5.8-15.9-13.5c0-7.4 6.6-12.8 15.6-12.8a25.2 25.2 0 0 1 16.6 5.7l-3.2 4.2a20.7 20.7 0 0 0-13.6-5.1c-6 0-9.9 3.4-9.9 7.5 0 4.5 2.4 6.9 12.7 9.1s15.3 6.2 15.3 13.3c0 8.1-6.7 13.3-16.1 13.3a27.5 27.5 0 0 1-19.2-7.5zM337.9 301.9h4.9l21.5 47.4h-5.6l-5.6-12.5h-25.6l-5.6 12.5h-5.5zm13.1 30L340.4 308l-10.9 23.9zM377.9 302.2h6l16.8 40.6 16.8-40.6h5.7L403 349.7h-4.7zM442.8 325.8a24.1 24.1 0 1 1 48-4.4 29.4 29.4 0 0 1 0 4.2 23.9 23.9 0 0 1-23.5 24.3h-.6c-14.4.2-23.9-11-23.9-24.1zm42.4 0c0-10.9-7.8-19.5-18.5-19.5s-18.5 8.6-18.5 19.3c0 10.6 7.8 19.4 18.7 19.4s18.3-8.4 18.3-19.2zM517.5 302.2h5.5v47.1h-5.5zM551.9 302.2h20.2a18.7 18.7 0 0 1 13.5 4.7 13.3 13.3 0 0 1 3.5 9.3c0 7.9-5.4 12.6-12.7 13.9l14.4 19.2h-6.5L570.6 331h-13.4v18.3h-5.3zm19.8 23.9c7 0 12-3.5 12-9.7 0-5.8-4.3-9.3-12-9.3h-14.5v19zM651 302.2h20c5.4 0 9.7 1.5 12.3 4.1a10.1 10.1 0 0 1 3 7.5 11.1 11.1 0 0 1-7.5 10.9c5.6 1.6 10.3 5 10.3 11.4 0 8-6.9 12.9-17.2 12.9H651zm30.1 12.4c0-4.7-3.8-7.7-10.5-7.7h-14.4v16.3h14c6.4 0 10.9-2.8 10.9-8.5zm-9.9 13.2h-15v16.7h15.9c7.1 0 11.6-3.2 11.6-8.4 0-5.3-4.3-8.3-12.5-8.3zM715.3 302.2h5.2v47.1h-5.2zM749.5 302.2h34v4.9h-28.8v16.1h25.8v4.8h-25.8v16.5h29.2v4.8h-34.4zM809.7 302.2h5l29.7 37.8v-37.8h5.1v47.1h-4.1l-30.5-38.7v38.7h-5.2zM913.4 302.2h33.8v4.9h-28.6v16.8h25.6v4.9h-25.6v20.5h-5.2zM984.6 301.9h5.1l21.5 47.4h-5.8l-5.5-12.5h-25.8l-5.4 12.5h-5.6zm13.1 30L987 308l-10.6 23.9zM1036 302.2h5.2v47.1h-5.2zM1070.2 302.2h20.4a18 18 0 0 1 13.3 4.7 12.4 12.4 0 0 1 3.7 9.3c0 7.9-5.4 12.6-12.9 13.9l14.6 19.2h-6.6l-13.6-18.3h-13.5v18.3h-5.4zm19.8 23.9c7.1 0 12.2-3.5 12.2-9.7 0-5.8-4.5-9.3-12.2-9.3h-14.4v19zM1134.1 302.2h34.1v4.9h-28.8v16.1h25.8v4.8h-25.8v16.5h29.1v4.8h-34.4z"/></symbol><symbol viewBox="0 0 12 14" id="arrow-circle-left" xmlns="http://www.w3.org/2000/svg"><path fill="#AB192E" d="M10 7.5v-1q0-.203-.148-.352T9.5 6H5.578l1.477-1.477q.148-.148.148-.352t-.148-.352l-.711-.711q-.141-.141-.352-.141t-.352.141L2.101 6.647q-.141.141-.141.352t.141.352L5.64 10.89q.141.141.352.141t.352-.141l.711-.711q.141-.141.141-.352t-.141-.352L5.578 7.998H9.5q.203 0 .352-.148T10 7.498zm2-.5q0 1.633-.805 3.012t-2.184 2.184-3.012.805-3.012-.805-2.184-2.184T-.002 7t.805-3.012 2.184-2.184T5.999.999t3.012.805 2.184 2.184T12 7z"/></symbol><symbol viewBox="0 0 12 14" id="arrow-circle-right" xmlns="http://www.w3.org/2000/svg"><path fill="#AB192E" d="M10.039 7q0-.211-.141-.352L6.359 3.109q-.141-.141-.352-.141t-.352.141l-.711.711q-.141.141-.141.352t.141.352l1.477 1.477H2.499q-.203 0-.352.148t-.148.352v1q0 .203.148.352t.352.148h3.922L4.944 9.478q-.148.148-.148.352t.148.352l.711.711q.141.141.352.141t.352-.141l3.539-3.539q.141-.141.141-.352zM12 7q0 1.633-.805 3.012t-2.184 2.184-3.012.805-3.012-.805-2.184-2.184T-.002 7t.805-3.012 2.184-2.184T5.999.999t3.012.805 2.184 2.184T12 7z"/></symbol><symbol viewBox="0 0 26.5 26.5" id="arrow-left" xmlns="http://www.w3.org/2000/svg"><defs><style>.adcls-1{filter:url(#adfilter)}.adcls-2,.adcls-3{fill:none;stroke:#cd0018;stroke-width:1.5px}.adcls-3{fill-rule:evenodd}</style><filter id="adfilter" filterUnits="userSpaceOnUse"><feFlood result="flood" flood-color="#666"/><feComposite result="composite" operator="in" in2="SourceGraphic"/><feBlend result="blend" in2="SourceGraphic"/></filter></defs><g id="adNAV" class="adcls-1"><circle class="adcls-2" cx="13.25" cy="13.25" r="12.5"/><path class="adcls-3" d="M91.864 1162L87 1157l4.859-5" transform="translate(-77.25 -1143.25)"/></g></symbol><symbol id="arrow-point-to-left" viewBox="0 0 207.21 414.16" xmlns="http://www.w3.org/2000/svg"><defs><style>.aecls-1{stroke:#fff;stroke-miterlimit:10}</style></defs><title>if_previous_308957</title><path fill="#fff" class="aecls-1" d="M206.71 1.21l-206 206 205.75 205.75.25-60.25L61.65 207.65l145-145 .06-61.44z"/></symbol><symbol id="arrow-point-to-right" viewBox="0 0 207.21 414.16" xmlns="http://www.w3.org/2000/svg"><defs><style>.afcls-1{stroke:#fff;stroke-miterlimit:10}</style></defs><title>right</title><path fill="#fff" class="afcls-1" d="M.5 1.21l206 206L.75 412.96.5 352.71l145.06-145.06-145-145L.5 1.21z"/></symbol><symbol viewBox="0 0 26.5 26.5" id="arrow-right" xmlns="http://www.w3.org/2000/svg"><defs><style>.agcls-1{filter:url(#agfilter)}.agcls-2,.agcls-3{fill:none;stroke:#cd0018;stroke-width:1.5px}.agcls-3{fill-rule:evenodd}</style><filter id="agfilter" filterUnits="userSpaceOnUse"><feFlood result="flood" flood-color="#666"/><feComposite result="composite" operator="in" in2="SourceGraphic"/><feBlend result="blend" in2="SourceGraphic"/></filter></defs><g id="agNAV_copie" data-name="NAV copie" class="agcls-1"><circle class="agcls-2" cx="13.25" cy="13.25" r="12.5"/><path class="agcls-3" d="M786.136 1151l4.859 5-4.859 5" transform="translate(-774.25 -1143.25)"/></g></symbol><symbol id="cadeau" viewBox="0 0 24 23.5" xmlns="http://www.w3.org/2000/svg"><style>.ahst0,.ahst1{fill:none;stroke:#212121;stroke-linejoin:round;stroke-miterlimit:10}.ahst1{stroke-linecap:round}</style><path class="ahst0" d="M1.2 6.8h19.1V21H1.2z"/><path class="ahst1" d="M16.1 4.4c-.9.9-5.2 1.9-5.2 1.9s1-4.3 1.9-5.2c.9-.9 2.3-.9 3.2 0 1 1 1 2.4.1 3.3z"/><path class="ahst1" d="M5.8 4.4c.9.9 5.2 1.9 5.2 1.9S9.9 2.1 9 1.2c-.9-.9-2.3-.9-3.2 0-.9.9-.9 2.3 0 3.2z"/><path class="ahst0" d="M21 13.7H2M10.8 5.9v14.6"/></symbol><symbol id="card-a" viewBox="0 0 52 32" xmlns="http://www.w3.org/2000/svg"><style>.aist0{fill:url(#aiSVGID_1_)}.st1{fill:none;enable-background:new}.aist2{fill:#fff}</style><radialGradient id="aiSVGID_1_" cx="8.676" cy="26.411" r="49.105" gradientUnits="userSpaceOnUse"><stop offset="0" stop-color="#9ed4f5"/><stop offset=".071" stop-color="#99d3f4"/><stop offset=".158" stop-color="#8bcff3"/><stop offset=".252" stop-color="#71c6ef"/><stop offset=".351" stop-color="#50bceb"/><stop offset=".455" stop-color="#2aade3"/><stop offset=".5" stop-color="#18a6e0"/><stop offset="1" stop-color="#2f77bc"/></radialGradient><path class="aist0" d="M52.4 32v-6.9c.2-.3.3-.7.3-1.2s-.1-.9-.3-1.2V0H-.7v32h53.1z"/><path class="aist2" d="M4.7 12.5l-1-2.4-1 2.4m23.9-.9c-.2.1-.4.1-.7.1h-1.8v-1.3h1.8c.3 0 .5 0 .7.1.2.1.3.3.3.5 0 .3-.1.5-.3.6zm12.5.9l-1-2.4-1 2.4h2zm-23.4 2.6h-1.5v-4.7l-2.1 4.7h-1.3l-2.1-4.7v4.7H5.8l-.6-1.4h-3l-.6 1.4H.1L2.7 9h2.2l2.5 5.7V9.1h2.4l1.9 4.1 1.7-4.1h2.4l-.1 6zm5.9 0h-4.8v-6h4.8v1.3h-3.4v1.1h3.3v1.2h-3.3v1.2h3.4v1.2zm6.9-4.4c0 1-.6 1.5-1 1.6.3.1.6.3.7.5.2.3.2.6.2 1.1v1.2h-1.5v-.8c0-.4 0-.9-.2-1.2-.2-.2-.5-.3-1.1-.3H24V15h-1.4V9.1H26c.7 0 1.3 0 1.8.3.4.2.7.6.7 1.3zm2.3 4.4h-1.5v-6h1.5v6zm17.1 0h-2.1l-2.7-4.5v4.5h-2.9l-.6-1.4h-3l-.6 1.4h-1.7c-.7 0-1.6-.2-2.1-.7-.5-.5-.8-1.2-.8-2.3 0-.9.2-1.7.8-2.4.5-.5 1.2-.7 2.2-.7h1.4v1.3h-1.4c-.5 0-.8.1-1.1.4-.2.3-.3.8-.3 1.4 0 .6.1 1.1.4 1.4.2.2.6.3 1 .3h.6L37 9h2.2l2.5 5.7V9.1h2.2l2.5 4.2V9.1h1.5v6zM.1 16.3h2.5l.5-1.3h1.2l.6 1.3h4.9v-1l.4 1h2.5l.4-1v1h12.1v-2.2h.2c.2 0 .2 0 .2.3v1.9H32v-.5c.5.3 1.3.5 2.3.5h2.6l.6-1.3h1.2l.6 1.3h5.1V15l.8 1.3h4.1V7.9h-4v1l-.6-1h-4.1v1l-.5-1h-5.6c-.9 0-1.8.1-2.4.5v-.5h-3.8v.5c-.4-.4-1-.5-1.6-.5H12.5l-.9 2.2-1-2.2H6.1v1l-.5-1H1.9l-1.8 4v4.4zM51.6 20.8H49c-.3 0-.4 0-.6.1-.2.1-.2.2-.2.4s.1.4.3.5c.2.1.3.1.6.1h.8c.8 0 1.3.2 1.6.5.1 0 .1.1.1.1m0 2.3c-.4.5-1 .8-2 .8h-2.8v-1.3h2.8c.3 0 .5 0 .6-.1.1-.1.2-.2.2-.4s-.1-.3-.2-.4c-.1-.1-.3-.1-.5-.1-1.4 0-3.1 0-3.1-1.9 0-.9.6-1.8 2.1-1.8h2.9v-1.2h-2.7c-.8 0-1.4.2-1.8.5v-.5h-4c-.6 0-1.4.2-1.7.5v-.5h-7.1v.5c-.6-.4-1.5-.5-2-.5h-4.7v.5c-.4-.4-1.4-.5-2-.5h-5.2l-1.2 1.3-1.1-1.3h-7.8v8.5H18l1.2-1.3 1.2 1.3h4.7v-2h.5c.6 0 1.4 0 2-.3v2.3h3.9v-2.2h.2c.2 0 .3 0 .3.2v2h11.8c.8 0 1.5-.2 2-.5v.5h3.8c.8 0 1.5-.1 2.1-.4l-.1-1.7zm-5.8-2.4c.3.3.4.7.4 1.3 0 1.3-.8 1.9-2.3 1.9h-2.8v-1.3H44c.3 0 .5 0 .6-.1.1-.1.2-.2.2-.4s-.1-.3-.2-.4c-.1-.1-.3-.1-.5-.1-1.4 0-3 0-3-1.9 0-.9.6-1.8 2.1-1.8H46v1.3h-2.7c-.3 0-.4 0-.6.1-.2.1-.2.2-.2.4s.1.4.3.5c.2.1.3.1.6.1h.8c.8-.1 1.3 0 1.6.4zm-13-.4c-.2.1-.4.1-.7.1h-1.8v-1.4h1.8c.3 0 .5 0 .7.1.2.1.3.3.3.5s-.2.6-.3.7zm.8.7c.3.1.6.3.7.5.2.3.2.6.2 1.1v1.2H33v-.8c0-.4 0-.9-.2-1.2-.2-.2-.5-.3-1.1-.3h-1.5v2.2h-1.5v-6.1H32c.7 0 1.3 0 1.7.3.5.3.7.7.7 1.3.3 1.2-.4 1.7-.8 1.8zm1.9-3.2h4.8v1.3h-3.4v1.1h3.3v1.2h-3.3v1.2h3.4v1.3h-4.8v-6.1zm-9.8 2.8h-1.9v-1.5h1.9c.5 0 .9.2.9.7 0 .5-.3.8-.9.8zM22.4 25l-2.2-2.5 2.2-2.4V25zm-5.8-.7H13v-1.2h3.2v-1.2H13v-1.1h3.6l1.6 1.8-1.6 1.7zm11.6-2.8c0 1.7-1.3 2-2.5 2h-1.8v2H21l-1.8-2-1.9 2h-5.7v-6.1h5.8l1.8 2 1.8-2h4.6c1.3.1 2.6.4 2.6 2.1z"/></symbol><symbol id="card-c" viewBox="0 0 45 32" xmlns="http://www.w3.org/2000/svg"><style>.st0{fill:none;enable-background:new}.ajst1{fill:url(#ajSVGID_1_)}.ajst2{fill:#fff}</style><linearGradient id="ajSVGID_1_" gradientUnits="userSpaceOnUse" x1="-165.628" y1="-153.756" x2="-164.4" y2="-153.756" gradientTransform="matrix(0 26.9963 -.8337 0 -105.686 4470.775)"><stop offset="0" stop-color="#2a1f48"/><stop offset=".351" stop-color="#2a1f48"/><stop offset=".474" stop-color="#384581"/><stop offset=".551" stop-color="#3d64ad"/><stop offset=".593" stop-color="#3d64ab"/><stop offset=".631" stop-color="#3b64a6"/><stop offset=".67" stop-color="#39659d"/><stop offset=".707" stop-color="#376690"/><stop offset=".745" stop-color="#34677e"/><stop offset=".782" stop-color="#316768"/><stop offset=".818" stop-color="#2f664d"/><stop offset=".849" stop-color="#2b6434"/><stop offset="1" stop-color="#2b6434"/></linearGradient><path class="ajst1" d="M0-.6h45v33.2H0z"/><path class="ajst2" d="M13.8 15.3h9.6c-.1-1.9-.6-3.9-2-5.1-1.8-1.5-4.8-2.1-7.6-2.1-2.9 0-6 .6-7.8 2.2-1.5 1.4-1.9 3.6-1.9 5.6 0 2.1.6 4.6 2.3 6 1.8 1.5 4.6 1.9 7.3 1.9s5.6-.4 7.3-1.9c1.7-1.4 2.3-3.8 2.3-6h-9.7v-.6zM24.1 15.9v7.5h13.4c2-.1 3.5-1.7 3.5-3.7s-1.6-3.7-3.5-3.8H24.1zM40.8 11.8c0-1.9-1.5-3.4-3.4-3.4H24.1v6.9h13.5c1.8-.2 3.2-1.7 3.2-3.5z"/></symbol><symbol id="card-m" viewBox="0 0 52 32" xmlns="http://www.w3.org/2000/svg"><style>.st0{fill:none;enable-background:new}.akst1{fill:#f49419}.akst2{fill:#eb621d}.akst3{fill:#e41522}.akst4{fill:#f59e1f}</style><path d="M12.8 27.3c-.4 0-.8.1-1.1.6-.2-.3-.5-.6-1-.6-.3 0-.7.1-.9.5v-.4h-.7v3.1h.7v-1.7c0-.5.3-.8.8-.8.4 0 .7.3.7.8v1.7h.7v-1.7c0-.5.3-.8.8-.8s.7.3.7.8v1.7h.5v-1.9c0-.8-.5-1.3-1.2-1.3zM26.1 27.3c-.9 0-1.5.7-1.5 1.6 0 1 .7 1.6 1.6 1.6.5 0 .9-.1 1.3-.4l-.3-.5c-.3.2-.6.3-.9.3-.4 0-.8-.2-.9-.8h2.3v-.3c-.1-.8-.7-1.5-1.6-1.5zm-.8 1.4c.1-.4.3-.8.8-.8.4 0 .7.3.8.8h-1.6zM23.4 29.9c-.3 0-.4-.2-.4-.5V28h1v-.6h-1.1v-.9h-.7v.9h-.6v.6h.6v1.4c0 .7.3 1.1 1.1 1.1.3 0 .6-.1.8-.2l-.1-.5c-.2.1-.4.1-.6.1zM20.1 28.6h-.3c-.3 0-.5-.1-.5-.3 0-.2.2-.4.6-.4.4 0 .8.1 1 .3l.3-.5c-.3-.2-.8-.3-1.3-.3-.8 0-1.3.4-1.3 1 0 .5.4.8 1.1.9h.3c.4.1.5.1.5.3 0 .2-.2.4-.7.4-.5 0-.8-.1-1-.3l-.3.5c.4.3.8.4 1.3.4.9 0 1.4-.4 1.4-1s-.4-.9-1.1-1zM17.1 27.8c-.2-.3-.5-.5-1-.5-.9 0-1.5.7-1.5 1.6 0 .9.7 1.6 1.5 1.6.4 0 .8-.2 1-.5v.4h.7v-2.9h-.7v.3zm-.9 2.1c-.6 0-.9-.4-.9-1 0-.5.4-1 .9-1 .6 0 .9.4.9 1s-.3 1-.9 1zM44.2 30.4c.1-.1.1-.1 0 0v-.1H44v.3h.1v-.1l.1.1h.1l-.1-.2zm-.1-.1l.1-.1c0 .1 0 .1-.1.1zM42.3 27.8c-.2-.3-.5-.5-1-.5-.9 0-1.5.7-1.5 1.6 0 .9.7 1.6 1.5 1.6.4 0 .8-.2 1-.5v.4h.7V26.2h-.7v1.6zm-.9 2.1c-.6 0-.9-.4-.9-1 0-.5.4-1 .9-1 .6 0 .9.4.9 1 .1.6-.3 1-.9 1z"/><path d="M44.4 30.2l-.2-.2h-.1-.1s-.1 0-.1.1l-.1.1v.2s0 .1.1.1c0 0 .1 0 .1.1h.2s.1 0 .1-.1l.1-.1v-.1-.1zm0 .3c-.1 0-.1 0 0 0l-.1.1h-.1-.1s-.1 0-.1-.1l-.1-.1v-.1-.1s0-.1.1-.1l.1-.1h.2s.1 0 .1.1l.1.1c-.1.1-.1.1-.1.3 0-.1 0-.1 0 0zM32.1 28c.3 0 .6.1.8.3l.3-.5c-.3-.3-.6-.4-1.1-.4-1 0-1.7.7-1.7 1.6 0 .9.7 1.6 1.7 1.6.5 0 .8-.1 1.1-.4l-.3-.5c-.3.2-.5.3-.8.3-.5 0-.9-.4-.9-1s.4-1 .9-1zM38.3 27.8v-.4h-.7v3.1h.7v-1.7c0-.5.2-.8.7-.8.1 0 .3 0 .4.1l.2-.6c-.1-.1-.3-.1-.5-.1-.4-.1-.6.1-.8.4zM29 27.8v-.4h-.7v3.1h.7v-1.7c0-.5.2-.8.7-.8.1 0 .3 0 .4.1l.2-.6c-.1-.1-.3-.1-.5-.1-.4-.1-.7.1-.8.4zM36.1 27.8c-.2-.3-.5-.5-1-.5-.9 0-1.5.7-1.5 1.6 0 .9.7 1.6 1.5 1.6.4 0 .8-.2 1-.5v.4h.7v-2.9h-.7v.3zm-.9 2.1c-.6 0-.9-.4-.9-1 0-.5.4-1 .9-1 .6 0 .9.4.9 1s-.3 1-.9 1z"/><g transform="matrix(1.25 0 0 -1.25 1103.2 710.77)"><path class="akst1" d="M-847 552.4v.4h-.1l-.1-.2-.1.2h-.1v-.4h.1v.3l.1-.2h.1l.1.2v-.3zm-.6 0v.3h.1v.1h-.3v-.1h.1l.1-.3z"/></g><path class="akst2" d="M31.1 22.2H20.9V3.8h10.2v18.4z"/><g transform="matrix(1.25 0 0 -1.25 1064.5 698.59)"><path class="akst3" d="M-834.4 548.5c0 3 1.4 5.6 3.6 7.3-1.6 1.2-3.6 2-5.8 2-5.1 0-9.3-4.2-9.3-9.3 0-5.1 4.2-9.3 9.3-9.3 2.2 0 4.2.7 5.8 2-2.2 1.7-3.6 4.3-3.6 7.3"/></g><g transform="matrix(1.25 0 0 -1.25 1103.8 698.59)"><path class="akst4" d="M-847.2 548.5c0-5.1-4.2-9.3-9.3-9.3-2.2 0-4.2.7-5.8 2 2.2 1.7 3.6 4.4 3.6 7.3 0 3-1.4 5.6-3.6 7.3 1.6 1.2 3.6 2 5.8 2 5.2 0 9.3-4.2 9.3-9.3"/></g></symbol><symbol id="card-v" viewBox="0 0 52 32" xmlns="http://www.w3.org/2000/svg"><style>.st0{fill:none;enable-background:new}.alst1{clip-path:url(#alSVGID_2_)}.alst2{fill:url(#alpath10283_1_)}</style><g id="allayer1" transform="translate(-333.702 -536.424)"><g id="alg10267" transform="matrix(4.98469 0 0 -4.98469 -1470.119 1039.626)"><defs><path id="alSVGID_1_" d="M367.3 98.3c0-.4.4-.7.7-.8.3-.1.4-.2.4-.4s-.2-.3-.5-.3c-.4 0-.6.1-.8.2l-.1-.7c.2-.1.5-.2.9-.2.8 0 1.3.4 1.3 1 0 .8-1.1.8-1.1 1.2 0 .1.1.2.3.2.1 0 .4 0 .8-.1l.1.6c-.2.1-.4.1-.7.1-.8.2-1.3-.2-1.3-.8m3.3.9c-.1 0-.3-.1-.3-.2l-1.2-2.8h.8l.2.4h1l.1-.4h.7l-.6 3h-.7m.1-.8l.2-1.1h-.6l.4 1.1m-4.4.8l-.6-3h.8l.6 3h-.8m-1.2 0l-.8-2-.3 1.7c0 .2-.2.3-.4.3h-1.3v-.1c.3-.1.6-.2.8-.3.1-.1.1-.1.2-.3l.6-2.4h.8l1.2 3h-.8"/></defs><clipPath id="alSVGID_2_"><use xlink:href="#alSVGID_1_" overflow="visible"/></clipPath><g id="alg10269" class="alst1"><g id="alg10275" transform="translate(351.611 96.896)"><linearGradient id="alpath10283_1_" gradientUnits="userSpaceOnUse" x1="5.656" y1="-9.432" x2="5.751" y2="-9.432" gradientTransform="scale(447.2655 -447.2655) rotate(-20.218 29.298 11.074)"><stop offset="0" stop-color="#222357"/><stop offset="1" stop-color="#254aa5"/></linearGradient><path id="alpath10283" class="alst2" d="M9.7 2l9.4 3.5 2.1-5.8-9.4-3.5"/></g></g></g></g></symbol><symbol viewBox="0 -256 1792 1792" id="check" xmlns="http://www.w3.org/2000/svg"><path d="M1397.898 468.237q0-28-18-46l-91-90q-19-19-45-19t-45 19l-408 407-226-226q-19-19-45-19t-45 19l-91 90q-18 18-18 46 0 27 18 45l362 362q19 19 45 19 27 0 46-19l543-543q18-18 18-45zm252 162q0 209-103 385.5t-279.5 279.5q-176.5 103-385.5 103t-385.5-103q-176.5-103-279.5-279.5t-103-385.5q0-209 103-385.5t279.5-279.5q176.5-103 385.5-103t385.5 103q176.5 103 279.5 279.5t103 385.5z" fill="currentColor"/></symbol><symbol viewBox="0 0 1792 1792" id="circle" xmlns="http://www.w3.org/2000/svg"><path d="M1664 896q0 209-103 385.5T1281.5 1561 896 1664t-385.5-103T231 1281.5 128 896t103-385.5T510.5 231 896 128t385.5 103T1561 510.5 1664 896z"/></symbol><symbol viewBox="0 0 24 24" id="circled-1" xmlns="http://www.w3.org/2000/svg"><path d="M12 2C6.5 2 2 6.5 2 12s4.5 10 10 10 10-4.5 10-10S17.5 2 12 2zm1.3 14.6h-1.8V9.5l-2.2.7V8.7l3.8-1.4h.2v9.3z"/><path d="M2 2v20h20V2H2zm10.5 16.7c-3.9 0-7-3.1-7-7s3.1-7 7-7 7 3.1 7 7-3.2 7-7 7z"/></symbol><symbol viewBox="0 0 24 24" id="circled-2" xmlns="http://www.w3.org/2000/svg"><path d="M12 2C6.5 2 2 6.5 2 12s4.5 10 10 10 10-4.5 10-10S17.5 2 12 2zm3.3 14.6H8.9v-1.3c2.7-3 4.2-4.1 4.2-5.3 0-.4-.2-1.3-1.2-1.3-1.3 0-1.3 1.3-1.3 1.6H8.7c0-.9.7-3 3.2-3s3 1.5 3 2.6c0 1.5-1.1 2.7-3.7 5.3h4v1.4h.1z"/><path d="M2 2v20h20V2H2zm10.5 16.7c-3.9 0-7-3.1-7-7s3.1-7 7-7 7 3.1 7 7-3.2 7-7 7z"/></symbol><symbol viewBox="0 0 24 24" id="circled-3" xmlns="http://www.w3.org/2000/svg"><path d="M12 2C6.5 2 2 6.5 2 12s4.5 10 10 10 10-4.5 10-10S17.5 2 12 2zm-.1 14.7c-2.4 0-3.2-1.7-3.1-2.7h1.8c-.1.3.2 1.2 1.4 1.2 1.3 0 1.4-1.1 1.4-1.3 0-1.4-1.3-1.4-1.5-1.4h-1v-1.4h1c.5 0 1.4-.1 1.4-1.3 0-1.1-1-1.2-1.3-1.2-1 0-1.2.8-1.2 1H8.9c0-1.8 1.8-2.5 3-2.5C14.7 7.1 15 9 15 9.7c0 1.3-1.2 1.9-1.4 2 .5.2 1.5.7 1.5 2.2.1 2.2-1.8 2.8-3.2 2.8z"/><path d="M2 2v20h20V2H2zm10.5 16.7c-3.9 0-7-3.1-7-7s3.1-7 7-7 7 3.1 7 7-3.2 7-7 7z"/></symbol><symbol viewBox="0 0 24 24" id="circled-4" xmlns="http://www.w3.org/2000/svg"><path d="M12 2C6.5 2 2 6.5 2 12s4.5 10 10 10 10-4.5 10-10S17.5 2 12 2zm.2 5.3H14v5.8h1v1.5h-1v2h-1.8v-2H8.4l-.1-1.2 3.9-6.1zm-.1 2.6l-2 3.2h2V9.9z"/><path d="M2 2v20h20V2H2zm10.5 16.7c-3.9 0-7-3.1-7-7s3.1-7 7-7 7 3.1 7 7-3.2 7-7 7z"/></symbol><symbol viewBox="0 0 1792 1792" id="envelope" xmlns="http://www.w3.org/2000/svg"><path d="M1792 710v794q0 66-47 113t-113 47H160q-66 0-113-47T0 1504V710q44 49 101 87 362 246 497 345 57 42 92.5 65.5t94.5 48 110 24.5h2q51 0 110-24.5t94.5-48 92.5-65.5q170-123 498-345 57-39 100-87zm0-294q0 79-49 151t-122 123q-376 261-468 325-10 7-42.5 30.5t-54 38-52 32.5-57.5 27-50 9h-2q-23 0-50-9t-57.5-27-52-32.5-54-38T639 1015q-91-64-262-182.5T172 690q-62-42-117-115.5T0 438q0-78 41.5-130T160 256h1472q65 0 112.5 47t47.5 113z"/></symbol><symbol viewBox="0 0 1792 1792" id="facebook" xmlns="http://www.w3.org/2000/svg"><path d="M1343 63v264h-157c-57.3 0-96 12-116 36s-30 60-30 108v189h293l-39 296h-254v759H734V956H479V660h255V442c0-124 34.7-220.2 104-288.5S999.7 51 1115 51c98 0 174 4 228 12z"/></symbol><symbol viewBox="0 0 45 88" id="french-flag" xmlns="http://www.w3.org/2000/svg"><title>picto copy</title><defs><path id="aua" d="M.567 15.619L44.433.914v71.78L.567 87.398z"/></defs><g fill="none" fill-rule="evenodd"><mask id="aub" fill="#fff"><use xlink:href="#aua"/></mask><use fill="#D8D8D8" xlink:href="#aua"/><path fill="#FFF" mask="url(#aub)" d="M11-2h25v113H11z"/><path fill="#204289" mask="url(#aub)" d="M-22-42h37v168h-37z"/><path fill="#EA0028" mask="url(#aub)" d="M30-42h37v168H30z"/></g></symbol><symbol viewBox="0 0 2304 1792" id="google-plus" xmlns="http://www.w3.org/2000/svg"><path d="M1437 913q0 208-87 370.5t-248 254-369 91.5q-149 0-285-58t-234-156-156-234T0 896t58-285 156-234 234-156 285-58q286 0 491 192l-199 191Q908 433 733 433q-123 0-227.5 62T340 663.5 279 896t61 232.5T505.5 1297t227.5 62q83 0 152.5-23t114.5-57.5 78.5-78.5 49-83 21.5-74H733V791h692q12 63 12 122zm867-122v210h-209v209h-210v-209h-209V791h209V582h210v209h209z"/></symbol><symbol viewBox="0 0 20 19" id="heart-o" xmlns="http://www.w3.org/2000/svg"><title>coeur</title><path d="M10.087 17.571s9.087-6.514 9.087-11.339c0-5.569-7.435-7.33-9.087-.555C8.435-1.097 1 .663 1 6.232c0 4.825 9.087 11.34 9.087 11.34z" stroke="#AA192D" stroke-width="1.5" fill="none" fill-rule="evenodd" stroke-linejoin="round"/></symbol><symbol viewBox="0 0 1792 1792" id="heart-o-white" xmlns="http://www.w3.org/2000/svg"><path fill="#FFF" d="M1664 596q0-81-21.5-143t-55-98.5T1506 295t-94-31-98-8-112 25.5-110.5 64-86.5 72-60 61.5q-18 22-49 22t-49-22q-24-28-60-61.5t-86.5-72-110.5-64T478 256t-98 8-94 31-81.5 59.5-55 98.5T128 596q0 168 187 355l581 560 580-559q188-188 188-356zm128 0q0 221-229 450l-623 600q-18 18-44 18t-44-18l-624-602q-10-8-27.5-26T145 952.5 77 855 23.5 734 0 596q0-220 127-344t351-124q62 0 126.5 21.5t120 58T820 276t76 68q36-36 76-68t95.5-68.5 120-58T1314 128q224 0 351 124t127 344z"/></symbol><symbol id="home" viewBox="0 0 34.2 31.1" xmlns="http://www.w3.org/2000/svg"><style>.ayst1{display:none}.ayst2{font-family:'Arial-BoldMT'}.ayst3{font-size:6.1561px}</style><path class="ayst0" d="M27.5 29.6H7.1V16.2h20.4v13.4zM8.3 28.2h18V17.5h-18v10.7z"/><path class="ayst0" d="M27.5 25.6H7.1v-5.4h20.4v5.4zM8.3 24.2h18v-2.7h-18v2.7z"/><path class="ayst0" d="M17.3 2.8l13.9 7.4v18.3H3.4l.1-18.3 13.8-7.4m0-1.8L1.9 9.2 1.8 30h30.9V9.7l-.1-.5L17.3 1z"/><text transform="translate(7.75 15.362)" class="ayst1 ayst2 ayst3">DRIVE</text><path class="ayst0" d="M21.7 12H13v-1.3h8.7V12z"/></symbol><symbol viewBox="0 0 1792 1792" id="info-circle" xmlns="http://www.w3.org/2000/svg"><path d="M1152 1376v-160q0-14-9-23t-23-9h-96V672q0-14-9-23t-23-9H672q-14 0-23 9t-9 23v160q0 14 9 23t23 9h96v320h-96q-14 0-23 9t-9 23v160q0 14 9 23t23 9h448q14 0 23-9t9-23zm-128-896V320q0-14-9-23t-23-9H800q-14 0-23 9t-9 23v160q0 14 9 23t23 9h192q14 0 23-9t9-23zm640 416q0 209-103 385.5T1281.5 1561 896 1664t-385.5-103T231 1281.5 128 896t103-385.5T510.5 231 896 128t385.5 103T1561 510.5 1664 896z"/></symbol><symbol viewBox="0 0 1792 1792" id="instagram" xmlns="http://www.w3.org/2000/svg"><path d="M1152 896q0-106-75-181t-181-75-181 75-75 181 75 181 181 75 181-75 75-181zm138 0q0 164-115 279t-279 115-279-115-115-279 115-279 279-115 279 115 115 279zm108-410q0 38-27 65t-65 27-65-27-27-65 27-65 65-27 65 27 27 65zM896 266q-7 0-76.5-.5t-105.5 0-96.5 3-103 10T443 297q-50 20-88 58t-58 88q-11 29-18.5 71.5t-10 103-3 96.5 0 105.5.5 76.5-.5 76.5 0 105.5 3 96.5 10 103T297 1349q20 50 58 88t88 58q29 11 71.5 18.5t103 10 96.5 3 105.5 0 76.5-.5 76.5.5 105.5 0 96.5-3 103-10 71.5-18.5q50-20 88-58t58-88q11-29 18.5-71.5t10-103 3-96.5 0-105.5-.5-76.5.5-76.5 0-105.5-3-96.5-10-103T1495 443q-20-50-58-88t-88-58q-29-11-71.5-18.5t-103-10-96.5-3-105.5 0-76.5.5zm768 630q0 229-5 317-10 208-124 322t-322 124q-88 5-317 5t-317-5q-208-10-322-124t-124-322q-5-88-5-317t5-317q10-208 124-322t322-124q88-5 317-5t317 5q208 10 322 124t124 322q5 88 5 317z"/></symbol><symbol viewBox="0 0 43 46" id="lock" xmlns="http://www.w3.org/2000/svg"><path d="M30.8 18.4v-6.5l-.1-.1c0-4.3-2.5-9-7.7-9-6.4 0-9 4.7-9.1 9v6.6H7.4v24.8h30V18.4h-6.6zM16.5 12v-.1c0-3.7 2.5-6.5 6.1-6.5s5.6 3 5.6 6.5v6.5H16.5V12zm18.2 9v19.6H9.9V21h24.8z"/><path d="M25.6 36.7h-6.1l1.2-5.6c-.7-.5-1-1.3-1-2.2 0-1.6 1.3-2.9 2.9-2.9 1.6 0 2.9 1.3 2.9 2.9 0 .8-.4 1.7-1 2.2l1.1 5.6zM21 35.5h3.1l-1-5 .4-.3c.5-.3.8-.9.8-1.4 0-.9-.8-1.7-1.7-1.7-.9 0-1.7.8-1.7 1.7 0 .5.3 1.2.8 1.4l.4.3-1.1 5z"/></symbol><symbol viewBox="0 0 15 20" id="map-marker" xmlns="http://www.w3.org/2000/svg"><title>pin</title><g stroke-width="1.5" stroke="#AA192D" fill="none" fill-rule="evenodd" stroke-linecap="round" stroke-linejoin="round"><path d="M13.794 7.228c0 3.65-6.588 11.565-6.588 11.565S.618 10.877.618 7.228C.618 3.578 3.567.62 7.206.62c3.64 0 6.588 2.959 6.588 6.608z"/><path d="M9.677 7.228a2.475 2.475 0 0 1-2.471 2.478 2.473 2.473 0 0 1-2.47-2.478 2.474 2.474 0 0 1 2.47-2.478 2.476 2.476 0 0 1 2.471 2.478z"/></g></symbol><symbol viewBox="0 0 1792 1792" id="navicon" xmlns="http://www.w3.org/2000/svg"><path fill="#AB192E" d="M1664 1344v128q0 26-19 45t-45 19H192q-26 0-45-19t-19-45v-128q0-26 19-45t45-19h1408q26 0 45 19t19 45zm0-512v128q0 26-19 45t-45 19H192q-26 0-45-19t-19-45V832q0-26 19-45t45-19h1408q26 0 45 19t19 45zm0-512v128q0 26-19 45t-45 19H192q-26 0-45-19t-19-45V320q0-26 19-45t45-19h1408q26 0 45 19t19 45z"/></symbol><symbol id="phone" viewBox="0 0 61.8 55.5" xmlns="http://www.w3.org/2000/svg"><style>.best0{fill:none;stroke:#000;stroke-width:2;stroke-linecap:round;stroke-linejoin:round;stroke-miterlimit:10}</style><path class="best0" d="M24.4 17.4c2-2 2-5.3 0-7.4l-5.6-5.6c-2-2-5.3-2-7.4 0L8.6 7.6c-2.7 2.7-2.9 6.7-.9 9.8C16.4 30.6 28 42.2 41.2 50.8c3.1 2 7.1 1.6 9.8-.9l2.9-2.9c2-2 2-5.3 0-7.4L48.3 34c-2-2-5.3-2-7.4 0l-1.8 1.8c-6-4.9-11.8-10.7-16.7-16.7l2-1.7z"/></symbol><symbol viewBox="0 0 1792 1792" id="pinterest" xmlns="http://www.w3.org/2000/svg"><path d="M1664 896q0 209-103 385.5T1281.5 1561 896 1664q-111 0-218-32 59-93 78-164 9-34 54-211 20 39 73 67.5t114 28.5q121 0 216-68.5t147-188.5 52-270q0-114-59.5-214T1180 449t-255-63q-105 0-196 29t-154.5 77-109 110.5-67 129.5T377 866q0 104 40 183t117 111q30 12 38-20 2-7 8-31t8-30q6-23-11-43-51-61-51-151 0-151 104.5-259.5T904 517q151 0 235.5 82t84.5 213q0 170-68.5 289T980 1220q-61 0-98-43.5T859 1072q8-35 26.5-93.5t30-103T927 800q0-50-27-83t-77-33q-62 0-105 57t-43 142q0 73 25 122l-99 418q-17 70-13 177-206-91-333-281T128 896q0-209 103-385.5T510.5 231 896 128t385.5 103T1561 510.5 1664 896z"/></symbol><symbol viewBox="0 0 1792 1792" id="plus-circle" xmlns="http://www.w3.org/2000/svg"><path d="M1344 960V832q0-26-19-45t-45-19h-256V512q0-26-19-45t-45-19H832q-26 0-45 19t-19 45v256H512q-26 0-45 19t-19 45v128q0 26 19 45t45 19h256v256q0 26 19 45t45 19h128q26 0 45-19t19-45v-256h256q26 0 45-19t19-45zm320-64q0 209-103 385.5T1281.5 1561 896 1664t-385.5-103T231 1281.5 128 896t103-385.5T510.5 231 896 128t385.5 103T1561 510.5 1664 896z"/></symbol><symbol viewBox="0 0 1792 1792" id="question" xmlns="http://www.w3.org/2000/svg"><path d="M1088 1256v240q0 16-12 28t-28 12H808q-16 0-28-12t-12-28v-240q0-16 12-28t28-12h240q16 0 28 12t12 28zm316-600q0 54-15.5 101t-35 76.5-55 59.5-57.5 43.5-61 35.5q-41 23-68.5 65t-27.5 67q0 17-12 32.5t-28 15.5H804q-15 0-25.5-18.5T768 1096v-45q0-83 65-156.5T976 786q59-27 84-56t25-76q0-42-46.5-74T931 548q-65 0-108 29-35 25-107 115-13 16-31 16-12 0-25-8L496 575q-13-10-15.5-25t5.5-28q160-266 464-266 80 0 161 31t146 83 106 127.5 41 158.5z"/></symbol><symbol viewBox="0 0 1792 1792" id="question-circle" xmlns="http://www.w3.org/2000/svg"><path d="M1024 1376v-192q0-14-9-23t-23-9H800q-14 0-23 9t-9 23v192q0 14 9 23t23 9h192q14 0 23-9t9-23zm256-672q0-88-55.5-163T1086 425t-170-41q-243 0-371 213-15 24 8 42l132 100q7 6 19 6 16 0 25-12 53-68 86-92 34-24 86-24 48 0 85.5 26t37.5 59q0 38-20 61t-68 45q-63 28-115.5 86.5T768 1020v36q0 14 9 23t23 9h192q14 0 23-9t9-23q0-19 21.5-49.5T1100 957q32-18 49-28.5t46-35 44.5-48 28-60.5 12.5-81zm384 192q0 209-103 385.5T1281.5 1561 896 1664t-385.5-103T231 1281.5 128 896t103-385.5T510.5 231 896 128t385.5 103T1561 510.5 1664 896z"/></symbol><symbol fill="#868e96" viewBox="0 0 1792 1792" id="refresh" xmlns="http://www.w3.org/2000/svg"><path d="M1639 1056q0 5-1 7-64 268-268 434.5T892 1664q-146 0-282.5-55T366 1452l-129 129q-19 19-45 19t-45-19-19-45v-448q0-26 19-45t45-19h448q26 0 45 19t19 45-19 45l-137 137q71 66 161 102t187 36q134 0 250-65t186-179q11-17 53-117 8-23 30-23h192q13 0 22.5 9.5t9.5 22.5zm25-800v448q0 26-19 45t-45 19h-448q-26 0-45-19t-19-45 19-45l138-138q-148-137-349-137-134 0-250 65T460 628q-11 17-53 117-8 23-30 23H178q-13 0-22.5-9.5T146 736v-7q65-268 270-434.5T896 128q146 0 284 55.5T1425 340l130-129q19-19 45-19t45 19 19 45z"/></symbol><symbol viewBox="0 0 19 16" id="search" xmlns="http://www.w3.org/2000/svg"><title>loupe</title><path d="M6.06 2.026c2.857-.62 5.683 1.25 6.297 4.165.615 2.917-1.21 5.794-4.069 6.413-2.857.619-5.683-1.248-6.298-4.165-.615-2.917 1.211-5.793 4.07-6.412m12.51 12.215l-5.059-3.49a7.41 7.41 0 0 0 .676-4.957C13.355 1.851 9.533-.678 5.665.16 1.8 1-.67 4.89.161 8.837c.832 3.944 4.654 6.473 8.521 5.634a7.046 7.046 0 0 0 3.745-2.165l5.097 3.515a.917.917 0 0 0 .72.144.928.928 0 0 0 .58-.398.968.968 0 0 0-.254-1.325" fill="#AA192D" fill-rule="evenodd"/></symbol><symbol fill="#868e96" viewBox="0 0 1792 1792" id="share-alt" xmlns="http://www.w3.org/2000/svg"><path d="M1344 1024q133 0 226.5 93.5T1664 1344t-93.5 226.5T1344 1664t-226.5-93.5T1024 1344q0-12 2-34l-360-180q-92 86-218 86-133 0-226.5-93.5T128 896t93.5-226.5T448 576q126 0 218 86l360-180q-2-22-2-34 0-133 93.5-226.5T1344 128t226.5 93.5T1664 448t-93.5 226.5T1344 768q-126 0-218-86L766 862q2 22 2 34t-2 34l360 180q92-86 218-86z"/></symbol><symbol viewBox="0 0 25 21" id="shopping-cart" xmlns="http://www.w3.org/2000/svg"><title>stock</title><g transform="translate(1 .87)" fill="none" fill-rule="evenodd"><path d="M16.874.87L8.571 3.75l2.84 8.423 8.303-2.881L16.874.87zm-6.843 3.607l6.127-2.127 2.096 6.217-6.127 2.126-2.096-6.216z" fill="#AA192D"/><path d="M8.026 13.572L4.216 2.273S2.627.344.214.265" stroke="#AA192D" stroke-width="1.5" stroke-linecap="round"/><path d="M22.967 11.599l-11.515 3.995" stroke="#AA192D" stroke-width="1.5" stroke-linecap="round" stroke-linejoin="round"/><path d="M11.327 16.157c0 1.402-1.12 2.539-2.503 2.539s-2.503-1.137-2.503-2.54c0-1.402 1.12-2.539 2.503-2.539s2.503 1.137 2.503 2.54z" stroke="#AA192D" stroke-width="1.5"/><path d="M13.714 5.217l-.857-2.608" stroke="#AA192D" stroke-width="2"/></g></symbol><symbol viewBox="0 0 43.4 30" id="truck" xmlns="http://www.w3.org/2000/svg"><path d="M34 28.3c-2 0-3.6-1.6-3.6-3.6s1.6-3.6 3.6-3.6 3.6 1.6 3.6 3.6-1.6 3.6-3.6 3.6zm0-5.4c-1 0-1.8.8-1.8 1.8s.8 1.8 1.8 1.8 1.8-.8 1.8-1.8-.8-1.8-1.8-1.8zM9.5 28.3c-2 0-3.6-1.6-3.6-3.6s1.6-3.6 3.6-3.6 3.6 1.6 3.6 3.6-1.6 3.6-3.6 3.6zm0-5.4c-1 0-1.8.8-1.8 1.8s.8 1.8 1.8 1.8 1.8-.8 1.8-1.8-.8-1.8-1.8-1.8z"/><path d="M40.1 24.2h-3.4c-.5 0-.9-.4-.9-.9s.4-.9.9-.9h2.5v-6.2l-2.5-2.5-.1-.1-3.1-4.4h-4.3c-.5 0-1.3-.3-1.3-.8v-5H4.3l-.1 19.1h2.5c.5 0 .9.4.9.9s-.4.9-.9.9H3.3c-.5 0-1.1-.3-1.1-1.4V2.3c0-.5.5-1 1-1h25.6c.5 0 1.2.8 1.2 1.3v4.9h4c.3 0 .6.1.7.4l3.4 4.7 2.7 2.7c.2.2.3.4.3.6v7.5c-.1.4-.5.8-1 .8z"/><path d="M31.1 24.9H12c-.5 0-.9-.4-.9-.9s-.1-1.2.4-1.2H31c.5 0 1 .7 1 1.2s-.4.9-.9.9zM34.7 14.7c-.3 0-.5-.1-.7-.4L32.2 12H32c-.5 0-.9-.4-.9-.9s.4-.9.9-.9h.7c.3 0 .5.1.7.4l2 2.7c.3.4.2.9-.2 1.2-.2.1-.4.2-.5.2zM29 20.1c-1 0-1.2-.9-1.2-1.4V8.5c0-.5.4-1 1-1 .5 0 1 .4 1 .9v10.9c.1.4-.3.8-.8.8z"/><path d="M40.1 20.7H3.3c-.5 0-.9-.4-.9-.9s.4-.9.9-.9h36.8c.5 0 .9.4.9.9s-.4.9-.9.9z"/></symbol><symbol viewBox="0 0 43.4 30" fill="#868e96" id="truck-grey" xmlns="http://www.w3.org/2000/svg"><path d="M34 28.3c-2 0-3.6-1.6-3.6-3.6s1.6-3.6 3.6-3.6 3.6 1.6 3.6 3.6-1.6 3.6-3.6 3.6zm0-5.4c-1 0-1.8.8-1.8 1.8s.8 1.8 1.8 1.8 1.8-.8 1.8-1.8-.8-1.8-1.8-1.8zM9.5 28.3c-2 0-3.6-1.6-3.6-3.6s1.6-3.6 3.6-3.6 3.6 1.6 3.6 3.6-1.6 3.6-3.6 3.6zm0-5.4c-1 0-1.8.8-1.8 1.8s.8 1.8 1.8 1.8 1.8-.8 1.8-1.8-.8-1.8-1.8-1.8z"/><path d="M40.1 24.2h-3.4c-.5 0-.9-.4-.9-.9s.4-.9.9-.9h2.5v-6.2l-2.5-2.5-.1-.1-3.1-4.4h-4.3c-.5 0-1.3-.3-1.3-.8v-5H4.3l-.1 19.1h2.5c.5 0 .9.4.9.9s-.4.9-.9.9H3.3c-.5 0-1.1-.3-1.1-1.4V2.3c0-.5.5-1 1-1h25.6c.5 0 1.2.8 1.2 1.3v4.9h4c.3 0 .6.1.7.4l3.4 4.7 2.7 2.7c.2.2.3.4.3.6v7.5c-.1.4-.5.8-1 .8z"/><path d="M31.1 24.9H12c-.5 0-.9-.4-.9-.9s-.1-1.2.4-1.2H31c.5 0 1 .7 1 1.2s-.4.9-.9.9zM34.7 14.7c-.3 0-.5-.1-.7-.4L32.2 12H32c-.5 0-.9-.4-.9-.9s.4-.9.9-.9h.7c.3 0 .5.1.7.4l2 2.7c.3.4.2.9-.2 1.2-.2.1-.4.2-.5.2zM29 20.1c-1 0-1.2-.9-1.2-1.4V8.5c0-.5.4-1 1-1 .5 0 1 .4 1 .9v10.9c.1.4-.3.8-.8.8z"/><path d="M40.1 20.7H3.3c-.5 0-.9-.4-.9-.9s.4-.9.9-.9h36.8c.5 0 .9.4.9.9s-.4.9-.9.9z"/></symbol><symbol viewBox="0 0 1792 1792" id="twitter" xmlns="http://www.w3.org/2000/svg"><path d="M1684 408q-67 98-162 167 1 14 1 42 0 130-38 259.5T1369.5 1125 1185 1335.5t-258 146-323 54.5q-271 0-496-145 35 4 78 4 225 0 401-138-105-2-188-64.5T285 1033q33 5 61 5 43 0 85-11-112-23-185.5-111.5T172 710v-4q68 38 146 41-66-44-105-115t-39-154q0-88 44-163 121 149 294.5 238.5T884 653q-8-38-8-74 0-134 94.5-228.5T1199 256q140 0 236 102 109-21 205-78-37 115-142 178 93-10 186-50z"/></symbol><symbol viewBox="0 0 15 20" id="user-o" xmlns="http://www.w3.org/2000/svg"><title>profil</title><g stroke-width="1.5" stroke="#AA192D" fill="none" fill-rule="evenodd" stroke-linecap="round" stroke-linejoin="round"><path d="M11.607 5.034a4.408 4.408 0 0 1-4.402 4.414 4.405 4.405 0 0 1-4.4-4.414A4.405 4.405 0 0 1 7.205.62a4.409 4.409 0 0 1 4.402 4.414zM13.966 18.724c0-3.699-2.992-6.694-6.676-6.694-3.687 0-6.672 2.995-6.672 6.694h13.348z"/></g></symbol><symbol viewBox="0 0 1792 1792" id="youtube" xmlns="http://www.w3.org/2000/svg"><path d="M1099 1244v211q0 67-39 67-23 0-45-22v-301q22-22 45-22 39 0 39 67zm338 1v46h-90v-46q0-68 45-68t45 68zm-966-218h107v-94H266v94h105v569h100v-569zm288 569h89v-494h-89v378q-30 42-57 42-18 0-21-21-1-3-1-35v-364h-89v391q0 49 8 73 12 37 58 37 48 0 102-61v54zm429-148v-197q0-73-9-99-17-56-71-56-50 0-93 54V933h-89v663h89v-48q45 55 93 55 54 0 71-55 9-27 9-100zm338-10v-13h-91q0 51-2 61-7 36-40 36-46 0-46-69v-87h179v-103q0-79-27-116-39-51-106-51-68 0-107 51-28 37-28 116v173q0 79 29 116 39 51 108 51 72 0 108-53 18-27 21-54 2-9 2-58zM918 525V315q0-69-43-69t-43 69v210q0 70 43 70t43-70zm719 751q0 234-26 350-14 59-58 99t-102 46q-184 21-555 21t-555-21q-58-6-102.5-46t-57.5-99q-26-112-26-350 0-234 26-350 14-59 58-99t103-47q183-20 554-20t555 20q58 7 102.5 47t57.5 99q26 112 26 350zM639 0h102L620 399v271H520V399q-14-74-61-212Q422 84 394 0h106l71 263zm370 333v175q0 81-28 118-38 51-106 51-67 0-105-51-28-38-28-118V333q0-80 28-117 38-51 105-51 68 0 106 51 28 37 28 117zm335-162v499h-91v-55q-53 62-103 62-46 0-59-37-8-24-8-75V171h91v367q0 33 1 35 3 22 21 22 27 0 57-43V171h91z"/></symbol></svg>