<svg width="0" height="0" style="position:absolute"><symbol viewBox="0 0 12 14" id="arrow-circle-left" xmlns="http://www.w3.org/2000/svg"><path fill="#AB192E" d="M10 7.5v-1q0-.203-.148-.352T9.5 6H5.578l1.477-1.477q.148-.148.148-.352t-.148-.352l-.711-.711q-.141-.141-.352-.141t-.352.141L2.101 6.647q-.141.141-.141.352t.141.352L5.64 10.89q.141.141.352.141t.352-.141l.711-.711q.141-.141.141-.352t-.141-.352L5.578 7.998H9.5q.203 0 .352-.148T10 7.498zm2-.5q0 1.633-.805 3.012t-2.184 2.184-3.012.805-3.012-.805-2.184-2.184T-.002 7t.805-3.012 2.184-2.184T5.999.999t3.012.805 2.184 2.184T12 7z"/></symbol><symbol viewBox="0 0 12 14" id="arrow-circle-right" xmlns="http://www.w3.org/2000/svg"><path fill="#AB192E" d="M10.039 7q0-.211-.141-.352L6.359 3.109q-.141-.141-.352-.141t-.352.141l-.711.711q-.141.141-.141.352t.141.352l1.477 1.477H2.499q-.203 0-.352.148t-.148.352v1q0 .203.148.352t.352.148h3.922L4.944 9.478q-.148.148-.148.352t.148.352l.711.711q.141.141.352.141t.352-.141l3.539-3.539q.141-.141.141-.352zM12 7q0 1.633-.805 3.012t-2.184 2.184-3.012.805-3.012-.805-2.184-2.184T-.002 7t.805-3.012 2.184-2.184T5.999.999t3.012.805 2.184 2.184T12 7z"/></symbol><symbol viewBox="0 0 26.5 26.5" id="arrow-left" xmlns="http://www.w3.org/2000/svg"><defs><style>.accls-1{filter:url(#acfilter)}.accls-2,.accls-3{fill:none;stroke:#cd0018;stroke-width:1.5px}.accls-3{fill-rule:evenodd}</style><filter id="acfilter" filterUnits="userSpaceOnUse"><feFlood result="flood" flood-color="#666"/><feComposite result="composite" operator="in" in2="SourceGraphic"/><feBlend result="blend" in2="SourceGraphic"/></filter></defs><g id="acNAV" class="accls-1"><circle class="accls-2" cx="13.25" cy="13.25" r="12.5"/><path class="accls-3" d="M91.864 1162L87 1157l4.859-5" transform="translate(-77.25 -1143.25)"/></g></symbol><symbol viewBox="0 0 26.5 26.5" id="arrow-right" xmlns="http://www.w3.org/2000/svg"><defs><style>.adcls-1{filter:url(#adfilter)}.adcls-2,.adcls-3{fill:none;stroke:#cd0018;stroke-width:1.5px}.adcls-3{fill-rule:evenodd}</style><filter id="adfilter" filterUnits="userSpaceOnUse"><feFlood result="flood" flood-color="#666"/><feComposite result="composite" operator="in" in2="SourceGraphic"/><feBlend result="blend" in2="SourceGraphic"/></filter></defs><g id="adNAV_copie" data-name="NAV copie" class="adcls-1"><circle class="adcls-2" cx="13.25" cy="13.25" r="12.5"/><path class="adcls-3" d="M786.136 1151l4.859 5-4.859 5" transform="translate(-774.25 -1143.25)"/></g></symbol><symbol id="cadeau" viewBox="0 0 24 23.5" xmlns="http://www.w3.org/2000/svg"><style>.aest0,.aest1{fill:none;stroke:#212121;stroke-linejoin:round;stroke-miterlimit:10}.aest1{stroke-linecap:round}</style><path class="aest0" d="M1.2 6.8h19.1V21H1.2z"/><path class="aest1" d="M16.1 4.4c-.9.9-5.2 1.9-5.2 1.9s1-4.3 1.9-5.2c.9-.9 2.3-.9 3.2 0 1 1 1 2.4.1 3.3z"/><path class="aest1" d="M5.8 4.4c.9.9 5.2 1.9 5.2 1.9S9.9 2.1 9 1.2c-.9-.9-2.3-.9-3.2 0-.9.9-.9 2.3 0 3.2z"/><path class="aest0" d="M21 13.7H2M10.8 5.9v14.6"/></symbol><symbol id="card-a" viewBox="0 0 52 32" xmlns="http://www.w3.org/2000/svg"><style>.afst0{fill:url(#afSVGID_1_)}.st1{fill:none;enable-background:new}.afst2{fill:#fff}</style><radialGradient id="afSVGID_1_" cx="8.676" cy="26.411" r="49.105" gradientUnits="userSpaceOnUse"><stop offset="0" stop-color="#9ed4f5"/><stop offset=".071" stop-color="#99d3f4"/><stop offset=".158" stop-color="#8bcff3"/><stop offset=".252" stop-color="#71c6ef"/><stop offset=".351" stop-color="#50bceb"/><stop offset=".455" stop-color="#2aade3"/><stop offset=".5" stop-color="#18a6e0"/><stop offset="1" stop-color="#2f77bc"/></radialGradient><path class="afst0" d="M52.4 32v-6.9c.2-.3.3-.7.3-1.2s-.1-.9-.3-1.2V0H-.7v32h53.1z"/><path class="afst2" d="M4.7 12.5l-1-2.4-1 2.4m23.9-.9c-.2.1-.4.1-.7.1h-1.8v-1.3h1.8c.3 0 .5 0 .7.1.2.1.3.3.3.5 0 .3-.1.5-.3.6zm12.5.9l-1-2.4-1 2.4h2zm-23.4 2.6h-1.5v-4.7l-2.1 4.7h-1.3l-2.1-4.7v4.7H5.8l-.6-1.4h-3l-.6 1.4H.1L2.7 9h2.2l2.5 5.7V9.1h2.4l1.9 4.1 1.7-4.1h2.4l-.1 6zm5.9 0h-4.8v-6h4.8v1.3h-3.4v1.1h3.3v1.2h-3.3v1.2h3.4v1.2zm6.9-4.4c0 1-.6 1.5-1 1.6.3.1.6.3.7.5.2.3.2.6.2 1.1v1.2h-1.5v-.8c0-.4 0-.9-.2-1.2-.2-.2-.5-.3-1.1-.3H24V15h-1.4V9.1H26c.7 0 1.3 0 1.8.3.4.2.7.6.7 1.3zm2.3 4.4h-1.5v-6h1.5v6zm17.1 0h-2.1l-2.7-4.5v4.5h-2.9l-.6-1.4h-3l-.6 1.4h-1.7c-.7 0-1.6-.2-2.1-.7-.5-.5-.8-1.2-.8-2.3 0-.9.2-1.7.8-2.4.5-.5 1.2-.7 2.2-.7h1.4v1.3h-1.4c-.5 0-.8.1-1.1.4-.2.3-.3.8-.3 1.4 0 .6.1 1.1.4 1.4.2.2.6.3 1 .3h.6L37 9h2.2l2.5 5.7V9.1h2.2l2.5 4.2V9.1h1.5v6zM.1 16.3h2.5l.5-1.3h1.2l.6 1.3h4.9v-1l.4 1h2.5l.4-1v1h12.1v-2.2h.2c.2 0 .2 0 .2.3v1.9H32v-.5c.5.3 1.3.5 2.3.5h2.6l.6-1.3h1.2l.6 1.3h5.1V15l.8 1.3h4.1V7.9h-4v1l-.6-1h-4.1v1l-.5-1h-5.6c-.9 0-1.8.1-2.4.5v-.5h-3.8v.5c-.4-.4-1-.5-1.6-.5H12.5l-.9 2.2-1-2.2H6.1v1l-.5-1H1.9l-1.8 4v4.4zM51.6 20.8H49c-.3 0-.4 0-.6.1-.2.1-.2.2-.2.4s.1.4.3.5c.2.1.3.1.6.1h.8c.8 0 1.3.2 1.6.5.1 0 .1.1.1.1m0 2.3c-.4.5-1 .8-2 .8h-2.8v-1.3h2.8c.3 0 .5 0 .6-.1.1-.1.2-.2.2-.4s-.1-.3-.2-.4c-.1-.1-.3-.1-.5-.1-1.4 0-3.1 0-3.1-1.9 0-.9.6-1.8 2.1-1.8h2.9v-1.2h-2.7c-.8 0-1.4.2-1.8.5v-.5h-4c-.6 0-1.4.2-1.7.5v-.5h-7.1v.5c-.6-.4-1.5-.5-2-.5h-4.7v.5c-.4-.4-1.4-.5-2-.5h-5.2l-1.2 1.3-1.1-1.3h-7.8v8.5H18l1.2-1.3 1.2 1.3h4.7v-2h.5c.6 0 1.4 0 2-.3v2.3h3.9v-2.2h.2c.2 0 .3 0 .3.2v2h11.8c.8 0 1.5-.2 2-.5v.5h3.8c.8 0 1.5-.1 2.1-.4l-.1-1.7zm-5.8-2.4c.3.3.4.7.4 1.3 0 1.3-.8 1.9-2.3 1.9h-2.8v-1.3H44c.3 0 .5 0 .6-.1.1-.1.2-.2.2-.4s-.1-.3-.2-.4c-.1-.1-.3-.1-.5-.1-1.4 0-3 0-3-1.9 0-.9.6-1.8 2.1-1.8H46v1.3h-2.7c-.3 0-.4 0-.6.1-.2.1-.2.2-.2.4s.1.4.3.5c.2.1.3.1.6.1h.8c.8-.1 1.3 0 1.6.4zm-13-.4c-.2.1-.4.1-.7.1h-1.8v-1.4h1.8c.3 0 .5 0 .7.1.2.1.3.3.3.5s-.2.6-.3.7zm.8.7c.3.1.6.3.7.5.2.3.2.6.2 1.1v1.2H33v-.8c0-.4 0-.9-.2-1.2-.2-.2-.5-.3-1.1-.3h-1.5v2.2h-1.5v-6.1H32c.7 0 1.3 0 1.7.3.5.3.7.7.7 1.3.3 1.2-.4 1.7-.8 1.8zm1.9-3.2h4.8v1.3h-3.4v1.1h3.3v1.2h-3.3v1.2h3.4v1.3h-4.8v-6.1zm-9.8 2.8h-1.9v-1.5h1.9c.5 0 .9.2.9.7 0 .5-.3.8-.9.8zM22.4 25l-2.2-2.5 2.2-2.4V25zm-5.8-.7H13v-1.2h3.2v-1.2H13v-1.1h3.6l1.6 1.8-1.6 1.7zm11.6-2.8c0 1.7-1.3 2-2.5 2h-1.8v2H21l-1.8-2-1.9 2h-5.7v-6.1h5.8l1.8 2 1.8-2h4.6c1.3.1 2.6.4 2.6 2.1z"/></symbol><symbol id="card-c" viewBox="0 0 45 32" xmlns="http://www.w3.org/2000/svg"><style>.st0{fill:none;enable-background:new}.agst1{fill:url(#agSVGID_1_)}.agst2{fill:#fff}</style><linearGradient id="agSVGID_1_" gradientUnits="userSpaceOnUse" x1="-165.628" y1="-153.756" x2="-164.4" y2="-153.756" gradientTransform="matrix(0 26.9963 -.8337 0 -105.686 4470.775)"><stop offset="0" stop-color="#2a1f48"/><stop offset=".351" stop-color="#2a1f48"/><stop offset=".474" stop-color="#384581"/><stop offset=".551" stop-color="#3d64ad"/><stop offset=".593" stop-color="#3d64ab"/><stop offset=".631" stop-color="#3b64a6"/><stop offset=".67" stop-color="#39659d"/><stop offset=".707" stop-color="#376690"/><stop offset=".745" stop-color="#34677e"/><stop offset=".782" stop-color="#316768"/><stop offset=".818" stop-color="#2f664d"/><stop offset=".849" stop-color="#2b6434"/><stop offset="1" stop-color="#2b6434"/></linearGradient><path class="agst1" d="M0-.6h45v33.2H0z"/><path class="agst2" d="M13.8 15.3h9.6c-.1-1.9-.6-3.9-2-5.1-1.8-1.5-4.8-2.1-7.6-2.1-2.9 0-6 .6-7.8 2.2-1.5 1.4-1.9 3.6-1.9 5.6 0 2.1.6 4.6 2.3 6 1.8 1.5 4.6 1.9 7.3 1.9s5.6-.4 7.3-1.9c1.7-1.4 2.3-3.8 2.3-6h-9.7v-.6zM24.1 15.9v7.5h13.4c2-.1 3.5-1.7 3.5-3.7s-1.6-3.7-3.5-3.8H24.1zM40.8 11.8c0-1.9-1.5-3.4-3.4-3.4H24.1v6.9h13.5c1.8-.2 3.2-1.7 3.2-3.5z"/></symbol><symbol id="card-m" viewBox="0 0 52 32" xmlns="http://www.w3.org/2000/svg"><style>.st0{fill:none;enable-background:new}.ahst1{fill:#f49419}.ahst2{fill:#eb621d}.ahst3{fill:#e41522}.ahst4{fill:#f59e1f}</style><path d="M12.8 27.3c-.4 0-.8.1-1.1.6-.2-.3-.5-.6-1-.6-.3 0-.7.1-.9.5v-.4h-.7v3.1h.7v-1.7c0-.5.3-.8.8-.8.4 0 .7.3.7.8v1.7h.7v-1.7c0-.5.3-.8.8-.8s.7.3.7.8v1.7h.5v-1.9c0-.8-.5-1.3-1.2-1.3zM26.1 27.3c-.9 0-1.5.7-1.5 1.6 0 1 .7 1.6 1.6 1.6.5 0 .9-.1 1.3-.4l-.3-.5c-.3.2-.6.3-.9.3-.4 0-.8-.2-.9-.8h2.3v-.3c-.1-.8-.7-1.5-1.6-1.5zm-.8 1.4c.1-.4.3-.8.8-.8.4 0 .7.3.8.8h-1.6zM23.4 29.9c-.3 0-.4-.2-.4-.5V28h1v-.6h-1.1v-.9h-.7v.9h-.6v.6h.6v1.4c0 .7.3 1.1 1.1 1.1.3 0 .6-.1.8-.2l-.1-.5c-.2.1-.4.1-.6.1zM20.1 28.6h-.3c-.3 0-.5-.1-.5-.3 0-.2.2-.4.6-.4.4 0 .8.1 1 .3l.3-.5c-.3-.2-.8-.3-1.3-.3-.8 0-1.3.4-1.3 1 0 .5.4.8 1.1.9h.3c.4.1.5.1.5.3 0 .2-.2.4-.7.4-.5 0-.8-.1-1-.3l-.3.5c.4.3.8.4 1.3.4.9 0 1.4-.4 1.4-1s-.4-.9-1.1-1zM17.1 27.8c-.2-.3-.5-.5-1-.5-.9 0-1.5.7-1.5 1.6 0 .9.7 1.6 1.5 1.6.4 0 .8-.2 1-.5v.4h.7v-2.9h-.7v.3zm-.9 2.1c-.6 0-.9-.4-.9-1 0-.5.4-1 .9-1 .6 0 .9.4.9 1s-.3 1-.9 1zM44.2 30.4c.1-.1.1-.1 0 0v-.1H44v.3h.1v-.1l.1.1h.1l-.1-.2zm-.1-.1l.1-.1c0 .1 0 .1-.1.1zM42.3 27.8c-.2-.3-.5-.5-1-.5-.9 0-1.5.7-1.5 1.6 0 .9.7 1.6 1.5 1.6.4 0 .8-.2 1-.5v.4h.7V26.2h-.7v1.6zm-.9 2.1c-.6 0-.9-.4-.9-1 0-.5.4-1 .9-1 .6 0 .9.4.9 1 .1.6-.3 1-.9 1z"/><path d="M44.4 30.2l-.2-.2h-.1-.1s-.1 0-.1.1l-.1.1v.2s0 .1.1.1c0 0 .1 0 .1.1h.2s.1 0 .1-.1l.1-.1v-.1-.1zm0 .3c-.1 0-.1 0 0 0l-.1.1h-.1-.1s-.1 0-.1-.1l-.1-.1v-.1-.1s0-.1.1-.1l.1-.1h.2s.1 0 .1.1l.1.1c-.1.1-.1.1-.1.3 0-.1 0-.1 0 0zM32.1 28c.3 0 .6.1.8.3l.3-.5c-.3-.3-.6-.4-1.1-.4-1 0-1.7.7-1.7 1.6 0 .9.7 1.6 1.7 1.6.5 0 .8-.1 1.1-.4l-.3-.5c-.3.2-.5.3-.8.3-.5 0-.9-.4-.9-1s.4-1 .9-1zM38.3 27.8v-.4h-.7v3.1h.7v-1.7c0-.5.2-.8.7-.8.1 0 .3 0 .4.1l.2-.6c-.1-.1-.3-.1-.5-.1-.4-.1-.6.1-.8.4zM29 27.8v-.4h-.7v3.1h.7v-1.7c0-.5.2-.8.7-.8.1 0 .3 0 .4.1l.2-.6c-.1-.1-.3-.1-.5-.1-.4-.1-.7.1-.8.4zM36.1 27.8c-.2-.3-.5-.5-1-.5-.9 0-1.5.7-1.5 1.6 0 .9.7 1.6 1.5 1.6.4 0 .8-.2 1-.5v.4h.7v-2.9h-.7v.3zm-.9 2.1c-.6 0-.9-.4-.9-1 0-.5.4-1 .9-1 .6 0 .9.4.9 1s-.3 1-.9 1z"/><g transform="matrix(1.25 0 0 -1.25 1103.2 710.77)"><path class="ahst1" d="M-847 552.4v.4h-.1l-.1-.2-.1.2h-.1v-.4h.1v.3l.1-.2h.1l.1.2v-.3zm-.6 0v.3h.1v.1h-.3v-.1h.1l.1-.3z"/></g><path class="ahst2" d="M31.1 22.2H20.9V3.8h10.2v18.4z"/><g transform="matrix(1.25 0 0 -1.25 1064.5 698.59)"><path class="ahst3" d="M-834.4 548.5c0 3 1.4 5.6 3.6 7.3-1.6 1.2-3.6 2-5.8 2-5.1 0-9.3-4.2-9.3-9.3 0-5.1 4.2-9.3 9.3-9.3 2.2 0 4.2.7 5.8 2-2.2 1.7-3.6 4.3-3.6 7.3"/></g><g transform="matrix(1.25 0 0 -1.25 1103.8 698.59)"><path class="ahst4" d="M-847.2 548.5c0-5.1-4.2-9.3-9.3-9.3-2.2 0-4.2.7-5.8 2 2.2 1.7 3.6 4.4 3.6 7.3 0 3-1.4 5.6-3.6 7.3 1.6 1.2 3.6 2 5.8 2 5.2 0 9.3-4.2 9.3-9.3"/></g></symbol><symbol id="card-v" viewBox="0 0 52 32" xmlns="http://www.w3.org/2000/svg"><style>.st0{fill:none;enable-background:new}.aist1{clip-path:url(#aiSVGID_2_)}.aist2{fill:url(#aipath10283_1_)}</style><g id="ailayer1" transform="translate(-333.702 -536.424)"><g id="aig10267" transform="matrix(4.98469 0 0 -4.98469 -1470.119 1039.626)"><defs><path id="aiSVGID_1_" d="M367.3 98.3c0-.4.4-.7.7-.8.3-.1.4-.2.4-.4s-.2-.3-.5-.3c-.4 0-.6.1-.8.2l-.1-.7c.2-.1.5-.2.9-.2.8 0 1.3.4 1.3 1 0 .8-1.1.8-1.1 1.2 0 .1.1.2.3.2.1 0 .4 0 .8-.1l.1.6c-.2.1-.4.1-.7.1-.8.2-1.3-.2-1.3-.8m3.3.9c-.1 0-.3-.1-.3-.2l-1.2-2.8h.8l.2.4h1l.1-.4h.7l-.6 3h-.7m.1-.8l.2-1.1h-.6l.4 1.1m-4.4.8l-.6-3h.8l.6 3h-.8m-1.2 0l-.8-2-.3 1.7c0 .2-.2.3-.4.3h-1.3v-.1c.3-.1.6-.2.8-.3.1-.1.1-.1.2-.3l.6-2.4h.8l1.2 3h-.8"/></defs><clipPath id="aiSVGID_2_"><use xlink:href="#aiSVGID_1_" overflow="visible"/></clipPath><g id="aig10269" class="aist1"><g id="aig10275" transform="translate(351.611 96.896)"><linearGradient id="aipath10283_1_" gradientUnits="userSpaceOnUse" x1="5.656" y1="-9.432" x2="5.751" y2="-9.432" gradientTransform="scale(447.2655 -447.2655) rotate(-20.218 29.298 11.074)"><stop offset="0" stop-color="#222357"/><stop offset="1" stop-color="#254aa5"/></linearGradient><path id="aipath10283" class="aist2" d="M9.7 2l9.4 3.5 2.1-5.8-9.4-3.5"/></g></g></g></g></symbol><symbol viewBox="0 -256 1792 1792" id="check" xmlns="http://www.w3.org/2000/svg"><path d="M1397.898 468.237q0-28-18-46l-91-90q-19-19-45-19t-45 19l-408 407-226-226q-19-19-45-19t-45 19l-91 90q-18 18-18 46 0 27 18 45l362 362q19 19 45 19 27 0 46-19l543-543q18-18 18-45zm252 162q0 209-103 385.5t-279.5 279.5q-176.5 103-385.5 103t-385.5-103q-176.5-103-279.5-279.5t-103-385.5q0-209 103-385.5t279.5-279.5q176.5-103 385.5-103t385.5 103q176.5 103 279.5 279.5t103 385.5z" fill="currentColor"/></symbol><symbol viewBox="0 0 1792 1792" id="circle" xmlns="http://www.w3.org/2000/svg"><path d="M1664 896q0 209-103 385.5T1281.5 1561 896 1664t-385.5-103T231 1281.5 128 896t103-385.5T510.5 231 896 128t385.5 103T1561 510.5 1664 896z"/></symbol><symbol viewBox="0 0 24 24" id="circled-1" xmlns="http://www.w3.org/2000/svg"><path d="M12 2C6.5 2 2 6.5 2 12s4.5 10 10 10 10-4.5 10-10S17.5 2 12 2zm1.3 14.6h-1.8V9.5l-2.2.7V8.7l3.8-1.4h.2v9.3z"/><path d="M2 2v20h20V2H2zm10.5 16.7c-3.9 0-7-3.1-7-7s3.1-7 7-7 7 3.1 7 7-3.2 7-7 7z"/></symbol><symbol viewBox="0 0 24 24" id="circled-2" xmlns="http://www.w3.org/2000/svg"><path d="M12 2C6.5 2 2 6.5 2 12s4.5 10 10 10 10-4.5 10-10S17.5 2 12 2zm3.3 14.6H8.9v-1.3c2.7-3 4.2-4.1 4.2-5.3 0-.4-.2-1.3-1.2-1.3-1.3 0-1.3 1.3-1.3 1.6H8.7c0-.9.7-3 3.2-3s3 1.5 3 2.6c0 1.5-1.1 2.7-3.7 5.3h4v1.4h.1z"/><path d="M2 2v20h20V2H2zm10.5 16.7c-3.9 0-7-3.1-7-7s3.1-7 7-7 7 3.1 7 7-3.2 7-7 7z"/></symbol><symbol viewBox="0 0 24 24" id="circled-3" xmlns="http://www.w3.org/2000/svg"><path d="M12 2C6.5 2 2 6.5 2 12s4.5 10 10 10 10-4.5 10-10S17.5 2 12 2zm-.1 14.7c-2.4 0-3.2-1.7-3.1-2.7h1.8c-.1.3.2 1.2 1.4 1.2 1.3 0 1.4-1.1 1.4-1.3 0-1.4-1.3-1.4-1.5-1.4h-1v-1.4h1c.5 0 1.4-.1 1.4-1.3 0-1.1-1-1.2-1.3-1.2-1 0-1.2.8-1.2 1H8.9c0-1.8 1.8-2.5 3-2.5C14.7 7.1 15 9 15 9.7c0 1.3-1.2 1.9-1.4 2 .5.2 1.5.7 1.5 2.2.1 2.2-1.8 2.8-3.2 2.8z"/><path d="M2 2v20h20V2H2zm10.5 16.7c-3.9 0-7-3.1-7-7s3.1-7 7-7 7 3.1 7 7-3.2 7-7 7z"/></symbol><symbol viewBox="0 0 24 24" id="circled-4" xmlns="http://www.w3.org/2000/svg"><path d="M12 2C6.5 2 2 6.5 2 12s4.5 10 10 10 10-4.5 10-10S17.5 2 12 2zm.2 5.3H14v5.8h1v1.5h-1v2h-1.8v-2H8.4l-.1-1.2 3.9-6.1zm-.1 2.6l-2 3.2h2V9.9z"/><path d="M2 2v20h20V2H2zm10.5 16.7c-3.9 0-7-3.1-7-7s3.1-7 7-7 7 3.1 7 7-3.2 7-7 7z"/></symbol><symbol viewBox="0 0 1792 1792" id="envelope" xmlns="http://www.w3.org/2000/svg"><path d="M1792 710v794q0 66-47 113t-113 47H160q-66 0-113-47T0 1504V710q44 49 101 87 362 246 497 345 57 42 92.5 65.5t94.5 48 110 24.5h2q51 0 110-24.5t94.5-48 92.5-65.5q170-123 498-345 57-39 100-87zm0-294q0 79-49 151t-122 123q-376 261-468 325-10 7-42.5 30.5t-54 38-52 32.5-57.5 27-50 9h-2q-23 0-50-9t-57.5-27-52-32.5-54-38T639 1015q-91-64-262-182.5T172 690q-62-42-117-115.5T0 438q0-78 41.5-130T160 256h1472q65 0 112.5 47t47.5 113z"/></symbol><symbol viewBox="0 0 1792 1792" id="facebook" xmlns="http://www.w3.org/2000/svg"><path d="M1343 63v264h-157c-57.3 0-96 12-116 36s-30 60-30 108v189h293l-39 296h-254v759H734V956H479V660h255V442c0-124 34.7-220.2 104-288.5S999.7 51 1115 51c98 0 174 4 228 12z"/></symbol><symbol viewBox="0 0 2304 1792" id="google-plus" xmlns="http://www.w3.org/2000/svg"><path d="M1437 913q0 208-87 370.5t-248 254-369 91.5q-149 0-285-58t-234-156-156-234T0 896t58-285 156-234 234-156 285-58q286 0 491 192l-199 191Q908 433 733 433q-123 0-227.5 62T340 663.5 279 896t61 232.5T505.5 1297t227.5 62q83 0 152.5-23t114.5-57.5 78.5-78.5 49-83 21.5-74H733V791h692q12 63 12 122zm867-122v210h-209v209h-210v-209h-209V791h209V582h210v209h209z"/></symbol><symbol viewBox="0 0 1792 1792" id="heart-o" xmlns="http://www.w3.org/2000/svg"><path fill="#AB192E" d="M1664 596q0-81-21.5-143t-55-98.5T1506 295t-94-31-98-8-112 25.5-110.5 64-86.5 72-60 61.5q-18 22-49 22t-49-22q-24-28-60-61.5t-86.5-72-110.5-64T478 256t-98 8-94 31-81.5 59.5-55 98.5T128 596q0 168 187 355l581 560 580-559q188-188 188-356zm128 0q0 221-229 450l-623 600q-18 18-44 18t-44-18l-624-602q-10-8-27.5-26T145 952.5 77 855 23.5 734 0 596q0-220 127-344t351-124q62 0 126.5 21.5t120 58T820 276t76 68q36-36 76-68t95.5-68.5 120-58T1314 128q224 0 351 124t127 344z"/></symbol><symbol viewBox="0 0 1792 1792" id="heart-o-white" xmlns="http://www.w3.org/2000/svg"><path fill="#FFF" d="M1664 596q0-81-21.5-143t-55-98.5T1506 295t-94-31-98-8-112 25.5-110.5 64-86.5 72-60 61.5q-18 22-49 22t-49-22q-24-28-60-61.5t-86.5-72-110.5-64T478 256t-98 8-94 31-81.5 59.5-55 98.5T128 596q0 168 187 355l581 560 580-559q188-188 188-356zm128 0q0 221-229 450l-623 600q-18 18-44 18t-44-18l-624-602q-10-8-27.5-26T145 952.5 77 855 23.5 734 0 596q0-220 127-344t351-124q62 0 126.5 21.5t120 58T820 276t76 68q36-36 76-68t95.5-68.5 120-58T1314 128q224 0 351 124t127 344z"/></symbol><symbol id="home" viewBox="0 0 34.2 31.1" xmlns="http://www.w3.org/2000/svg"><style>.aust1{display:none}.aust2{font-family:'Arial-BoldMT'}.aust3{font-size:6.1561px}</style><path class="aust0" d="M27.5 29.6H7.1V16.2h20.4v13.4zM8.3 28.2h18V17.5h-18v10.7z"/><path class="aust0" d="M27.5 25.6H7.1v-5.4h20.4v5.4zM8.3 24.2h18v-2.7h-18v2.7z"/><path class="aust0" d="M17.3 2.8l13.9 7.4v18.3H3.4l.1-18.3 13.8-7.4m0-1.8L1.9 9.2 1.8 30h30.9V9.7l-.1-.5L17.3 1z"/><text transform="translate(7.75 15.362)" class="aust1 aust2 aust3">DRIVE</text><path class="aust0" d="M21.7 12H13v-1.3h8.7V12z"/></symbol><symbol viewBox="0 0 1792 1792" id="info-circle" xmlns="http://www.w3.org/2000/svg"><path d="M1152 1376v-160q0-14-9-23t-23-9h-96V672q0-14-9-23t-23-9H672q-14 0-23 9t-9 23v160q0 14 9 23t23 9h96v320h-96q-14 0-23 9t-9 23v160q0 14 9 23t23 9h448q14 0 23-9t9-23zm-128-896V320q0-14-9-23t-23-9H800q-14 0-23 9t-9 23v160q0 14 9 23t23 9h192q14 0 23-9t9-23zm640 416q0 209-103 385.5T1281.5 1561 896 1664t-385.5-103T231 1281.5 128 896t103-385.5T510.5 231 896 128t385.5 103T1561 510.5 1664 896z"/></symbol><symbol viewBox="0 0 1792 1792" id="instagram" xmlns="http://www.w3.org/2000/svg"><path d="M1152 896q0-106-75-181t-181-75-181 75-75 181 75 181 181 75 181-75 75-181zm138 0q0 164-115 279t-279 115-279-115-115-279 115-279 279-115 279 115 115 279zm108-410q0 38-27 65t-65 27-65-27-27-65 27-65 65-27 65 27 27 65zM896 266q-7 0-76.5-.5t-105.5 0-96.5 3-103 10T443 297q-50 20-88 58t-58 88q-11 29-18.5 71.5t-10 103-3 96.5 0 105.5.5 76.5-.5 76.5 0 105.5 3 96.5 10 103T297 1349q20 50 58 88t88 58q29 11 71.5 18.5t103 10 96.5 3 105.5 0 76.5-.5 76.5.5 105.5 0 96.5-3 103-10 71.5-18.5q50-20 88-58t58-88q11-29 18.5-71.5t10-103 3-96.5 0-105.5-.5-76.5.5-76.5 0-105.5-3-96.5-10-103T1495 443q-20-50-58-88t-88-58q-29-11-71.5-18.5t-103-10-96.5-3-105.5 0-76.5.5zm768 630q0 229-5 317-10 208-124 322t-322 124q-88 5-317 5t-317-5q-208-10-322-124t-124-322q-5-88-5-317t5-317q10-208 124-322t322-124q88-5 317-5t317 5q208 10 322 124t124 322q5 88 5 317z"/></symbol><symbol viewBox="0 0 43 46" id="lock" xmlns="http://www.w3.org/2000/svg"><path d="M30.8 18.4v-6.5l-.1-.1c0-4.3-2.5-9-7.7-9-6.4 0-9 4.7-9.1 9v6.6H7.4v24.8h30V18.4h-6.6zM16.5 12v-.1c0-3.7 2.5-6.5 6.1-6.5s5.6 3 5.6 6.5v6.5H16.5V12zm18.2 9v19.6H9.9V21h24.8z"/><path d="M25.6 36.7h-6.1l1.2-5.6c-.7-.5-1-1.3-1-2.2 0-1.6 1.3-2.9 2.9-2.9 1.6 0 2.9 1.3 2.9 2.9 0 .8-.4 1.7-1 2.2l1.1 5.6zM21 35.5h3.1l-1-5 .4-.3c.5-.3.8-.9.8-1.4 0-.9-.8-1.7-1.7-1.7-.9 0-1.7.8-1.7 1.7 0 .5.3 1.2.8 1.4l.4.3-1.1 5z"/></symbol><symbol viewBox="0 0 1792 1792" id="map-marker" xmlns="http://www.w3.org/2000/svg"><path fill="#AB192E" d="M1152 640q0-106-75-181t-181-75-181 75-75 181 75 181 181 75 181-75 75-181zm256 0q0 109-33 179l-364 774q-16 33-47.5 52t-67.5 19-67.5-19-46.5-52L417 819q-33-70-33-179 0-212 150-362t362-150 362 150 150 362z"/></symbol><symbol viewBox="0 0 1792 1792" id="navicon" xmlns="http://www.w3.org/2000/svg"><path fill="#AB192E" d="M1664 1344v128q0 26-19 45t-45 19H192q-26 0-45-19t-19-45v-128q0-26 19-45t45-19h1408q26 0 45 19t19 45zm0-512v128q0 26-19 45t-45 19H192q-26 0-45-19t-19-45V832q0-26 19-45t45-19h1408q26 0 45 19t19 45zm0-512v128q0 26-19 45t-45 19H192q-26 0-45-19t-19-45V320q0-26 19-45t45-19h1408q26 0 45 19t19 45z"/></symbol><symbol id="phone" viewBox="0 0 61.8 55.5" xmlns="http://www.w3.org/2000/svg"><style>.bast0{fill:none;stroke:#000;stroke-width:2;stroke-linecap:round;stroke-linejoin:round;stroke-miterlimit:10}</style><path class="bast0" d="M24.4 17.4c2-2 2-5.3 0-7.4l-5.6-5.6c-2-2-5.3-2-7.4 0L8.6 7.6c-2.7 2.7-2.9 6.7-.9 9.8C16.4 30.6 28 42.2 41.2 50.8c3.1 2 7.1 1.6 9.8-.9l2.9-2.9c2-2 2-5.3 0-7.4L48.3 34c-2-2-5.3-2-7.4 0l-1.8 1.8c-6-4.9-11.8-10.7-16.7-16.7l2-1.7z"/></symbol><symbol viewBox="0 0 1792 1792" id="pinterest" xmlns="http://www.w3.org/2000/svg"><path d="M1664 896q0 209-103 385.5T1281.5 1561 896 1664q-111 0-218-32 59-93 78-164 9-34 54-211 20 39 73 67.5t114 28.5q121 0 216-68.5t147-188.5 52-270q0-114-59.5-214T1180 449t-255-63q-105 0-196 29t-154.5 77-109 110.5-67 129.5T377 866q0 104 40 183t117 111q30 12 38-20 2-7 8-31t8-30q6-23-11-43-51-61-51-151 0-151 104.5-259.5T904 517q151 0 235.5 82t84.5 213q0 170-68.5 289T980 1220q-61 0-98-43.5T859 1072q8-35 26.5-93.5t30-103T927 800q0-50-27-83t-77-33q-62 0-105 57t-43 142q0 73 25 122l-99 418q-17 70-13 177-206-91-333-281T128 896q0-209 103-385.5T510.5 231 896 128t385.5 103T1561 510.5 1664 896z"/></symbol><symbol viewBox="0 0 1792 1792" id="plus-circle" xmlns="http://www.w3.org/2000/svg"><path d="M1344 960V832q0-26-19-45t-45-19h-256V512q0-26-19-45t-45-19H832q-26 0-45 19t-19 45v256H512q-26 0-45 19t-19 45v128q0 26 19 45t45 19h256v256q0 26 19 45t45 19h128q26 0 45-19t19-45v-256h256q26 0 45-19t19-45zm320-64q0 209-103 385.5T1281.5 1561 896 1664t-385.5-103T231 1281.5 128 896t103-385.5T510.5 231 896 128t385.5 103T1561 510.5 1664 896z"/></symbol><symbol viewBox="0 0 1792 1792" id="question" xmlns="http://www.w3.org/2000/svg"><path d="M1088 1256v240q0 16-12 28t-28 12H808q-16 0-28-12t-12-28v-240q0-16 12-28t28-12h240q16 0 28 12t12 28zm316-600q0 54-15.5 101t-35 76.5-55 59.5-57.5 43.5-61 35.5q-41 23-68.5 65t-27.5 67q0 17-12 32.5t-28 15.5H804q-15 0-25.5-18.5T768 1096v-45q0-83 65-156.5T976 786q59-27 84-56t25-76q0-42-46.5-74T931 548q-65 0-108 29-35 25-107 115-13 16-31 16-12 0-25-8L496 575q-13-10-15.5-25t5.5-28q160-266 464-266 80 0 161 31t146 83 106 127.5 41 158.5z"/></symbol><symbol viewBox="0 0 1792 1792" id="question-circle" xmlns="http://www.w3.org/2000/svg"><path d="M1024 1376v-192q0-14-9-23t-23-9H800q-14 0-23 9t-9 23v192q0 14 9 23t23 9h192q14 0 23-9t9-23zm256-672q0-88-55.5-163T1086 425t-170-41q-243 0-371 213-15 24 8 42l132 100q7 6 19 6 16 0 25-12 53-68 86-92 34-24 86-24 48 0 85.5 26t37.5 59q0 38-20 61t-68 45q-63 28-115.5 86.5T768 1020v36q0 14 9 23t23 9h192q14 0 23-9t9-23q0-19 21.5-49.5T1100 957q32-18 49-28.5t46-35 44.5-48 28-60.5 12.5-81zm384 192q0 209-103 385.5T1281.5 1561 896 1664t-385.5-103T231 1281.5 128 896t103-385.5T510.5 231 896 128t385.5 103T1561 510.5 1664 896z"/></symbol><symbol fill="#868e96" viewBox="0 0 1792 1792" id="refresh" xmlns="http://www.w3.org/2000/svg"><path d="M1639 1056q0 5-1 7-64 268-268 434.5T892 1664q-146 0-282.5-55T366 1452l-129 129q-19 19-45 19t-45-19-19-45v-448q0-26 19-45t45-19h448q26 0 45 19t19 45-19 45l-137 137q71 66 161 102t187 36q134 0 250-65t186-179q11-17 53-117 8-23 30-23h192q13 0 22.5 9.5t9.5 22.5zm25-800v448q0 26-19 45t-45 19h-448q-26 0-45-19t-19-45 19-45l138-138q-148-137-349-137-134 0-250 65T460 628q-11 17-53 117-8 23-30 23H178q-13 0-22.5-9.5T146 736v-7q65-268 270-434.5T896 128q146 0 284 55.5T1425 340l130-129q19-19 45-19t45 19 19 45z"/></symbol><symbol viewBox="0 0 1792 1792" id="search" xmlns="http://www.w3.org/2000/svg"><path fill="#AB192E" d="M1216 832q0-185-131.5-316.5T768 384 451.5 515.5 320 832t131.5 316.5T768 1280t316.5-131.5T1216 832zm512 832q0 52-38 90t-90 38q-54 0-90-38l-343-342q-179 124-399 124-143 0-273.5-55.5t-225-150-150-225T64 832t55.5-273.5 150-225 225-150T768 128t273.5 55.5 225 150 150 225T1472 832q0 220-124 399l343 343q37 37 37 90z"/></symbol><symbol fill="#868e96" viewBox="0 0 1792 1792" id="share-alt" xmlns="http://www.w3.org/2000/svg"><path d="M1344 1024q133 0 226.5 93.5T1664 1344t-93.5 226.5T1344 1664t-226.5-93.5T1024 1344q0-12 2-34l-360-180q-92 86-218 86-133 0-226.5-93.5T128 896t93.5-226.5T448 576q126 0 218 86l360-180q-2-22-2-34 0-133 93.5-226.5T1344 128t226.5 93.5T1664 448t-93.5 226.5T1344 768q-126 0-218-86L766 862q2 22 2 34t-2 34l360 180q92-86 218-86z"/></symbol><symbol viewBox="0 0 1792 1792" id="shopping-cart" xmlns="http://www.w3.org/2000/svg"><path fill="#AB192E" d="M704 1536q0 52-38 90t-90 38-90-38-38-90 38-90 90-38 90 38 38 90zm896 0q0 52-38 90t-90 38-90-38-38-90 38-90 90-38 90 38 38 90zm128-1088v512q0 24-16.5 42.5T1671 1024L627 1146q13 60 13 70 0 16-24 64h920q26 0 45 19t19 45-19 45-45 19H512q-26 0-45-19t-19-45q0-11 8-31.5t16-36 21.5-40T509 1207L332 384H128q-26 0-45-19t-19-45 19-45 45-19h256q16 0 28.5 6.5T432 278t13 24.5 8 26 5.5 29.5 4.5 26h1201q26 0 45 19t19 45z"/></symbol><symbol viewBox="0 0 43.4 30" id="truck" xmlns="http://www.w3.org/2000/svg"><path d="M34 28.3c-2 0-3.6-1.6-3.6-3.6s1.6-3.6 3.6-3.6 3.6 1.6 3.6 3.6-1.6 3.6-3.6 3.6zm0-5.4c-1 0-1.8.8-1.8 1.8s.8 1.8 1.8 1.8 1.8-.8 1.8-1.8-.8-1.8-1.8-1.8zM9.5 28.3c-2 0-3.6-1.6-3.6-3.6s1.6-3.6 3.6-3.6 3.6 1.6 3.6 3.6-1.6 3.6-3.6 3.6zm0-5.4c-1 0-1.8.8-1.8 1.8s.8 1.8 1.8 1.8 1.8-.8 1.8-1.8-.8-1.8-1.8-1.8z"/><path d="M40.1 24.2h-3.4c-.5 0-.9-.4-.9-.9s.4-.9.9-.9h2.5v-6.2l-2.5-2.5-.1-.1-3.1-4.4h-4.3c-.5 0-1.3-.3-1.3-.8v-5H4.3l-.1 19.1h2.5c.5 0 .9.4.9.9s-.4.9-.9.9H3.3c-.5 0-1.1-.3-1.1-1.4V2.3c0-.5.5-1 1-1h25.6c.5 0 1.2.8 1.2 1.3v4.9h4c.3 0 .6.1.7.4l3.4 4.7 2.7 2.7c.2.2.3.4.3.6v7.5c-.1.4-.5.8-1 .8z"/><path d="M31.1 24.9H12c-.5 0-.9-.4-.9-.9s-.1-1.2.4-1.2H31c.5 0 1 .7 1 1.2s-.4.9-.9.9zM34.7 14.7c-.3 0-.5-.1-.7-.4L32.2 12H32c-.5 0-.9-.4-.9-.9s.4-.9.9-.9h.7c.3 0 .5.1.7.4l2 2.7c.3.4.2.9-.2 1.2-.2.1-.4.2-.5.2zM29 20.1c-1 0-1.2-.9-1.2-1.4V8.5c0-.5.4-1 1-1 .5 0 1 .4 1 .9v10.9c.1.4-.3.8-.8.8z"/><path d="M40.1 20.7H3.3c-.5 0-.9-.4-.9-.9s.4-.9.9-.9h36.8c.5 0 .9.4.9.9s-.4.9-.9.9z"/></symbol><symbol viewBox="0 0 43.4 30" fill="#868e96" id="truck-grey" xmlns="http://www.w3.org/2000/svg"><path d="M34 28.3c-2 0-3.6-1.6-3.6-3.6s1.6-3.6 3.6-3.6 3.6 1.6 3.6 3.6-1.6 3.6-3.6 3.6zm0-5.4c-1 0-1.8.8-1.8 1.8s.8 1.8 1.8 1.8 1.8-.8 1.8-1.8-.8-1.8-1.8-1.8zM9.5 28.3c-2 0-3.6-1.6-3.6-3.6s1.6-3.6 3.6-3.6 3.6 1.6 3.6 3.6-1.6 3.6-3.6 3.6zm0-5.4c-1 0-1.8.8-1.8 1.8s.8 1.8 1.8 1.8 1.8-.8 1.8-1.8-.8-1.8-1.8-1.8z"/><path d="M40.1 24.2h-3.4c-.5 0-.9-.4-.9-.9s.4-.9.9-.9h2.5v-6.2l-2.5-2.5-.1-.1-3.1-4.4h-4.3c-.5 0-1.3-.3-1.3-.8v-5H4.3l-.1 19.1h2.5c.5 0 .9.4.9.9s-.4.9-.9.9H3.3c-.5 0-1.1-.3-1.1-1.4V2.3c0-.5.5-1 1-1h25.6c.5 0 1.2.8 1.2 1.3v4.9h4c.3 0 .6.1.7.4l3.4 4.7 2.7 2.7c.2.2.3.4.3.6v7.5c-.1.4-.5.8-1 .8z"/><path d="M31.1 24.9H12c-.5 0-.9-.4-.9-.9s-.1-1.2.4-1.2H31c.5 0 1 .7 1 1.2s-.4.9-.9.9zM34.7 14.7c-.3 0-.5-.1-.7-.4L32.2 12H32c-.5 0-.9-.4-.9-.9s.4-.9.9-.9h.7c.3 0 .5.1.7.4l2 2.7c.3.4.2.9-.2 1.2-.2.1-.4.2-.5.2zM29 20.1c-1 0-1.2-.9-1.2-1.4V8.5c0-.5.4-1 1-1 .5 0 1 .4 1 .9v10.9c.1.4-.3.8-.8.8z"/><path d="M40.1 20.7H3.3c-.5 0-.9-.4-.9-.9s.4-.9.9-.9h36.8c.5 0 .9.4.9.9s-.4.9-.9.9z"/></symbol><symbol viewBox="0 0 1792 1792" id="twitter" xmlns="http://www.w3.org/2000/svg"><path d="M1684 408q-67 98-162 167 1 14 1 42 0 130-38 259.5T1369.5 1125 1185 1335.5t-258 146-323 54.5q-271 0-496-145 35 4 78 4 225 0 401-138-105-2-188-64.5T285 1033q33 5 61 5 43 0 85-11-112-23-185.5-111.5T172 710v-4q68 38 146 41-66-44-105-115t-39-154q0-88 44-163 121 149 294.5 238.5T884 653q-8-38-8-74 0-134 94.5-228.5T1199 256q140 0 236 102 109-21 205-78-37 115-142 178 93-10 186-50z"/></symbol><symbol viewBox="0 0 1792 1792" id="user-o" xmlns="http://www.w3.org/2000/svg"><path fill="#AB192E" d="M1329 784q47 14 89.5 38t89 73 79.5 115.5 55 172 22 236.5q0 154-100 263.5T1323 1792H469q-141 0-241-109.5T128 1419q0-131 22-236.5t55-172T284.5 895t89-73 89.5-38q-79-125-79-272 0-104 40.5-198.5T534 150 697.5 40.5 896 0t198.5 40.5T1258 150t109.5 163.5T1408 512q0 147-79 272zM896 128q-159 0-271.5 112.5T512 512t112.5 271.5T896 896t271.5-112.5T1280 512t-112.5-271.5T896 128zm427 1536q88 0 150.5-71.5T1536 1419q0-239-78.5-377T1232 897q-145 127-336 127T560 897q-147 7-225.5 145T256 1419q0 102 62.5 173.5T469 1664h854z"/></symbol><symbol viewBox="0 0 1792 1792" id="youtube" xmlns="http://www.w3.org/2000/svg"><path d="M1099 1244v211q0 67-39 67-23 0-45-22v-301q22-22 45-22 39 0 39 67zm338 1v46h-90v-46q0-68 45-68t45 68zm-966-218h107v-94H266v94h105v569h100v-569zm288 569h89v-494h-89v378q-30 42-57 42-18 0-21-21-1-3-1-35v-364h-89v391q0 49 8 73 12 37 58 37 48 0 102-61v54zm429-148v-197q0-73-9-99-17-56-71-56-50 0-93 54V933h-89v663h89v-48q45 55 93 55 54 0 71-55 9-27 9-100zm338-10v-13h-91q0 51-2 61-7 36-40 36-46 0-46-69v-87h179v-103q0-79-27-116-39-51-106-51-68 0-107 51-28 37-28 116v173q0 79 29 116 39 51 108 51 72 0 108-53 18-27 21-54 2-9 2-58zM918 525V315q0-69-43-69t-43 69v210q0 70 43 70t43-70zm719 751q0 234-26 350-14 59-58 99t-102 46q-184 21-555 21t-555-21q-58-6-102.5-46t-57.5-99q-26-112-26-350 0-234 26-350 14-59 58-99t103-47q183-20 554-20t555 20q58 7 102.5 47t57.5 99q26 112 26 350zM639 0h102L620 399v271H520V399q-14-74-61-212Q422 84 394 0h106l71 263zm370 333v175q0 81-28 118-38 51-106 51-67 0-105-51-28-38-28-118V333q0-80 28-117 38-51 105-51 68 0 106 51 28 37 28 117zm335-162v499h-91v-55q-53 62-103 62-46 0-59-37-8-24-8-75V171h91v367q0 33 1 35 3 22 21 22 27 0 57-43V171h91z"/></symbol></svg>