<?xml version="1.0" encoding="utf-8"?>
<!-- Generator: Adobe Illustrator 21.1.0, SVG Export Plug-In . SVG Version: 6.00 Build 0)  -->
<svg version="1.1" id="Calque_1" xmlns="http://www.w3.org/2000/svg" xmlns:xlink="http://www.w3.org/1999/xlink" x="0px" y="0px"
	 viewBox="0 0 52 32" style="enable-background:new 0 0 52 32;" xml:space="preserve">
<style type="text/css">
	.st0{fill:url(#SVGID_1_);}
	.st1{fill:none;enable-background:new    ;}
	.st2{fill:#FFFFFF;}
</style>
<radialGradient id="SVGID_1_" cx="8.6761" cy="26.4109" r="49.1047" gradientUnits="userSpaceOnUse">
	<stop  offset="0" style="stop-color:#9ED4F5"/>
	<stop  offset="7.110000e-02" style="stop-color:#99D3F4"/>
	<stop  offset="0.1575" style="stop-color:#8BCFF3"/>
	<stop  offset="0.2516" style="stop-color:#71C6EF"/>
	<stop  offset="0.3514" style="stop-color:#50BCEB"/>
	<stop  offset="0.4546" style="stop-color:#2AADE3"/>
	<stop  offset="0.5" style="stop-color:#18A6E0"/>
	<stop  offset="1" style="stop-color:#2F77BC"/>
</radialGradient>
<path class="st0" d="M52.4,32v-6.9c0.2-0.3,0.3-0.7,0.3-1.2c0-0.5-0.1-0.9-0.3-1.2V0H-0.7v32H52.4z"/>
<path class="st1" d="M0,0"/>
<path class="st2" d="M4.7,12.5l-1-2.4l-1,2.4 M26.6,11.6c-0.2,0.1-0.4,0.1-0.7,0.1h-1.8v-1.3h1.8c0.3,0,0.5,0,0.7,0.1
	c0.2,0.1,0.3,0.3,0.3,0.5C26.9,11.3,26.8,11.5,26.6,11.6z M39.1,12.5l-1-2.4l-1,2.4H39.1z M15.7,15.1h-1.5l0-4.7l-2.1,4.7h-1.3
	l-2.1-4.7v4.7H5.8l-0.6-1.4h-3l-0.6,1.4H0.1l2.6-6.1h2.2l2.5,5.7V9.1h2.4l1.9,4.1l1.7-4.1h2.4L15.7,15.1L15.7,15.1z M21.6,15.1h-4.8
	V9.1h4.8v1.3h-3.4v1.1h3.3v1.2h-3.3v1.2h3.4V15.1z M28.5,10.7c0,1-0.6,1.5-1,1.6c0.3,0.1,0.6,0.3,0.7,0.5c0.2,0.3,0.2,0.6,0.2,1.1
	v1.2h-1.5l0-0.8c0-0.4,0-0.9-0.2-1.2c-0.2-0.2-0.5-0.3-1.1-0.3h-1.6v2.2h-1.4V9.1H26c0.7,0,1.3,0,1.8,0.3
	C28.2,9.6,28.5,10,28.5,10.7z M30.8,15.1h-1.5V9.1h1.5V15.1z M47.9,15.1h-2.1l-2.7-4.5v4.5h-2.9l-0.6-1.4h-3L36,15.1h-1.7
	c-0.7,0-1.6-0.2-2.1-0.7c-0.5-0.5-0.8-1.2-0.8-2.3c0-0.9,0.2-1.7,0.8-2.4c0.5-0.5,1.2-0.7,2.2-0.7h1.4v1.3h-1.4
	c-0.5,0-0.8,0.1-1.1,0.4C33.1,11,33,11.5,33,12.1c0,0.6,0.1,1.1,0.4,1.4c0.2,0.2,0.6,0.3,1,0.3H35l2-4.8h2.2l2.5,5.7V9.1h2.2
	l2.5,4.2V9.1h1.5L47.9,15.1L47.9,15.1z M0.1,16.3h2.5L3.1,15h1.2l0.6,1.3h4.9v-1l0.4,1h2.5l0.4-1v1h12.1l0-2.2h0.2
	c0.2,0,0.2,0,0.2,0.3v1.9H32v-0.5c0.5,0.3,1.3,0.5,2.3,0.5h2.6l0.6-1.3h1.2l0.6,1.3h5.1V15l0.8,1.3h4.1V7.9h-4v1l-0.6-1h-4.1v1
	l-0.5-1h-5.6c-0.9,0-1.8,0.1-2.4,0.5V7.9h-3.8v0.5c-0.4-0.4-1-0.5-1.6-0.5H12.5l-0.9,2.2l-1-2.2H6.1v1l-0.5-1H1.9l-1.8,4L0.1,16.3
	L0.1,16.3z"/>
<path class="st2" d="M51.6,20.8H49c-0.3,0-0.4,0-0.6,0.1c-0.2,0.1-0.2,0.2-0.2,0.4c0,0.2,0.1,0.4,0.3,0.5c0.2,0.1,0.3,0.1,0.6,0.1
	l0.8,0c0.8,0,1.3,0.2,1.6,0.5c0.1,0,0.1,0.1,0.1,0.1 M51.6,24.8c-0.4,0.5-1,0.8-2,0.8h-2.8v-1.3h2.8c0.3,0,0.5,0,0.6-0.1
	c0.1-0.1,0.2-0.2,0.2-0.4c0-0.2-0.1-0.3-0.2-0.4c-0.1-0.1-0.3-0.1-0.5-0.1c-1.4,0-3.1,0-3.1-1.9c0-0.9,0.6-1.8,2.1-1.8h2.9v-1.2
	h-2.7c-0.8,0-1.4,0.2-1.8,0.5v-0.5h-4c-0.6,0-1.4,0.2-1.7,0.5v-0.5h-7.1v0.5c-0.6-0.4-1.5-0.5-2-0.5h-4.7v0.5
	c-0.4-0.4-1.4-0.5-2-0.5h-5.2l-1.2,1.3l-1.1-1.3h-7.8v8.5H18l1.2-1.3l1.2,1.3l4.7,0v-2h0.5c0.6,0,1.4,0,2-0.3v2.3h3.9v-2.2h0.2
	c0.2,0,0.3,0,0.3,0.2v2h11.8c0.8,0,1.5-0.2,2-0.5v0.5h3.8c0.8,0,1.5-0.1,2.1-0.4L51.6,24.8L51.6,24.8z M45.8,22.4
	c0.3,0.3,0.4,0.7,0.4,1.3c0,1.3-0.8,1.9-2.3,1.9h-2.8v-1.3H44c0.3,0,0.5,0,0.6-0.1c0.1-0.1,0.2-0.2,0.2-0.4c0-0.2-0.1-0.3-0.2-0.4
	c-0.1-0.1-0.3-0.1-0.5-0.1c-1.4,0-3,0-3-1.9c0-0.9,0.6-1.8,2.1-1.8H46v1.3h-2.7c-0.3,0-0.4,0-0.6,0.1c-0.2,0.1-0.2,0.2-0.2,0.4
	c0,0.2,0.1,0.4,0.3,0.5c0.2,0.1,0.3,0.1,0.6,0.1l0.8,0C45,21.9,45.5,22,45.8,22.4z M32.8,22c-0.2,0.1-0.4,0.1-0.7,0.1h-1.8v-1.4h1.8
	c0.3,0,0.5,0,0.7,0.1c0.2,0.1,0.3,0.3,0.3,0.5S32.9,21.9,32.8,22z M33.6,22.7c0.3,0.1,0.6,0.3,0.7,0.5c0.2,0.3,0.2,0.6,0.2,1.1v1.2
	h-1.5v-0.8c0-0.4,0-0.9-0.2-1.2c-0.2-0.2-0.5-0.3-1.1-0.3h-1.5v2.2h-1.5v-6.1h3.3c0.7,0,1.3,0,1.7,0.3c0.5,0.3,0.7,0.7,0.7,1.3
	C34.7,22.1,34,22.6,33.6,22.7z M35.5,19.5h4.8v1.3h-3.4v1.1h3.3v1.2h-3.3v1.2l3.4,0v1.3h-4.8V19.5z M25.7,22.3h-1.9v-1.5h1.9
	c0.5,0,0.9,0.2,0.9,0.7C26.6,22,26.3,22.3,25.7,22.3z M22.4,25l-2.2-2.5l2.2-2.4V25z M16.6,24.3h-3.6v-1.2h3.2v-1.2h-3.2v-1.1h3.6
	l1.6,1.8L16.6,24.3z M28.2,21.5c0,1.7-1.3,2-2.5,2h-1.8v2H21l-1.8-2l-1.9,2h-5.7v-6.1h5.8l1.8,2l1.8-2h4.6
	C26.9,19.5,28.2,19.8,28.2,21.5z"/>
</svg>
