<?xml version="1.0" encoding="utf-8"?>
<!-- Generator: Adobe Illustrator 21.1.0, SVG Export Plug-In . SVG Version: 6.00 Build 0)  -->
<svg version="1.1" id="Calque_1" xmlns="http://www.w3.org/2000/svg" xmlns:xlink="http://www.w3.org/1999/xlink" x="0px" y="0px"
	 viewBox="0 0 24 24" style="enable-background:new 0 0 24 24;" xml:space="preserve">
<path d="M12,2C6.5,2,2,6.5,2,12s4.5,10,10,10s10-4.5,10-10S17.5,2,12,2z M11.9,16.7c-2.4,0-3.2-1.7-3.1-2.7h1.8
	c-0.1,0.3,0.2,1.2,1.4,1.2c1.3,0,1.4-1.1,1.4-1.3c0-1.4-1.3-1.4-1.5-1.4h-1v-1.4h1c0.5,0,1.4-0.1,1.4-1.3c0-1.1-1-1.2-1.3-1.2
	c-1,0-1.2,0.8-1.2,1H8.9c0-1.8,1.8-2.5,3-2.5C14.7,7.1,15,9,15,9.7c0,1.3-1.2,1.9-1.4,2c0.5,0.2,1.5,0.7,1.5,2.2
	C15.2,16.1,13.3,16.7,11.9,16.7z"/>
<path d="M2,2v20h20V2H2z M12.5,18.7c-3.9,0-7-3.1-7-7s3.1-7,7-7s7,3.1,7,7S16.3,18.7,12.5,18.7z"/>
</svg>
