<?xml version="1.0" encoding="utf-8"?>
<!-- Generator: Adobe Illustrator 21.1.0, SVG Export Plug-In . SVG Version: 6.00 Build 0)  -->
<svg version="1.1" id="Calque_1" xmlns="http://www.w3.org/2000/svg" xmlns:xlink="http://www.w3.org/1999/xlink" x="0px" y="0px"
	 viewBox="0 0 43 46" style="enable-background:new 0 0 43 46;" xml:space="preserve">
<g>
	<path d="M30.8,18.4v-6.5l-0.1-0.1c0-4.3-2.5-9-7.7-9c-6.4,0-9,4.7-9.1,9v0.1v6.5c0,0-3.7,0-6.5,0c0,0,0,22.8,0,24.8h30
		c0-2.9,0-24.8,0-24.8C34.5,18.4,30.8,18.4,30.8,18.4z M16.5,12v-0.1c0-3.7,2.5-6.5,6.1-6.5s5.6,3,5.6,6.5V12v6.4H16.5V12z M34.7,21
		v19.6H9.9V21H34.7z"/>
</g>
<path d="M25.6,36.7h-6.1l1.2-5.6c-0.7-0.5-1-1.3-1-2.2c0-1.6,1.3-2.9,2.9-2.9c1.6,0,2.9,1.3,2.9,2.9c0,0.8-0.4,1.7-1,2.2L25.6,36.7z
	 M21,35.5h3.1l-1-5l0.4-0.3c0.5-0.3,0.8-0.9,0.8-1.4c0-0.9-0.8-1.7-1.7-1.7c-0.9,0-1.7,0.8-1.7,1.7c0,0.5,0.3,1.2,0.8,1.4l0.4,0.3
	L21,35.5z"/>
</svg>
