<?xml version="1.0" encoding="utf-8"?>
<!-- Generator: Adobe Illustrator 21.1.0, SVG Export Plug-In . SVG Version: 6.00 Build 0)  -->
<svg version="1.1" id="Outline_Icons" xmlns="http://www.w3.org/2000/svg" xmlns:xlink="http://www.w3.org/1999/xlink" x="0px"
	 y="0px" viewBox="0 0 61.8 55.5" style="enable-background:new 0 0 61.8 55.5;" xml:space="preserve">
<style type="text/css">
	.st0{fill:none;stroke:#000000;stroke-width:2;stroke-linecap:round;stroke-linejoin:round;stroke-miterlimit:10;}
</style>
<g>
	<path class="st0" d="M24.4,17.4c2-2,2-5.3,0-7.4l-5.6-5.6c-2-2-5.3-2-7.4,0L8.6,7.6c-2.7,2.7-2.9,6.7-0.9,9.8
		C16.4,30.6,28,42.2,41.2,50.8c3.1,2,7.1,1.6,9.8-0.9l2.9-2.9c2-2,2-5.3,0-7.4l-5.6-5.6c-2-2-5.3-2-7.4,0l-1.8,1.8
		c-6-4.9-11.8-10.7-16.7-16.7L24.4,17.4z"/>
</g>
</svg>
