<?xml version="1.0" encoding="UTF-8"?>
<svg width="63px" height="60px" viewBox="0 0 63 60" version="1.1" xmlns="http://www.w3.org/2000/svg" xmlns:xlink="http://www.w3.org/1999/xlink">
    <!-- Generator: Sketch 48.2 (47327) - http://www.bohemiancoding.com/sketch -->
    <title>le plus Lapeyre</title>
    <desc>Created with Sketch.</desc>
    <defs></defs>
    <g id="CAD" stroke="none" stroke-width="1" fill="none" fill-rule="evenodd" transform="translate(-609.000000, -1195.000000)">
        <g id="POURQUOI-CE-SERVICE" transform="translate(169.000000, 1009.000000)" fill="#EA0028" stroke="#FFFFFF" stroke-width="0.3">
            <g id="Un-Espace-Optimisé" transform="translate(322.000000, 145.000000)">
                <g id="le-plus-Lapeyre" transform="translate(119.000000, 41.000000)">
                    <path d="M57.3188298,40.2576383 L57.3188298,50.9931702 L49.0120213,50.9931702 L56.8745745,42.6314681 C57.1139362,42.3767872 57.2384043,42.0352979 57.2192553,41.6861489 C57.1930851,41.2195532 57.1656383,40.7401915 57.1369149,40.2576383 L57.3188298,40.2576383 Z M61.1205319,26.4321064 L48.938617,14.2272128 C48.7898936,14.0778511 48.6118085,13.9782766 48.4235106,13.9189149 C48.4790426,13.3029574 48.4956383,12.8229574 48.4598936,12.4489149 C48.2071277,9.82997872 45.6903191,7.12104255 41.9173404,7.12104255 C38.1469149,7.12104255 35.6301064,9.82934043 35.3735106,12.4508298 C35.325,12.957 35.3735106,13.6718936 35.4807447,14.6191277 C34.647766,15.5172128 34.7339362,17.1767872 34.7467021,17.3676383 C34.7932979,18.0927447 35.2707447,19.1625319 36.0628723,19.7178511 C36.1075532,19.7484894 36.1515957,19.7772128 36.1962766,19.8046596 C36.4809574,21.1208298 36.9584043,21.9461489 37.3318085,22.424234 L37.3184043,23.6752979 C36.8537234,23.8967872 36.081383,24.2465745 34.8430851,24.764234 C32.1628723,25.8723191 30.0462766,26.7474255 29.0167021,28.3527447 C28.7281915,28.8008298 28.0528723,29.8514681 31.6815957,58.353383 C31.7632979,58.9974255 32.3128723,59.4684894 32.9460638,59.4684894 C32.9996809,59.4684894 33.0539362,59.4652979 33.1088298,59.4582766 C33.8084043,59.3682766 34.3030851,58.7287021 34.2137234,58.0304043 C32.6364894,45.6429574 31.1032979,31.7101915 31.2775532,29.5763617 C31.9745745,28.7127447 33.7643617,27.9729574 35.8235106,27.1214681 C38.4105319,26.0382766 39.1292553,25.6278511 39.2473404,25.557 C39.6252128,25.3284894 39.8588298,24.9193404 39.8632979,24.4776383 L39.8888298,21.9455106 C39.8926596,21.5446596 39.752234,21.2012553 39.435,20.9561489 C39.428617,20.949766 38.8043617,20.3535957 38.5835106,18.6282766 C38.5356383,18.2574255 38.3288298,17.9261489 38.0160638,17.7218936 C37.8424468,17.6082766 37.6458511,17.540617 37.4447872,17.5201915 C37.3758511,17.414234 37.3069149,17.2718936 37.2941489,17.1991277 C37.2807447,17.0076383 37.3024468,16.7338085 37.3394681,16.527 C37.4779787,16.4701915 37.6069149,16.3884894 37.7198936,16.2850851 C38.0237234,16.0048723 38.1730851,15.5944468 38.1207447,15.1840213 C38.0447872,14.5891277 37.8667021,13.1963617 37.9145745,12.6965745 C38.0364894,11.4410426 39.3596809,9.67551064 41.9167021,9.67551064 C44.4756383,9.67551064 45.7969149,11.4410426 45.9181915,12.6940213 C45.9647872,13.1848723 45.7879787,14.5878511 45.711383,15.1859362 C45.6590426,15.5963617 45.8090426,16.0055106 46.1128723,16.2863617 C46.2252128,16.389766 46.3535106,16.4708298 46.491383,16.5276383 C46.5284043,16.7338085 46.5501064,17.007 46.538617,17.1959362 C46.5252128,17.2763617 46.4575532,17.4167872 46.3898936,17.5208298 C46.1888298,17.540617 45.9909574,17.6089149 45.8173404,17.7225319 C45.5045745,17.9261489 45.2971277,18.2574255 45.2492553,18.6282766 C45.032234,20.3146596 44.4328723,20.9229574 44.4379787,20.9229574 L44.438617,20.9229574 C44.1220213,21.1680638 43.9388298,21.5465745 43.9426596,21.9461489 L43.9675532,24.4782766 C43.9720213,24.9199787 44.205,25.3291277 44.5828723,25.5576383 C44.7003191,25.6284894 45.4190426,26.0395532 48.0118085,27.1252979 C48.5945745,27.3659362 49.1779787,27.5912553 49.7428723,27.8095532 C51.291383,28.4082766 53.0415957,29.084234 53.4896809,29.6918936 C53.7960638,30.513383 54.1962766,34.6048723 54.4892553,38.9165745 C54.488617,38.9389149 54.4828723,38.9599787 54.4828723,38.9829574 C54.4828723,39.0748723 54.4937234,39.1648723 54.5128723,39.2516809 C54.5575532,39.9289149 54.6003191,40.6112553 54.638617,41.2840213 L45.6418085,50.8514681 C45.5996809,50.8961489 45.5664894,50.9452979 45.5326596,50.9938085 L40.3426596,50.9938085 L40.3426596,40.2582766 L46.6752128,40.2582766 C47.3798936,40.2582766 47.9518085,39.6857234 47.9518085,38.9816809 C47.9518085,38.2763617 47.3798936,37.7044468 46.6752128,37.7044468 L39.0654255,37.7044468 C38.3607447,37.7044468 37.7888298,38.2763617 37.7888298,38.9816809 L37.7888298,52.2704043 C37.7888298,52.9757234 38.3607447,53.547 39.0654255,53.547 L51.5071277,53.547 L51.5071277,58.1912553 C51.5071277,58.8952979 52.0784043,59.4678511 52.7837234,59.4678511 C53.487766,59.4678511 54.0603191,58.8952979 54.0603191,58.1912553 L54.0603191,53.547 L58.5947872,53.547 C59.3001064,53.547 59.871383,52.9757234 59.871383,52.2704043 L59.871383,38.9816809 C59.871383,38.2763617 59.3001064,37.7044468 58.5947872,37.7044468 L56.9703191,37.7044468 C56.6639362,33.3710426 56.2318085,29.2316809 55.6675532,28.3540213 C54.8218085,27.0340213 52.8947872,26.289766 50.6632979,25.4274255 C50.1162766,25.2161489 49.551383,24.9978511 48.992234,24.7661489 C47.7507447,24.2472128 46.9752128,23.8961489 46.5124468,23.6759362 L46.5003191,22.424234 C46.8724468,21.9467872 47.3498936,21.1208298 47.6345745,19.8046596 C47.685,19.7746596 47.7341489,19.7421064 47.7839362,19.7082766 C48.3392553,19.3131702 48.8026596,18.5918936 48.9915957,17.8961489 L59.3128723,28.2365745 C59.5624468,28.4867872 59.8892553,28.6112553 60.2167021,28.6112553 C60.5428723,28.6112553 60.8690426,28.4874255 61.118617,28.2372128 C61.6184043,27.7393404 61.6190426,26.9312553 61.1205319,26.4321064 Z" id="Fill-1"></path>
                    <path d="M27.3375319,52.6445745 L15.294766,52.6445745 L15.294766,35.4367021 C15.294766,34.7320213 14.7228511,34.1601064 14.0181702,34.1601064 L4.36455319,34.1601064 L15.042,23.5075532 C15.282,23.2681915 15.4166809,22.9420213 15.4166809,22.6037234 L15.4166809,8.26755319 L20.7790213,8.26755319 L20.7790213,14.7047872 C20.7790213,15.2211702 21.0898723,15.6858511 21.5660426,15.8837234 C22.0434894,16.0815957 22.5917872,15.9737234 22.9568936,15.608617 L34.8713617,3.72159574 L36.9866809,5.84521277 C37.4839149,6.3443617 38.292,6.3456383 38.7911489,5.84904255 C39.2915745,5.35117021 39.2928511,4.54308511 38.795617,4.04329787 L35.778383,1.01393617 C35.5396596,0.77393617 35.2154043,0.638617021 34.8764681,0.637978723 L34.8745532,0.637978723 C34.535617,0.637978723 34.212,0.772021277 33.9726383,1.01074468 L23.3322128,11.6275532 L23.3322128,6.99095745 C23.3322128,6.2862766 22.7602979,5.7143617 22.055617,5.7143617 L14.1394468,5.7143617 C13.434766,5.7143617 12.8628511,6.2862766 12.8628511,6.99095745 L12.8628511,22.0726596 L0.375191489,34.5328723 C0.00944680851,34.8973404 -0.100340426,35.4475532 0.096893617,35.925 C0.29412766,36.4018085 0.760085106,36.7132979 1.27646809,36.7132979 L12.7409362,36.7132979 L12.7409362,53.9211702 C12.7409362,54.6258511 13.3128511,55.197766 14.0175319,55.197766 L27.3368936,55.197766 C28.0415745,55.197766 28.6134894,54.6258511 28.6134894,53.9211702 C28.6134894,53.2164894 28.0428511,52.6445745 27.3375319,52.6445745" id="Fill-4"></path>
                    <path d="M42.5569787,34.2888511 L42.5569787,29.3235319 C42.5569787,28.6188511 41.9850638,28.0469362 41.280383,28.0469362 C40.5757021,28.0469362 40.0037872,28.6188511 40.0037872,29.3235319 L40.0037872,34.2888511 C40.0037872,34.9935319 40.5757021,35.5654468 41.280383,35.5654468 C41.9850638,35.5654468 42.5569787,34.9935319 42.5569787,34.2888511" id="Fill-7"></path>
                </g>
            </g>
        </g>
    </g>
</svg>