<?xml version="1.0" encoding="UTF-8"?>
<svg width="50px" height="60px" viewBox="0 0 50 60" version="1.1" xmlns="http://www.w3.org/2000/svg" xmlns:xlink="http://www.w3.org/1999/xlink">
    <!-- Generator: Sketch 48.2 (47327) - http://www.bohemiancoding.com/sketch -->
    <title>Confort</title>
    <desc>Created with Sketch.</desc>
    <defs></defs>
    <g id="CAD" stroke="none" stroke-width="1" fill="none" fill-rule="evenodd" transform="translate(-295.000000, -1190.000000)">
        <g id="POURQUOI-CE-SERVICE" transform="translate(169.000000, 1009.000000)" fill="#EA0028">
            <g id="Le-Gain-de-Temps" transform="translate(0.000000, 145.000000)">
                <g id="Confort" transform="translate(126.000000, 36.000000)">
                    <path d="M40.3675151,51.2833062 C36.1999481,55.3944679 30.6577095,57.6577937 24.7615088,57.6577937 C12.5882221,57.6577937 2.68441046,47.8930036 2.68441046,35.8914416 C2.68441046,31.3679141 4.08442157,27.0271396 6.7324064,23.3384966 C7.45379222,22.3224211 8.26940955,21.3625773 9.1547107,20.490205 C10.0629758,19.5944029 11.0369655,18.7899772 12.0505482,18.098015 C15.7707135,15.4949561 20.1687122,14.1172795 24.7615088,14.1172795 C29.3384683,14.1172795 33.7214216,15.4816791 37.4376276,18.0636512 L37.5271079,18.1347218 C37.9990574,18.460397 38.4662557,18.8134071 38.9294946,19.193752 L38.9983866,19.2523267 C39.4996349,19.6717214 39.939118,20.0692483 40.3461348,20.4683371 C40.8157087,20.9345916 41.2298523,21.3805402 41.6186563,21.8358607 C42.0454696,22.338822 42.4192282,22.8175724 42.7605205,23.2963228 L42.8341636,23.3876993 C45.4528496,27.0544745 46.8386072,31.378848 46.8386072,35.8914416 C46.8378153,41.7028311 44.5398333,47.1690205 40.3675151,51.2833062 Z M2.86733046,18.1628376 L6.78546112,14.2969086 L9.53242863,17.0061829 L8.78016021,17.6426944 C8.29395726,18.0574032 7.86793578,18.4455581 7.47438062,18.833713 C7.02143584,19.2796616 6.58274458,19.74904 6.1709766,20.2270094 L5.61508983,20.8728929 L2.86733046,18.1628376 Z M28.0897027,8.3824276 L28.0897027,11.9796941 L27.2194469,11.8945656 C26.4022458,11.814123 25.5747506,11.7742922 24.760717,11.7742922 C24.0242858,11.7742922 23.2435104,11.817247 22.301987,11.9101855 L21.4309394,11.996095 L21.4309394,8.3824276 L28.0897027,8.3824276 Z M17.5524018,4.1900423 C17.5524018,3.17084282 18.3925669,2.34220631 19.4243624,2.34220631 L30.0978634,2.34220631 C31.1296589,2.34220631 31.969824,3.17084282 31.969824,4.1900423 C31.969824,5.20767979 31.1296589,6.03553531 30.0978634,6.03553531 L19.4243624,6.03553531 C18.3925669,6.03553531 17.5524018,5.20767979 17.5524018,4.1900423 Z M40.5979468,16.4063781 L42.7367647,14.2969086 L46.6556872,18.1620566 L43.9118871,20.867426 L43.2696875,20.1387569 C42.8428741,19.6521966 42.449319,19.2304588 42.0692254,18.8555809 L42.0264649,18.8095021 C41.6289505,18.4244712 41.2306441,18.0628702 40.7666133,17.6645623 C40.7412737,17.6426944 40.70564,17.6106736 40.6707981,17.5770908 L40.0333496,17.0280508 L40.5979468,16.4063781 Z M45.6381452,23.3252197 L45.3118983,22.8003905 L49.1753905,18.9906931 C49.3994873,18.7688903 49.5238095,18.4752359 49.5238095,18.1620566 C49.5238095,17.8488773 49.3994873,17.5552229 49.1753905,17.3342011 L43.5769297,11.81178 C43.1144826,11.3548975 42.3598386,11.3548975 41.8973915,11.81178 L38.035483,15.6214774 L37.5033521,15.2997071 C35.5007344,14.0899447 33.3318258,13.1753986 31.0560158,12.5810609 L30.4668709,12.4279857 L30.4668709,8.40507647 L31.0766042,8.26293524 C33.0008276,7.81308168 34.3462003,6.13862675 34.3462003,4.1908233 C34.3462003,1.87985682 32.4401897,0 30.0986553,0 L19.4243624,0 C17.0820361,0 15.1768173,1.87985682 15.1768173,4.1908233 C15.1768173,6.13784575 16.5213982,7.81230068 18.4464134,8.26293524 L19.0553549,8.40507647 L19.0553549,12.4428246 L18.4670018,12.5966808 C16.1824814,13.1949235 14.018324,14.1079076 12.0331272,15.3114221 L11.5009963,15.6339733 L7.62562616,11.810999 C7.41895031,11.6079401 7.11249991,11.4907908 6.78546112,11.4907908 C6.45842232,11.4907908 6.15276379,11.6071591 5.9468798,11.810999 L0.348419056,17.3334201 C0.123530393,17.5544419 0,17.8488773 0,18.1620566 C0,18.4744549 0.123530393,18.7681093 0.347627195,18.9891311 L4.22378919,22.8128864 L3.89754226,23.3377156 C1.54967294,27.1161731 0.308825982,31.4561666 0.308825982,35.8906606 C0.308825982,49.1839896 11.2784832,60 24.7615088,60 C31.295158,60 37.4336683,57.4930036 42.0478452,52.9397982 C46.6691488,48.3819069 49.2141917,42.3268467 49.2141917,35.8906606 C49.2141917,31.4350797 47.977304,27.0904003 45.6381452,23.3252197 Z" id="Fill-1"></path>
                    <path d="M24.2857143,50.0452826 C16.3838451,50.0452826 9.95549622,43.6169337 9.95549622,35.7150645 C9.95549622,27.8139742 16.3838451,21.3848465 24.2857143,21.3848465 C32.1875834,21.3848465 38.6159324,27.8139742 38.6159324,35.7150645 C38.6159324,43.6169337 32.1875834,50.0452826 24.2857143,50.0452826 M24.2857143,19.047619 C15.0956831,19.047619 7.61904762,26.5242546 7.61904762,35.7142857 C7.61904762,44.9043169 15.0956831,52.3809524 24.2857143,52.3809524 C33.4757454,52.3809524 40.952381,44.9043169 40.952381,35.7142857 C40.952381,26.5242546 33.4757454,19.047619 24.2857143,19.047619" id="Fill-4"></path>
                    <path d="M24.9538457,37.1428571 L32.1890115,37.1428571 C32.8206771,37.1428571 33.3333333,36.6294381 33.3333333,35.9985353 C33.3333333,35.3676325 32.8206771,34.8542134 32.1890115,34.8542134 L26.0981676,34.8542134 L26.0981676,28.7633695 C26.0981676,28.1324667 25.5847485,27.6190476 24.9538457,27.6190476 C24.3229429,27.6190476 23.8095238,28.1324667 23.8095238,28.7633695 L23.8095238,35.9985353 C23.8095238,36.6294381 24.3229429,37.1428571 24.9538457,37.1428571" id="Fill-6"></path>
                    <path d="M17.144127,34.2857143 L17.1422222,34.2857143 C16.8780952,34.2857143 16.632381,34.3813075 16.4679365,34.5492414 L16.4628571,34.5544086 C16.2895238,34.7268638 16.1904762,34.9748894 16.1904762,35.2364788 C16.1904762,35.4890256 16.2920635,35.7415724 16.4634921,35.91209 C16.8203175,36.2834823 17.4603175,36.2802528 17.807619,35.9204867 C17.9904762,35.7383429 18.0952381,35.4857961 18.0952381,35.2364788 C18.0952381,34.983932 17.9911111,34.7326769 17.8107937,34.5479496 C17.648254,34.3813075 17.4057143,34.2857143 17.144127,34.2857143" id="Fill-8"></path>
                </g>
            </g>
        </g>
    </g>
</svg>