<?xml version="1.0" encoding="UTF-8"?>
<svg width="19px" height="16px" viewBox="0 0 19 16" version="1.1" xmlns="http://www.w3.org/2000/svg" xmlns:xlink="http://www.w3.org/1999/xlink">
    <!-- Generator: Sketch 48.2 (47327) - http://www.bohemiancoding.com/sketch -->
    <title>loupe</title>
    <desc>Created with Sketch.</desc>
    <defs></defs>
    <g id="HEADER" stroke="none" stroke-width="1" fill="none" fill-rule="evenodd" transform="translate(-345.000000, -22.000000)">
        <g fill="#AA192D" id="loupe">
            <g transform="translate(345.000000, 22.000000)">
                <path d="M6.0593,2.0265 C8.9173,1.4065 11.7433,3.2755 12.3573,6.1915 C12.9723,9.1075 11.1473,11.9845 8.2883,12.6035 C5.4313,13.2225 2.6053,11.3555 1.9903,8.4385 C1.3753,5.5225 3.2013,2.6465 6.0593,2.0265 M18.5703,14.2415 L13.5113,10.7515 C14.3023,9.2325 14.5433,7.4835 14.1873,5.7955 C13.3553,1.8505 9.5333,-0.6785 5.6653,0.1605 C1.7993,0.9985 -0.6697,4.8905 0.1613,8.8355 C0.9933,12.7805 4.8153,15.3085 8.6823,14.4705 C10.1343,14.1555 11.4233,13.4085 12.4273,12.3045 L17.5243,15.8205 C17.7373,15.9675 17.9933,16.0185 18.2443,15.9645 C18.4813,15.9135 18.6873,15.7715 18.8233,15.5665 C19.1113,15.1305 18.9983,14.5375 18.5703,14.2415" id="Fill-1"></path>
            </g>
        </g>
    </g>
</svg>