<?xml version="1.0" encoding="utf-8"?>
<!-- Generator: Adobe Illustrator 21.1.0, SVG Export Plug-In . SVG Version: 6.00 Build 0)  -->
<svg version="1.1" id="Outline_Icons" xmlns="http://www.w3.org/2000/svg" xmlns:xlink="http://www.w3.org/1999/xlink" x="0px"
	 y="0px" viewBox="0 0 24 23.5" style="enable-background:new 0 0 24 23.5;" xml:space="preserve">
<style type="text/css">
	.st0{fill:none;stroke:#212121;stroke-linejoin:round;stroke-miterlimit:10;}
	.st1{fill:none;stroke:#212121;stroke-linecap:round;stroke-linejoin:round;stroke-miterlimit:10;}
</style>
<g>
	<rect x="1.2" y="6.8" class="st0" width="19.1" height="14.2"/>
	<path class="st1" d="M16.1,4.4c-0.9,0.9-5.2,1.9-5.2,1.9s1-4.3,1.9-5.2c0.9-0.9,2.3-0.9,3.2,0C17,2.1,17,3.5,16.1,4.4z"/>
	<path class="st1" d="M5.8,4.4c0.9,0.9,5.2,1.9,5.2,1.9S9.9,2.1,9,1.2c-0.9-0.9-2.3-0.9-3.2,0C4.9,2.1,4.9,3.5,5.8,4.4z"/>
</g>
<line class="st0" x1="21" y1="13.7" x2="2" y2="13.7"/>
<line class="st0" x1="10.8" y1="5.9" x2="10.8" y2="20.5"/>
</svg>
