<?xml version="1.0" encoding="utf-8"?>
<!-- Generator: Adobe Illustrator 21.1.0, SVG Export Plug-In . SVG Version: 6.00 Build 0)  -->
<svg version="1.1" id="Calque_1" xmlns="http://www.w3.org/2000/svg" xmlns:xlink="http://www.w3.org/1999/xlink" x="0px" y="0px"
	 viewBox="0 0 52 32" style="enable-background:new 0 0 52 32;" xml:space="preserve">
<style type="text/css">
	.st0{fill:none;enable-background:new    ;}
	.st1{fill:#231F20;}
	.st2{fill:#F49419;}
	.st3{fill:#EB621D;}
	.st4{fill:#E41522;}
	.st5{fill:#F59E1F;}
</style>
<path class="st0" d="M0,0"/>
<g transform="translate(1565.7 -1106.8)">
	<g transform="matrix(3.1437 0 0 3.1437 -4835.7 -1027.6)">
		<g transform="matrix(1.25 0 0 -1.25 1102.5 727.74)">
			<path class="st1" d="M-39.2,31.8L-39.2,31.8L-39.2,31.8C-39.2,31.8-39.2,31.8-39.2,31.8C-39.2,31.8-39.2,31.8-39.2,31.8
				C-39.2,31.8-39.2,31.8-39.2,31.8C-39.2,31.8-39.2,31.8-39.2,31.8L-39.2,31.8z M-39.2,31.8C-39.2,31.8-39.2,31.8-39.2,31.8
				C-39.2,31.8-39.2,31.8-39.2,31.8C-39.2,31.8-39.2,31.8-39.2,31.8C-39.2,31.8-39.2,31.8-39.2,31.8L-39.2,31.8L-39.2,31.8
				L-39.2,31.8L-39.2,31.8L-39.2,31.8L-39.2,31.8L-39.2,31.8L-39.2,31.8z M-39.2,31.7C-39.2,31.7-39.2,31.7-39.2,31.7
				C-39.2,31.7-39.2,31.7-39.2,31.7C-39.2,31.7-39.2,31.7-39.2,31.7C-39.2,31.8-39.2,31.8-39.2,31.7C-39.2,31.8-39.2,31.8-39.2,31.7
				C-39.2,31.8-39.2,31.8-39.2,31.7c0,0.1,0,0.1,0,0.1c0,0,0,0,0,0c0,0,0,0,0,0C-39.2,31.8-39.2,31.8-39.2,31.7
				C-39.3,31.8-39.3,31.8-39.2,31.7C-39.3,31.8-39.3,31.8-39.2,31.7C-39.3,31.8-39.3,31.8-39.2,31.7C-39.3,31.7-39.3,31.7-39.2,31.7
				C-39.2,31.7-39.2,31.7-39.2,31.7C-39.2,31.7-39.2,31.7-39.2,31.7 M-39.2,31.8C-39.2,31.8-39.2,31.8-39.2,31.8
				C-39.2,31.8-39.2,31.8-39.2,31.8C-39.2,31.8-39.1,31.8-39.2,31.8C-39.1,31.8-39.1,31.8-39.2,31.8C-39.1,31.8-39.1,31.8-39.2,31.8
				c0.1-0.1,0.1-0.1,0-0.1c0,0,0,0,0,0c0,0,0,0,0,0c0,0,0,0,0,0c0,0,0,0,0,0C-39.3,31.7-39.3,31.7-39.2,31.8
				C-39.3,31.8-39.3,31.8-39.2,31.8C-39.3,31.8-39.3,31.8-39.2,31.8C-39.3,31.8-39.3,31.8-39.2,31.8C-39.3,31.8-39.2,31.8-39.2,31.8
				C-39.2,31.8-39.2,31.8-39.2,31.8 M-45.6,32.1c0,0.1,0.1,0.2,0.2,0.2c0.1,0,0.2-0.1,0.2-0.2c0-0.1-0.1-0.2-0.2-0.2
				C-45.6,31.9-45.6,32-45.6,32.1 M-45.1,32.1v0.3h-0.1v-0.1c0,0.1-0.1,0.1-0.2,0.1c-0.2,0-0.3-0.2-0.3-0.4c0-0.2,0.2-0.4,0.3-0.4
				c0.1,0,0.2,0,0.2,0.1v-0.1h0.1V32.1z M-40,32.1c0,0.1,0.1,0.2,0.2,0.2c0.1,0,0.2-0.1,0.2-0.2c0-0.1-0.1-0.2-0.2-0.2
				C-39.9,31.9-40,32-40,32.1 M-39.5,32.1v0.6h-0.1v-0.4c0,0.1-0.1,0.1-0.2,0.1c-0.2,0-0.3-0.2-0.3-0.4c0-0.2,0.2-0.4,0.3-0.4
				c0.1,0,0.2,0,0.2,0.1v-0.1h0.1V32.1z M-43.2,32.3c0.1,0,0.2-0.1,0.2-0.2h-0.4C-43.4,32.2-43.3,32.3-43.2,32.3 M-43.2,32.4
				c-0.2,0-0.3-0.1-0.3-0.4c0-0.2,0.1-0.4,0.4-0.4c0.1,0,0.2,0,0.3,0.1l-0.1,0.1c-0.1,0-0.1-0.1-0.2-0.1c-0.1,0-0.2,0-0.2,0.2h0.5
				c0,0,0,0,0,0.1C-42.9,32.3-43,32.4-43.2,32.4 M-41.4,32.1c0,0.1,0.1,0.2,0.2,0.2c0.1,0,0.2-0.1,0.2-0.2c0-0.1-0.1-0.2-0.2-0.2
				C-41.3,31.9-41.4,32-41.4,32.1 M-40.8,32.1v0.3H-41v-0.1c0,0.1-0.1,0.1-0.2,0.1c-0.2,0-0.3-0.2-0.3-0.4c0-0.2,0.2-0.4,0.3-0.4
				c0.1,0,0.2,0,0.2,0.1v-0.1h0.1V32.1z M-42.3,32.1c0-0.2,0.1-0.4,0.4-0.4c0.1,0,0.2,0,0.2,0.1l-0.1,0.1c-0.1,0-0.1-0.1-0.2-0.1
				c-0.1,0-0.2,0.1-0.2,0.2c0,0.1,0.1,0.2,0.2,0.2c0.1,0,0.1,0,0.2-0.1l0.1,0.1c-0.1,0.1-0.1,0.1-0.2,0.1
				C-42.1,32.4-42.3,32.3-42.3,32.1 M-40.3,32.4c-0.1,0-0.1,0-0.2-0.1v0.1h-0.1v-0.7h0.1v0.4c0,0.1,0,0.2,0.1,0.2c0,0,0.1,0,0.1,0
				l0,0.1C-40.2,32.4-40.3,32.4-40.3,32.4 M-44.3,32.4c-0.1,0-0.2,0.1-0.3,0.1c-0.2,0-0.3-0.1-0.3-0.2c0-0.1,0.1-0.2,0.2-0.2l0.1,0
				c0.1,0,0.1,0,0.1-0.1c0-0.1-0.1-0.1-0.2-0.1c-0.1,0-0.2,0-0.2,0.1l-0.1-0.1c0.1-0.1,0.2-0.1,0.3-0.1c0.2,0,0.3,0.1,0.3,0.2
				c0,0.1-0.1,0.2-0.2,0.2l-0.1,0c-0.1,0-0.1,0-0.1,0.1c0,0.1,0,0.1,0.1,0.1c0.1,0,0.2,0,0.2-0.1L-44.3,32.4z M-42.4,32.4
				c-0.1,0-0.1,0-0.2-0.1v0.1h-0.1v-0.7h0.1v0.4c0,0.1,0,0.2,0.1,0.2c0,0,0.1,0,0.1,0l0,0.1C-42.3,32.4-42.4,32.4-42.4,32.4
				 M-43.7,32.4h-0.2v0.2h-0.2v-0.2h-0.1v-0.1h0.1V32c0-0.2,0.1-0.3,0.2-0.3c0.1,0,0.1,0,0.2,0.1l0,0.1c0,0-0.1,0-0.1,0
				c-0.1,0-0.1,0-0.1,0.1v0.3h0.2V32.4z M-45.9,31.7v0.4c0,0.2-0.1,0.3-0.3,0.3c-0.1,0-0.2,0-0.2-0.1c0,0.1-0.1,0.1-0.2,0.1
				c-0.1,0-0.1,0-0.2-0.1v0.1H-47v-0.7h0.2v0.4c0,0.1,0.1,0.2,0.2,0.2c0.1,0,0.1-0.1,0.1-0.2v-0.4h0.2v0.4c0,0.1,0.1,0.2,0.2,0.2
				c0.1,0,0.2-0.1,0.2-0.2v-0.4H-45.9z"/>
		</g>
		<g transform="matrix(1.25 0 0 -1.25 1103.2 710.77)">
			<path class="st2" d="M-39.7,20.5v0.1h0L-39.7,20.5l-0.1,0.1h0v-0.1H-39.7L-39.7,20.5L-39.7,20.5L-39.7,20.5L-39.7,20.5
				L-39.7,20.5L-39.7,20.5z M-39.9,20.5L-39.9,20.5L-39.9,20.5l0,0.1h-0.1L-39.9,20.5L-39.9,20.5L-39.9,20.5L-39.9,20.5z"/>
		</g>
		<path class="st3" d="M1049.9,685.7h-2.8v-5.1h2.8V685.7z"/>
		<g transform="matrix(1.25 0 0 -1.25 1064.5 698.59)">
			<path class="st4" d="M-13.8,12.3c0,0.8,0.4,1.6,1,2c-0.4,0.3-1,0.6-1.6,0.6c-1.4,0-2.6-1.2-2.6-2.6s1.2-2.6,2.6-2.6
				c0.6,0,1.2,0.2,1.6,0.6C-13.4,10.8-13.8,11.5-13.8,12.3"/>
		</g>
		<g transform="matrix(1.25 0 0 -1.25 1103.8 698.59)">
			<path class="st5" d="M-40.1,12.3c0-1.4-1.2-2.6-2.6-2.6c-0.6,0-1.2,0.2-1.6,0.6c0.6,0.5,1,1.2,1,2c0,0.8-0.4,1.6-1,2
				c0.4,0.3,1,0.6,1.6,0.6C-41.2,14.9-40.1,13.7-40.1,12.3"/>
		</g>
	</g>
</g>
</svg>
