<?xml version="1.0"?>
<svg xmlns="http://www.w3.org/2000/svg" viewBox="0 0 24 24" enable-background="new 0 0 24 24">
    <path d="M12,2C6.5,2,2,6.5,2,12s4.5,10,10,10s10-4.5,10-10S17.5,2,12,2z M11.9,16.7c-2.4,0-3.2-1.7-3.1-2.7h1.8 c-0.1,0.3,0.2,1.2,1.4,1.2c1.3,0,1.4-1.1,1.4-1.3c0-1.4-1.3-1.4-1.5-1.4h-1v-1.4h1c0.5,0,1.4-0.1,1.4-1.3c0-1.1-1-1.2-1.3-1.2 c-1,0-1.2,0.8-1.2,1H8.9c0-1.8,1.8-2.5,3-2.5c2.8,0,3.1,1.9,3.1,2.6c0,1.3-1.2,1.9-1.4,2c0.5,0.2,1.5,0.7,1.5,2.2 C15.2,16.1,13.3,16.7,11.9,16.7z"/>
</svg>
