<?xml version="1.0" encoding="utf-8"?>
<!-- Generator: Adobe Illustrator 21.1.0, SVG Export Plug-In . SVG Version: 6.00 Build 0)  -->
<svg version="1.1" id="Calque_1" xmlns="http://www.w3.org/2000/svg" xmlns:xlink="http://www.w3.org/1999/xlink" x="0px" y="0px"
	 viewBox="0 0 24 24" style="enable-background:new 0 0 24 24;" xml:space="preserve">
<path d="M12,2C6.5,2,2,6.5,2,12s4.5,10,10,10s10-4.5,10-10S17.5,2,12,2z M12.2,7.3H14v5.8h1v1.5h-1v2h-1.8v-2H8.4l-0.1-1.2L12.2,7.3
	z M12.1,9.9l-2,3.2h2V9.9z"/>
<path d="M2,2v20h20V2H2z M12.5,18.7c-3.9,0-7-3.1-7-7s3.1-7,7-7s7,3.1,7,7S16.3,18.7,12.5,18.7z"/>
</svg>
