<?xml version="1.0" encoding="utf-8"?>
<!-- Generator: Adobe Illustrator 21.1.0, SVG Export Plug-In . SVG Version: 6.00 Build 0)  -->
<svg version="1.1" id="Calque_1" xmlns="http://www.w3.org/2000/svg" xmlns:xlink="http://www.w3.org/1999/xlink" x="0px" y="0px"
	 viewBox="0 0 24 24" style="enable-background:new 0 0 24 24;" xml:space="preserve">
<path d="M12,2C6.5,2,2,6.5,2,12s4.5,10,10,10s10-4.5,10-10S17.5,2,12,2z M15.3,16.6H8.9v-1.3c2.7-3,4.2-4.1,4.2-5.3
	c0-0.4-0.2-1.3-1.2-1.3c-1.3,0-1.3,1.3-1.3,1.6H8.7c0-0.9,0.7-3,3.2-3s3,1.5,3,2.6c0,1.5-1.1,2.7-3.7,5.3h4v1.4H15.3z"/>
<path d="M2,2v20h20V2H2z M12.5,18.7c-3.9,0-7-3.1-7-7s3.1-7,7-7s7,3.1,7,7S16.3,18.7,12.5,18.7z"/>
</svg>
