<?xml version="1.0" encoding="utf-8"?>
<!-- Generator: Adobe Illustrator 21.1.0, SVG Export Plug-In . SVG Version: 6.00 Build 0)  -->
<svg version="1.1" id="Outline_Icons" xmlns="http://www.w3.org/2000/svg" xmlns:xlink="http://www.w3.org/1999/xlink" x="0px"
	 y="0px" viewBox="0 0 34.2 31.1" style="enable-background:new 0 0 34.2 31.1;" xml:space="preserve">
<style type="text/css">
	.st1{display:none;}
	.st2{font-family:'Arial-BoldMT';}
	.st3{font-size:6.1561px;}
</style>
<path class="st0" d="M27.5,29.6H7.1V16.2h20.4V29.6z M8.3,28.2h18V17.5h-18V28.2z"/>
<path class="st0" d="M27.5,25.6H7.1v-5.4h20.4V25.6z M8.3,24.2h18v-2.7h-18V24.2z"/>
<path class="st0" d="M17.3,2.8l13.9,7.4l0,18.3H3.4l0.1-18.3L17.3,2.8 M17.3,1L1.9,9.2L1.8,30h30.9l0-20.3l-0.1-0.5L17.3,1L17.3,1z"
	/>
<text transform="matrix(1 0 0 1 7.75 15.3623)" class="st1 st2 st3">DRIVE</text>
<path class="st0" d="M21.7,12h-8.7v-1.3h8.7V12z"/>
</svg>
