<?xml version="1.0" encoding="utf-8"?>
<!-- Generator: Adobe Illustrator 21.1.0, SVG Export Plug-In . SVG Version: 6.00 Build 0)  -->
<svg version="1.1" id="Calque_1" xmlns="http://www.w3.org/2000/svg" xmlns:xlink="http://www.w3.org/1999/xlink" x="0px" y="0px"
	 viewBox="429 213.3 43 46" style="enable-background:new 429 213.3 43 46;" xml:space="preserve">
<g>
	<path class="st0" d="M456,234.3v-5c0,0-0.1-0.1-0.1-0.1c0-3.3-1.9-6.9-5.9-6.9c-4.9,0-6.9,3.6-7,6.9c0,0,0,0.1,0,0.1v5
		c0,0-2.8,0-5,0c0,0,0,17.5,0,19h23c0-2.2,0-19,0-19C458.8,234.3,456,234.3,456,234.3z M445,229.4c0,0,0-0.1,0-0.1
		c0-2.8,1.9-5,4.7-5s4.3,2.3,4.3,5c0,0,0,0.1,0,0.1l0,4.9h-9L445,229.4z M459,236.3v15h-19v-15H459z"/>
</g>
<path class="st0" d="M452,248.3h-4.7l0.9-4.3c-0.5-0.4-0.8-1-0.8-1.7c0-1.2,1-2.2,2.2-2.2c1.2,0,2.2,1,2.2,2.2
	c0,0.6-0.3,1.3-0.8,1.7L452,248.3z M448.5,247.4h2.4l-0.8-3.8l0.3-0.2c0.4-0.2,0.6-0.7,0.6-1.1c0-0.7-0.6-1.3-1.3-1.3
	s-1.3,0.6-1.3,1.3c0,0.4,0.2,0.9,0.6,1.1l0.3,0.2L448.5,247.4z"/>
</svg>
