<svg id="Calque_1" data-name="Calque 1" xmlns="http://www.w3.org/2000/svg" xmlns:xlink="http://www.w3.org/1999/xlink" viewBox="0 0 1282.4 411.8"><defs><style>.cls-1{fill:none;}.cls-2{fill:#ae182d;}.cls-3{clip-path:url(#clip-path);}.cls-4{fill:#ea0029;}.cls-5{fill:#fff;}</style><clipPath id="clip-path"><rect class="cls-1" width="1282.4" height="350.67"/></clipPath></defs><title>LogoLapeyre</title><rect class="cls-2" width="1282.4" height="411.77"/><g class="cls-3"><path class="cls-4" d="M206.5,133.3h20.4a2.5,2.5,0,0,1,2.4,2.6h0v20.4a2.4,2.4,0,0,1-2.2,2.6H206.5a2.6,2.6,0,0,1-2.6-2.6h0V135.9a2.6,2.6,0,0,1,2.6-2.6h0"/><path class="cls-4" d="M172.7,167.5h20.4a2.6,2.6,0,0,1,2.6,2.6h0v20.4a2.4,2.4,0,0,1-2.4,2.4H172.7a2.4,2.4,0,0,1-2.6-2.2h0V170.1a2.6,2.6,0,0,1,2.6-2.6h0"/><path class="cls-4" d="M252.1,90.3c-20.5-16.5-29.3-23.4-44.3-35.7a13.2,13.2,0,0,0-8-3h-.2a13.5,13.5,0,0,0-8.2,3c-22.6,18.5-47.5,38.3-75.1,60.5a14.4,14.4,0,0,0-5.8,11.8c.1,23.4.1,117.9.1,117.9s.8,4.5,4.3,4.7h12c2.6-.2,4.5-.9,4.5-4.5s.2-90.2,0-112.9a4.6,4.6,0,0,1,2.1-4.1l64.6-51.7,1.5-1.2,1.5,1.2,50.7,40.1c2.8,2.5,3-.3,3-.3V94.9a5.2,5.2,0,0,0-2.7-4.6"/><path class="cls-5" d="M267.8,104.7V241.5a6.4,6.4,0,0,0,6.4,6.3h84.5a6.3,6.3,0,0,0,6.3-6.3h0v-8.8a6.4,6.4,0,0,0-6.3-6.4H290.1V123.9c0-2.8,0-4.7-4.5-8.2l-15.3-12.5a2.1,2.1,0,0,0-1.9-.4c-.4.4-.6.7-.6,1.9"/><path class="cls-5" d="M464.5,107.8a4.4,4.4,0,0,0-3.8-2.4H445.2a4.2,4.2,0,0,0-3.9,2.4L383,242.2a4.1,4.1,0,0,0,.2,4,4.7,4.7,0,0,0,3.5,1.8h15.9a3.8,3.8,0,0,0,3.7-2.4L419.8,214h65.6l13.4,31.6a4.5,4.5,0,0,0,4,2.4h16a4.2,4.2,0,0,0,4.3-4.1,4.7,4.7,0,0,0-.3-1.7Zm11,83.2H429.7l22.8-53.4Z"/><path class="cls-5" d="M596.8,105.4h-49a4.1,4.1,0,0,0-4.1,4.1h0V243.9a4.1,4.1,0,0,0,4.1,4.1h15a4.1,4.1,0,0,0,4.1-4.1h0V205.6h29.9c34.4,0,54.9-19.1,54.9-50.8s-20.5-49.4-54.9-49.4m-29.9,23.2h29.3c21.9,0,32.9,8.8,32.9,26.5s-11,27.5-32.9,27.5H566.9Z"/><path class="cls-5" d="M769.3,225H697.5V187.5h61.7a4.1,4.1,0,0,0,4.1-4.1v-15a4.1,4.1,0,0,0-4.1-4.1H697.5V128.6h69.6a4.1,4.1,0,0,0,4.1-4.1v-15a4.3,4.3,0,0,0-4.1-4.1H678.5a4.1,4.1,0,0,0-4.1,4.1h0V243.9a4.1,4.1,0,0,0,4.1,4.1h90.8a4.1,4.1,0,0,0,4.3-3.9h0V229.3a4.3,4.3,0,0,0-4.3-4.3"/><path class="cls-5" d="M906.3,105.4H891a4.1,4.1,0,0,0-3.6,2.1l-38.1,63.9-38.7-63.9a3.9,3.9,0,0,0-3.5-2.1H791.5a3.9,3.9,0,0,0-3.5,2.1,4.3,4.3,0,0,0,0,4.1l49.9,87.8v44.5A4.1,4.1,0,0,0,842,248h14.8a4.1,4.1,0,0,0,4.1-4.1h0v-45l49-87.3a4.3,4.3,0,0,0,0-4.1,4.1,4.1,0,0,0-3.6-2.1"/><path class="cls-5" d="M1013.4,200.2c17.6-7.9,27.1-23.8,27.1-45.4,0-31.1-20.7-49.4-55.5-49.4H935.5a4.1,4.1,0,0,0-4.3,3.9h0V243.9a4.1,4.1,0,0,0,4.1,4.1h14.9a4.1,4.1,0,0,0,4.3-3.9h0V205.6h37l25.6,40.6a4.5,4.5,0,0,0,3.6,1.8h16.8a3.9,3.9,0,0,0,3.7-2.2,3.9,3.9,0,0,0-.1-4.3Zm-58.9-71.6H985c21.7,0,32.7,8.8,32.7,26.5s-11,27.5-32.7,27.5H954.5Z"/><path class="cls-5" d="M1164.6,225h-71.8V187.5h61.5a4.3,4.3,0,0,0,4.3-4.3h0V168.4a4.1,4.1,0,0,0-4.1-4.1h-61.7V128.6h69.4a4.3,4.3,0,0,0,4.3-4.3h0V109.5a4.3,4.3,0,0,0-4.1-4.1h-88.6a4.1,4.1,0,0,0-4.1,4.1h0V243.9a4.1,4.1,0,0,0,4.1,4.1h90.8a4.1,4.1,0,0,0,4.3-3.9h0V229.3a4.3,4.3,0,0,0-4.3-4.3h0"/></g><path class="cls-5" d="M111,302.2h5.3v42.1h26.5v5H111Z"/><path class="cls-5" d="M167.8,302.2h34.1v4.9H173.1v16.1h25.8V328H173.1v16.5h29.1v4.8H167.8Z"/><path class="cls-5" d="M260.2,342.4l3.3-3.9a22.1,22.1,0,0,0,16.1,6.7c6.4,0,10.5-3.4,10.5-8h0c0-4.3-2.3-6.8-12.2-9S262,322.4,262,314.7h0c0-7.4,6.6-12.8,15.6-12.8a25.2,25.2,0,0,1,16.6,5.7l-3.2,4.2a20.7,20.7,0,0,0-13.6-5.1c-6,0-9.9,3.4-9.9,7.5h0c0,4.5,2.4,6.9,12.7,9.1s15.3,6.2,15.3,13.3h0c0,8.1-6.7,13.3-16.1,13.3A27.5,27.5,0,0,1,260.2,342.4Z"/><path class="cls-5" d="M337.9,301.9h4.9l21.5,47.4h-5.6l-5.6-12.5H327.5l-5.6,12.5h-5.5Zm13.1,30L340.4,308l-10.9,23.9Z"/><path class="cls-5" d="M377.9,302.2h6l16.8,40.6,16.8-40.6h5.7L403,349.7h-4.7Z"/><path class="cls-5" d="M442.8,325.8h0a24.1,24.1,0,1,1,48-4.4h0a29.4,29.4,0,0,1,0,4.2h0a23.9,23.9,0,0,1-23.5,24.3h-.6C452.3,350.1,442.8,338.9,442.8,325.8Zm42.4,0h0c0-10.9-7.8-19.5-18.5-19.5s-18.5,8.6-18.5,19.3h0c0,10.6,7.8,19.4,18.7,19.4s18.3-8.4,18.3-19.2Z"/><path class="cls-5" d="M517.5,302.2H523v47.1h-5.5Z"/><path class="cls-5" d="M551.9,302.2h20.2a18.7,18.7,0,0,1,13.5,4.7,13.3,13.3,0,0,1,3.5,9.3h0c0,7.9-5.4,12.6-12.7,13.9l14.4,19.2h-6.5L570.6,331H557.2v18.3h-5.3Zm19.8,23.9c7,0,12-3.5,12-9.7h0c0-5.8-4.3-9.3-12-9.3H557.2v19Z"/><path class="cls-5" d="M651,302.2h20c5.4,0,9.7,1.5,12.3,4.1a10.1,10.1,0,0,1,3,7.5h0a11.1,11.1,0,0,1-7.5,10.9c5.6,1.6,10.3,5,10.3,11.4h0c0,8-6.9,12.9-17.2,12.9H651Zm30.1,12.4c0-4.7-3.8-7.7-10.5-7.7H656.2v16.3h14c6.4,0,10.9-2.8,10.9-8.5Zm-9.9,13.2h-15v16.7h15.9c7.1,0,11.6-3.2,11.6-8.4h0c0-5.3-4.3-8.3-12.5-8.3Z"/><path class="cls-5" d="M715.3,302.2h5.2v47.1h-5.2Z"/><path class="cls-5" d="M749.5,302.2h34v4.9H754.7v16.1h25.8V328H754.7v16.5h29.2v4.8H749.5Z"/><path class="cls-5" d="M809.7,302.2h5L844.4,340V302.2h5.1v47.1h-4.1l-30.5-38.7v38.7h-5.2Z"/><path class="cls-5" d="M913.4,302.2h33.8v4.9H918.6v16.8h25.6v4.9H918.6v20.5h-5.2Z"/><path class="cls-5" d="M984.6,301.9h5.1l21.5,47.4h-5.8l-5.5-12.5H974.1l-5.4,12.5h-5.6Zm13.1,30L987,308l-10.6,23.9Z"/><path class="cls-5" d="M1036,302.2h5.2v47.1H1036Z"/><path class="cls-5" d="M1070.2,302.2h20.4a18,18,0,0,1,13.3,4.7,12.4,12.4,0,0,1,3.7,9.3h0c0,7.9-5.4,12.6-12.9,13.9l14.6,19.2h-6.6L1089.1,331h-13.5v18.3h-5.4Zm19.8,23.9c7.1,0,12.2-3.5,12.2-9.7h0c0-5.8-4.5-9.3-12.2-9.3h-14.4v19Z"/><path class="cls-5" d="M1134.1,302.2h34.1v4.9h-28.8v16.1h25.8V328h-25.8v16.5h29.1v4.8h-34.4Z"/></svg>