<svg id="Calque_1" data-name="Calque 1" xmlns="http://www.w3.org/2000/svg" xmlns:xlink="http://www.w3.org/1999/xlink" viewBox="0 0 32.59 41.83"><defs><style>.cls-1,.cls-2,.cls-5{fill:none;}.cls-1{clip-rule:evenodd;}.cls-3{clip-path:url(#clip-path);}.cls-4{clip-path:url(#clip-path-2);}.cls-5{stroke:#aa192d;stroke-linecap:round;stroke-linejoin:round;stroke-width:5.46px;}.cls-6{clip-path:url(#clip-path-3);}</style><clipPath id="clip-path" transform="translate(2.46 2.49)"><path class="cls-1" d="M27.4,13.47c0,7.3-13.57,23.15-13.57,23.15S.27,20.77.27,13.47A13.4,13.4,0,0,1,13.84.24,13.4,13.4,0,0,1,27.4,13.47Z"/></clipPath><clipPath id="clip-path-2" transform="translate(2.46 2.49)"><rect class="cls-2" x="-383" y="-256" width="827" height="1170"/></clipPath><clipPath id="clip-path-3" transform="translate(2.46 2.49)"><ellipse class="cls-2" cx="13.84" cy="13.47" rx="5.09" ry="4.96"/></clipPath></defs><title>loc</title><g class="cls-3"><g class="cls-4"><path class="cls-5" d="M27.4,13.47c0,7.3-13.57,23.15-13.57,23.15S.27,20.77.27,13.47A13.4,13.4,0,0,1,13.84.24,13.4,13.4,0,0,1,27.4,13.47Z" transform="translate(2.46 2.49)"/></g></g><g class="cls-6"><g class="cls-4"><ellipse class="cls-5" cx="16.3" cy="15.96" rx="5.09" ry="4.96"/></g></g></svg>