<?xml version="1.0" encoding="utf-8"?>
<!-- Generator: Adobe Illustrator 21.1.0, SVG Export Plug-In . SVG Version: 6.00 Build 0)  -->
<svg version="1.1" id="Outline_Icons" xmlns="http://www.w3.org/2000/svg" xmlns:xlink="http://www.w3.org/1999/xlink" x="0px"
	 y="0px" viewBox="0 0 61.8 55.5" style="enable-background:new 0 0 61.8 55.5;" xml:space="preserve">
<style type="text/css">
	.st0{fill:none;stroke:#666666;stroke-width:2;stroke-linecap:round;stroke-linejoin:round;stroke-miterlimit:10;}
</style>
<g>
	<path class="st0" d="M25.6,28.4c0.9-0.9,0.9-2.4,0-3.3l-2.5-2.5c-0.9-0.9-2.4-0.9-3.3,0L18.5,24c-1.2,1.2-1.3,3-0.4,4.4
		c3.9,5.9,9.1,11.1,15,15c1.4,0.9,3.2,0.7,4.4-0.4l1.3-1.3c0.9-0.9,0.9-2.4,0-3.3l-2.5-2.5c-0.9-0.9-2.4-0.9-3.3,0l-0.8,0.8
		c-2.7-2.2-5.3-4.8-7.5-7.5L25.6,28.4z"/>
</g>
</svg>
