<?xml version="1.0" encoding="UTF-8"?>
<svg width="38px" height="60px" viewBox="0 0 38 60" version="1.1" xmlns="http://www.w3.org/2000/svg" xmlns:xlink="http://www.w3.org/1999/xlink">
    <!-- Generator: Sketch 48.2 (47327) - http://www.bohemiancoding.com/sketch -->
    <title>éco</title>
    <desc>Created with Sketch.</desc>
    <defs></defs>
    <g id="CAD" stroke="none" stroke-width="1" fill="none" fill-rule="evenodd" transform="translate(-943.000000, -1190.000000)">
        <g id="POURQUOI-CE-SERVICE" transform="translate(169.000000, 1009.000000)" fill="#EA0028" stroke="#EA0028" stroke-width="0.3">
            <g id="Des-Conseils-Esthétiques" transform="translate(643.000000, 145.000000)">
                <g id="éco" transform="translate(132.000000, 36.000000)">
                    <path d="M32.5853824,29.5880294 C31.7286176,29.4874412 30.8639118,29.6647941 30.1024412,30.0856765 C29.3921471,28.9368529 28.1083235,28.2036176 26.6595,28.2036176 C25.9147941,28.2036176 25.1824412,28.4215588 24.5568529,28.8115588 C23.8165588,27.7880294 22.5971471,27.1386176 21.2718529,27.1386176 C20.8236176,27.1386176 20.3806765,27.2180294 19.9624412,27.3697941 L19.9624412,17.0621471 C19.9624412,15.0221471 18.4853824,13.2477353 16.5009706,12.9309706 C15.3362647,12.7800882 14.1768529,13.1330294 13.3095,13.8962647 C12.4368529,14.6639118 11.9365588,15.7721471 11.9365588,16.9377353 L11.9365588,36.5515588 L9.1695,32.3533235 C8.04008824,30.6592059 5.61273529,30.2665588 3.75802941,31.4780294 C2.80420588,32.0992059 2.13802941,33.0777353 1.92802941,34.1612647 C1.7445,35.1124412 1.92979412,36.0477353 2.43979412,36.7730294 C10.8053824,49.4506765 12.3742059,51.8153824 12.7156765,52.3033235 L12.7112647,52.3068529 C12.9327353,52.6395 13.1824412,52.9174412 13.4400882,53.1830294 L13.4400882,58.7056765 C13.4400882,59.1945 13.8353824,59.5880294 14.3224412,59.5880294 C14.8095,59.5880294 15.2047941,59.1945 15.2047941,58.7056765 L15.2047941,52.8203824 C15.2047941,52.5865588 15.0997941,52.3500882 14.9347941,52.1842059 C14.6489118,51.8983235 14.3789118,51.6274412 14.1812647,51.3292059 C14.1733235,51.3159706 14.1645,51.3045 14.1556765,51.2921471 C13.8212647,50.8095 6.66008824,39.9627353 3.89920588,35.7803824 C3.65391176,35.4300882 3.56920588,34.9739118 3.66097059,34.4965588 C3.78097059,33.8797941 4.16744118,33.3177353 4.72332353,32.9559706 C5.77155882,32.2721471 7.10832353,32.4397941 7.70038235,33.3292059 L11.3127353,38.8077353 C11.6056765,39.2956765 12.1818529,39.5189118 12.7474412,39.3618529 C13.3183235,39.2030294 13.7030294,38.6974412 13.7030294,38.1027353 L13.7030294,16.9377353 C13.7030294,16.2795 13.9845,15.6539118 14.4759706,15.2215588 C14.9700882,14.7865588 15.6106765,14.5942059 16.2503824,14.6771471 C17.3436176,14.8518529 18.1995,15.8992059 18.1995,17.0621471 L18.1995,28.9606765 C18.1995,29.3171471 18.4139118,29.6392059 18.7439118,29.7759706 C19.0712647,29.9118529 19.4524412,29.8377353 19.7056765,29.5853824 C20.0180294,29.2739118 20.5430294,28.9033235 21.2736176,28.9033235 C22.2715588,28.9033235 23.1592059,29.5456765 23.4345,30.4659706 C23.5289118,30.7783235 23.7874412,31.0139118 24.1068529,31.0774412 C24.4253824,31.1374412 24.7545,31.0236176 24.9636176,30.7712647 C25.3756765,30.2683235 26.0100882,29.9683235 26.6612647,29.9683235 C27.7333235,29.9683235 28.6412647,30.6645 28.8689118,31.6615588 C28.9395,31.9747941 29.1759706,32.2253824 29.4839118,32.3136176 C29.7927353,32.4036176 30.1253824,32.3180294 30.3521471,32.0895 C30.9053824,31.5353824 31.6633235,31.2574412 32.3445,31.3350882 C33.4747941,31.5159706 34.2945,32.5192059 34.2936176,33.7200882 L34.2936176,42.1403824 C34.2009706,42.4677353 33.8074412,43.4030294 32.3859706,43.4030294 C31.1347941,43.4030294 30.6697941,42.3645 30.6230294,42.2550882 C30.4871471,41.9012647 30.1527353,41.6656765 29.7565588,41.6930294 C29.3753824,41.7124412 29.0515588,41.9745 28.9500882,42.3415588 C28.9483235,42.3521471 28.6395,43.4083235 27.0680294,43.4083235 C25.1895,43.4083235 24.9724412,42.5303824 24.9689118,42.5259706 C24.9124412,42.1077353 24.5639118,41.7989118 24.1430294,41.7742059 C23.7292059,41.7503824 23.3392059,42.0371471 23.2350882,42.4456765 C23.1927353,42.6053824 22.9245,43.4083235 21.6618529,43.4083235 C21.1606765,43.4083235 20.7953824,43.2662647 20.5121471,42.9627353 C19.8574412,42.2568529 19.8053824,40.8433235 19.8433235,40.2918529 L19.8433235,32.6665588 C19.8433235,32.1786176 19.4489118,31.7842059 18.9609706,31.7842059 C18.4730294,31.7842059 18.0786176,32.1786176 18.0786176,32.6665588 L18.0812647,40.2221471 C18.0618529,40.4780294 17.9224412,42.7597941 19.2150882,44.1574412 C19.8283235,44.8218529 20.6745,45.1721471 21.6618529,45.1721471 C22.7939118,45.1721471 23.5871471,44.7697941 24.1112647,44.2686176 C24.6759706,44.7556765 25.5909706,45.1721471 27.0680294,45.1721471 C28.3571471,45.1721471 29.2500882,44.6956765 29.8271471,44.1318529 C30.3645,44.6639118 31.1903824,45.1659706 32.3859706,45.1659706 C34.8521471,45.1659706 35.8571471,43.3677353 36.0433235,42.4165588 C36.0539118,42.3609706 36.0592059,42.3036176 36.0592059,42.2471471 L36.0592059,33.7209706 C36.0583235,31.6483235 34.6139118,29.9118529 32.5853824,29.5880294" id="Fill-1"></path>
                    <path d="M35.2134706,46.2765 C34.7184706,46.2217941 34.2931765,46.5756176 34.2411176,47.0609118 C34.002,49.3020882 32.8831765,51.3756176 31.0964118,52.9003235 C30.8978824,53.0670882 30.7858235,53.3141471 30.7858235,53.5726765 L30.7858235,58.7062059 C30.7858235,59.1950294 31.1811176,59.5885588 31.6681765,59.5885588 C32.1561176,59.5885588 32.5505294,59.1950294 32.5505294,58.7062059 L32.5505294,53.9697353 C34.5031765,52.1785588 35.7217059,49.8067941 35.9961176,47.2488529 C36.0472941,46.7635588 35.6978824,46.3285588 35.2134706,46.2765" id="Fill-4"></path>
                    <path d="M7.75579412,16.6375588 C7.75579412,16.1505 7.3605,15.7552059 6.87344118,15.7552059 L0.882264706,15.7552059 C0.395205882,15.7552059 -8.82352941e-05,16.1505 -8.82352941e-05,16.6375588 C-8.82352941e-05,17.1246176 0.395205882,17.5199118 0.882264706,17.5199118 L6.87344118,17.5199118 C7.3605,17.5199118 7.75579412,17.1255 7.75579412,16.6375588" id="Fill-6"></path>
                    <path d="M24.8923235,17.5199118 L30.8808529,17.5199118 C31.3687941,17.5199118 31.7632059,17.1246176 31.7632059,16.6375588 C31.7632059,16.1505 31.3687941,15.7552059 30.8808529,15.7552059 L24.8923235,15.7552059 C24.4035,15.7552059 24.0099706,16.1505 24.0099706,16.6375588 C24.0099706,17.1246176 24.4043824,17.5199118 24.8923235,17.5199118" id="Fill-9"></path>
                    <path d="M15.4738235,8.63814706 C15.9608824,8.63814706 16.3561765,8.24285294 16.3561765,7.75579412 L16.3561765,1.76461765 C16.3561765,1.27755882 15.9608824,0.882264706 15.4738235,0.882264706 C14.9867647,0.882264706 14.5914706,1.27755882 14.5914706,1.76461765 L14.5914706,7.75579412 C14.5914706,8.24285294 14.9867647,8.63814706 15.4738235,8.63814706" id="Fill-11"></path>
                </g>
            </g>
        </g>
    </g>
</svg>