<?xml version="1.0" encoding="UTF-8"?>
<svg width="77px" height="102px" viewBox="0 0 77 102" version="1.1" xmlns="http://www.w3.org/2000/svg" xmlns:xlink="http://www.w3.org/1999/xlink">
    <!-- Generator: Sketch 48.2 (47327) - http://www.bohemiancoding.com/sketch -->
    <title>economique</title>
    <desc>Created with Sketch.</desc>
    <defs></defs>
    <g id="CAD" stroke="none" stroke-width="1" fill="none" fill-rule="evenodd" transform="translate(-726.000000, -1684.000000)">
        <g id="DOUBLE-ENTRE" transform="translate(0.000000, 1528.000000)" fill="#FFFFFF" stroke="#FFFFFF">
            <g id="COMBIEN" transform="translate(686.000000, 80.000000)">
                <g id="economique" transform="translate(41.000000, 77.000000)">
                    <path d="M68,92 L66.1901639,92 L66.1901639,1.81463941 L8.47650273,1.81463941 L8.47650273,92 L6.66666667,92 L6.66666667,1.47106768 C6.66666667,0.659923864 7.32484372,0 8.13384044,0 L66.5326251,0 C67.341823,0 68,0.659923864 68,1.47106768 L68,92 Z" id="Fill-1"></path>
                    <path d="M1.82608696,98.1052632 L72.8405797,98.1052632 L72.8405797,93.8947368 L1.82608696,93.8947368 L1.82608696,98.1052632 Z M73.1784058,100 L1.48805797,100 C0.667536232,100 0,99.3073684 0,98.4557895 L0,93.5442105 C0,92.6926316 0.667536232,92 1.48805797,92 L73.1784058,92 C73.9991304,92 74.6666667,92.6926316 74.6666667,93.5442105 L74.6666667,98.4557895 C74.6666667,99.3073684 73.9991304,100 73.1784058,100 Z" id="Fill-3"></path>
                    <path d="M12.1119367,93.3333333 C12.0376478,93.1507375 12,92.9575445 12,92.759053 L12,6.82813321 C12,6.00400633 12.6555143,5.33333333 13.4614184,5.33333333 L61.2054496,5.33333333 C62.0111523,5.33333333 62.6666667,6.00400633 62.6666667,6.82813321 L62.6666667,92.759053 C62.6666667,92.9047629 62.6461315,93.0490462 62.6054639,93.1876235 L60.8686328,92.6655134 C60.8593718,92.6964895 60.8547413,92.7278731 60.8547413,92.759053 L60.8547413,7.16744362 L13.8119253,7.16744362 L13.8119253,92.759053 C13.8119253,92.7172761 13.8032684,92.6742764 13.7871624,92.6343335 L12.1119367,93.3333333 Z" id="Fill-5"></path>
                    <polygon id="Fill-6" points="13.3333333 34.6666667 61.3333333 34.6666667 61.3333333 33.3333333 13.3333333 33.3333333"></polygon>
                    <polygon id="Fill-7" points="13.3333333 65.3333333 62.6666667 65.3333333 62.6666667 64 13.3333333 64"></polygon>
                    <polygon id="Fill-8" points="36 92 37.3333333 92 37.3333333 6.66666667 36 6.66666667"></polygon>
                </g>
            </g>
        </g>
    </g>
</svg>