<svg id="Calque_1" data-name="Calque 1" xmlns="http://www.w3.org/2000/svg" xmlns:xlink="http://www.w3.org/1999/xlink" viewBox="0 0 47 40"><defs><style>.cls-1,.cls-2,.cls-3{fill:#aa192d;}.cls-1{clip-rule:evenodd;}.cls-3{fill-rule:evenodd;}.cls-4{clip-path:url(#clip-path);}.cls-5{clip-path:url(#clip-path-2);}</style><clipPath id="clip-path"><path class="cls-1" d="M45.14,34.85l-12-8.3a17.62,17.62,0,0,0,1.61-11.78A17.12,17.12,0,0,0,14.47,1.38,17.36,17.36,0,0,0,1.38,22,17.12,17.12,0,0,0,21.64,35.4a16.75,16.75,0,0,0,8.9-5.15l12.12,8.36a2.18,2.18,0,0,0,1.71.34A2.21,2.21,0,0,0,45.74,38a2.3,2.3,0,0,0-.6-3.15M15.4,5.82a12.66,12.66,0,0,1,15,9.9A12.83,12.83,0,0,1,20.7,31a12.66,12.66,0,0,1-15-9.9A12.83,12.83,0,0,1,15.4,5.82"/></clipPath><clipPath id="clip-path-2"><rect class="cls-2" x="-177" y="-254" width="827" height="1170"/></clipPath></defs><title>Plan de travail 1</title><path class="cls-3" d="M45.14,34.85l-12-8.3a17.62,17.62,0,0,0,1.61-11.78A17.12,17.12,0,0,0,14.47,1.38,17.36,17.36,0,0,0,1.38,22,17.12,17.12,0,0,0,21.64,35.4a16.75,16.75,0,0,0,8.9-5.15l12.12,8.36a2.18,2.18,0,0,0,1.71.34A2.21,2.21,0,0,0,45.74,38a2.3,2.3,0,0,0-.6-3.15M15.4,5.82a12.66,12.66,0,0,1,15,9.9A12.83,12.83,0,0,1,20.7,31a12.66,12.66,0,0,1-15-9.9A12.83,12.83,0,0,1,15.4,5.82"/><g class="cls-4"><rect class="cls-2" x="-177" y="-254" width="827" height="1170"/><g class="cls-5"><rect class="cls-2" x="-4" y="-4" width="55.12" height="48"/></g></g></svg>