<svg id="Calque_1" data-name="Calque 1" xmlns="http://www.w3.org/2000/svg" xmlns:xlink="http://www.w3.org/1999/xlink" viewBox="0 0 45.18 42.64"><defs><style>.cls-1,.cls-2,.cls-6,.cls-7,.cls-8,.cls-9{fill:none;}.cls-1{clip-rule:evenodd;}.cls-3{clip-path:url(#clip-path);}.cls-4{clip-path:url(#clip-path-2);}.cls-5{fill:#aa192d;}.cls-6,.cls-7,.cls-8,.cls-9{stroke:#aa192d;}.cls-6,.cls-7{stroke-linecap:round;}.cls-6,.cls-8,.cls-9{stroke-miterlimit:10;}.cls-6,.cls-7,.cls-8{stroke-width:2.92px;}.cls-7{stroke-linejoin:round;}.cls-9{stroke-width:4.88px;}</style><clipPath id="clip-path" transform="translate(-0.91 4.03)"><path class="cls-1" d="M17.56,9.18,32.9,3.85l5.27,15.48L22.83,24.66ZM34.29,1,14.72,7.77l6.72,19.75L41,20.74Z"/></clipPath><clipPath id="clip-path-2" transform="translate(-0.91 4.03)"><rect class="cls-2" x="-73.55" y="-254.46" width="827" height="1170" transform="translate(-0.48 0.49) rotate(-0.08)"/></clipPath></defs><title>panier</title><g class="cls-3"><g class="cls-4"><rect class="cls-5" x="9.73" y="-4.01" width="36.27" height="36.52" transform="translate(-0.93 4.07) rotate(-0.08)"/></g></g><path class="cls-6" d="M16.91,27.69,9.81,6.83a11.08,11.08,0,0,0-7.43-3.7" transform="translate(-0.91 4.03)"/><line class="cls-7" x1="43.72" y1="28.03" x2="22.36" y2="35.44"/><ellipse class="cls-8" cx="18.4" cy="32.46" rx="4.65" ry="4.69" transform="translate(-0.96 4.06) rotate(-0.08)"/><line class="cls-9" x1="25.92" y1="15.88" x2="23.73" y2="9.46"/></svg>